SpartanTT-Black.ufo
<glyph name="exclam" format="2">
  <advance width="806"/>
  <unicode hex="0021"/>
  <outline>
    <component base="period" xOffset="-23"/>
    <contour>
      <point x="553" y="580" type="line"/>
      <point x="611" y="1720" type="line"/>
      <point x="195" y="1720" type="line"/>
      <point x="253" y="580" type="line"/>
    </contour>
  </outline>
</glyph>
<glyph name="numbersign" format="2">
  <advance width="1645"/>
  <unicode hex="0023"/>
  <outline>
    <contour>
      <point x="558" y="0" type="line"/>
      <point x="608" y="442" type="line"/>
      <point x="934" y="442" type="line"/>
      <point x="884" y="0" type="line"/>
      <point x="1166" y="0" type="line"/>
      <point x="1216" y="442" type="line"/>
      <point x="1524" y="442" type="line"/>
      <point x="1524" y="726" type="line"/>
      <point x="1252" y="726" type="line"/>
      <point x="1282" y="982" type="line"/>
      <point x="1524" y="982" type="line"/>
      <point x="1524" y="1266" type="line"/>
      <point x="1314" y="1266" type="line"/>
      <point x="1368" y="1706" type="line"/>
      <point x="1084" y="1706" type="line"/>
      <point x="1032" y="1266" type="line"/>
      <point x="706" y="1266" type="line"/>
      <point x="760" y="1706" type="line"/>
      <point x="476" y="1706" type="line"/>
      <point x="424" y="1266" type="line"/>
      <point x="122" y="1266" type="line"/>
      <point x="122" y="982" type="line"/>
      <point x="390" y="982" type="line"/>
      <point x="360" y="726" type="line"/>
      <point x="122" y="726" type="line"/>
      <point x="122" y="442" type="line"/>
      <point x="326" y="442" type="line"/>
      <point x="276" y="0" type="line"/>
    </contour>
    <contour>
      <point x="674" y="982" type="line"/>
      <point x="1000" y="982" type="line"/>
      <point x="968" y="726" type="line"/>
      <point x="644" y="726" type="line"/>
    </contour>
  </outline>
</glyph>
<glyph name="dollar" format="2">
  <advance width="1406"/>
  <unicode hex="0024"/>
  <outline>
    <component base="S" xOffset="30"/>
    <contour>
      <point x="609" y="1926" type="line"/>
      <point x="609" y="1664" type="line"/>
      <point x="859" y="1664" type="line"/>
      <point x="859" y="1926" type="line"/>
    </contour>
    <contour>
      <point x="609" y="-10" type="line"/>
      <point x="609" y="-276" type="line"/>
      <point x="859" y="-276" type="line"/>
      <point x="859" y="-10" type="line"/>
    </contour>
  </outline>
</glyph>
<glyph name="percent" format="2">
  <advance width="1953"/>
  <unicode hex="0025"/>
  <outline>
    <contour>
      <point x="489" y="892" type="curve" smooth="yes"/>
      <point x="747" y="892"/>
      <point x="945" y="1054"/>
      <point x="945" y="1286" type="curve" smooth="yes"/>
      <point x="945" y="1518"/>
      <point x="747" y="1680"/>
      <point x="489" y="1680" type="curve" smooth="yes"/>
      <point x="231" y="1680"/>
      <point x="33" y="1518"/>
      <point x="33" y="1286" type="curve" smooth="yes"/>
      <point x="33" y="1054"/>
      <point x="231" y="892"/>
    </contour>
    <contour>
      <point x="489" y="1136" type="curve" smooth="yes"/>
      <point x="407" y="1136"/>
      <point x="335" y="1198"/>
      <point x="335" y="1286" type="curve" smooth="yes"/>
      <point x="335" y="1374"/>
      <point x="407" y="1436"/>
      <point x="489" y="1436" type="curve" smooth="yes"/>
      <point x="571" y="1436"/>
      <point x="643" y="1374"/>
      <point x="643" y="1286" type="curve" smooth="yes"/>
      <point x="643" y="1198"/>
      <point x="571" y="1136"/>
    </contour>
    <contour>
      <point x="1463" y="-32" type="curve" smooth="yes"/>
      <point x="1721" y="-32"/>
      <point x="1919" y="130"/>
      <point x="1919" y="362" type="curve" smooth="yes"/>
      <point x="1919" y="594"/>
      <point x="1721" y="756"/>
      <point x="1463" y="756" type="curve" smooth="yes"/>
      <point x="1205" y="756"/>
      <point x="1007" y="594"/>
      <point x="1007" y="362" type="curve" smooth="yes"/>
      <point x="1007" y="130"/>
      <point x="1205" y="-32"/>
    </contour>
    <contour>
      <point x="1463" y="212" type="curve" smooth="yes"/>
      <point x="1381" y="212"/>
      <point x="1309" y="274"/>
      <point x="1309" y="362" type="curve" smooth="yes"/>
      <point x="1309" y="450"/>
      <point x="1381" y="512"/>
      <point x="1463" y="512" type="curve" smooth="yes"/>
      <point x="1545" y="512"/>
      <point x="1617" y="450"/>
      <point x="1617" y="362" type="curve" smooth="yes"/>
      <point x="1617" y="274"/>
      <point x="1545" y="212"/>
    </contour>
    <contour>
      <point x="637" y="0" type="line"/>
      <point x="1597" y="1650" type="line"/>
      <point x="1323" y="1650" type="line"/>
      <point x="363" y="0" type="line"/>
    </contour>
  </outline>
</glyph>
<glyph name="ampersand" format="2">
  <advance width="1856"/>
  <unicode hex="0026"/>
  <outline>
    <contour>
      <point x="621" y="-32" type="curve" smooth="yes"/>
      <point x="836" y="-32"/>
      <point x="1018" y="37"/>
      <point x="1170" y="150" type="curve"/>
      <point x="1318" y="0" type="line" name=".hr01"/>
      <point x="1874" y="0" type="line"/>
      <point x="1502" y="384" type="line"/>
      <point x="1563" y="429"/>
      <point x="1655" y="510"/>
      <point x="1746" y="598" type="curve"/>
      <point x="1476" y="866" type="line"/>
      <point x="1408" y="798"/>
      <point x="1304" y="714"/>
      <point x="1226" y="664" type="curve"/>
      <point x="1064" y="826" type="line"/>
      <point x="1271" y="940"/>
      <point x="1384" y="1090"/>
      <point x="1384" y="1249" type="curve" smooth="yes"/>
      <point x="1384" y="1439"/>
      <point x="1222" y="1682"/>
      <point x="845" y="1682" type="curve" smooth="yes"/>
      <point x="547" y="1682"/>
      <point x="302" y="1530"/>
      <point x="302" y="1241" type="curve" smooth="yes"/>
      <point x="302" y="1124"/>
      <point x="342" y="1023"/>
      <point x="452" y="872" type="curve"/>
      <point x="177" y="766"/>
      <point x="48" y="623" name=".hr02"/>
      <point x="48" y="420" type="curve" smooth="yes"/>
      <point x="48" y="156"/>
      <point x="266" y="-32"/>
    </contour>
    <contour>
      <point x="685" y="388" type="curve" smooth="yes"/>
      <point x="603" y="388"/>
      <point x="550" y="425"/>
      <point x="550" y="490" type="curve" smooth="yes"/>
      <point x="550" y="556"/>
      <point x="604" y="623"/>
      <point x="674" y="638" type="curve"/>
      <point x="880" y="448" type="line"/>
      <point x="821" y="411"/>
      <point x="750" y="388"/>
    </contour>
    <contour>
      <point x="846" y="1064" type="curve"/>
      <point x="790" y="1121"/>
      <point x="752" y="1188"/>
      <point x="752" y="1254" type="curve" smooth="yes"/>
      <point x="752" y="1325" name=".hr03"/>
      <point x="796" y="1374"/>
      <point x="868" y="1374" type="curve" smooth="yes"/>
      <point x="945" y="1374"/>
      <point x="998" y="1318"/>
      <point x="998" y="1252" type="curve" smooth="yes"/>
      <point x="998" y="1189"/>
      <point x="950" y="1130"/>
    </contour>
  </outline>
</glyph>
<glyph name="quotesingle" format="2">
  <advance width="694"/>
  <unicode hex="0027"/>
  <outline>
    <contour>
      <point x="469" y="900" type="line"/>
      <point x="543" y="1720" type="line"/>
      <point x="151" y="1720" type="line"/>
      <point x="225" y="900" type="line"/>
    </contour>
  </outline>
</glyph>
<glyph name="parenleft" format="2">
  <advance width="727"/>
  <unicode hex="0028"/>
  <outline>
    <contour>
      <point x="675" y="-378" type="line"/>
      <point x="584" y="-230"/>
      <point x="457" y="129"/>
      <point x="457" y="615" type="curve" smooth="yes"/>
      <point x="457" y="1101"/>
      <point x="584" y="1460"/>
      <point x="675" y="1608" type="curve"/>
      <point x="425" y="1750" type="line"/>
      <point x="277" y="1552"/>
      <point x="80" y="1132"/>
      <point x="80" y="614" type="curve" smooth="yes"/>
      <point x="80" y="99"/>
      <point x="275" y="-320"/>
      <point x="425" y="-520" type="curve"/>
    </contour>
  </outline>
</glyph>
<glyph name="asterisk" format="2">
  <advance width="1042"/>
  <unicode hex="002A"/>
  <outline>
    <contour>
      <point x="519" y="1146" type="line"/>
      <point x="669" y="952" type="line"/>
      <point x="825" y="1058" type="line"/>
      <point x="685" y="1270" type="line"/>
      <point x="927" y="1358" type="line"/>
      <point x="867" y="1546" type="line"/>
      <point x="623" y="1470" type="line"/>
      <point x="623" y="1720" type="line"/>
      <point x="415" y="1720" type="line"/>
      <point x="415" y="1470" type="line"/>
      <point x="171" y="1546" type="line"/>
      <point x="111" y="1358" type="line"/>
      <point x="353" y="1270" type="line"/>
      <point x="213" y="1058" type="line"/>
      <point x="369" y="952" type="line"/>
    </contour>
  </outline>
</glyph>
<glyph name="plus" format="2">
  <advance width="1280"/>
  <unicode hex="002B"/>
  <outline>
    <contour>
      <point x="820" y="316" type="line"/>
      <point x="820" y="650" type="line"/>
      <point x="1154" y="650" type="line"/>
      <point x="1154" y="1010" type="line"/>
      <point x="820" y="1010" type="line"/>
      <point x="820" y="1344" type="line"/>
      <point x="460" y="1344" type="line"/>
      <point x="460" y="1010" type="line"/>
      <point x="126" y="1010" type="line"/>
      <point x="126" y="650" type="line"/>
      <point x="460" y="650" type="line"/>
      <point x="460" y="316" type="line"/>
    </contour>
  </outline>
</glyph>
<glyph name="comma" format="2">
  <advance width="777"/>
  <unicode hex="002C"/>
  <outline>
    <contour>
      <point x="277" y="-414" type="line"/>
      <point x="525" y="-210"/>
      <point x="667" y="21"/>
      <point x="667" y="215" type="curve" smooth="yes"/>
      <point x="667" y="386"/>
      <point x="557" y="500"/>
      <point x="404" y="500" type="curve" smooth="yes"/>
      <point x="251" y="500"/>
      <point x="135" y="387"/>
      <point x="135" y="236" type="curve" smooth="yes"/>
      <point x="135" y="117"/>
      <point x="207" y="25"/>
      <point x="331" y="-8" type="curve"/>
      <point x="312" y="-102"/>
      <point x="221" y="-263"/>
      <point x="157" y="-316" type="curve"/>
    </contour>
  </outline>
</glyph>
<glyph name="zero" format="2">
  <advance width="1500"/>
  <unicode hex="0030"/>
  <outline>
    <contour>
      <point x="750" y="-32" type="curve" smooth="yes"/>
      <point x="1155" y="-32"/>
      <point x="1432" y="316"/>
      <point x="1432" y="824" type="curve" smooth="yes"/>
      <point x="1432" y="1332"/>
      <point x="1155" y="1680"/>
      <point x="750" y="1680" type="curve" smooth="yes"/>
      <point x="345" y="1680"/>
      <point x="68" y="1332"/>
      <point x="68" y="824" type="curve" smooth="yes"/>
      <point x="68" y="316"/>
      <point x="345" y="-32"/>
    </contour>
    <contour>
      <point x="750" y="354" type="curve" smooth="yes"/>
      <point x="611" y="354"/>
      <point x="532" y="525"/>
      <point x="532" y="824" type="curve" smooth="yes"/>
      <point x="532" y="1123"/>
      <point x="611" y="1294"/>
      <point x="750" y="1294" type="curve" smooth="yes"/>
      <point x="889" y="1294"/>
      <point x="968" y="1123"/>
      <point x="968" y="824" type="curve" smooth="yes"/>
      <point x="968" y="525"/>
      <point x="889" y="354"/>
    </contour>
  </outline>
</glyph>
<glyph name="two" format="2">
  <advance width="1500"/>
  <unicode hex="0032"/>
  <outline>
    <contour>
      <point x="1371" y="0" type="line"/>
      <point x="1371" y="386" type="line"/>
      <point x="831" y="386" type="line"/>
      <point x="1170" y="610"/>
      <point x="1341" y="855"/>
      <point x="1341" y="1120" type="curve" smooth="yes"/>
      <point x="1341" y="1446"/>
      <point x="1083" y="1682"/>
      <point x="708" y="1682" type="curve" smooth="yes"/>
      <point x="408" y="1682"/>
      <point x="202" y="1526"/>
      <point x="87" y="1219" type="curve"/>
      <point x="442" y="1066" type="line"/>
      <point x="496" y="1219"/>
      <point x="579" y="1294"/>
      <point x="680" y="1294" type="curve" smooth="yes"/>
      <point x="790" y="1294"/>
      <point x="867" y="1206"/>
      <point x="867" y="1105" type="curve" smooth="yes"/>
      <point x="867" y="923"/>
      <point x="620" y="658"/>
      <point x="51" y="230" type="curve"/>
      <point x="51" y="0" type="line"/>
    </contour>
  </outline>
</glyph>
<glyph name="three" format="2">
  <advance width="1500"/>
  <unicode hex="0033"/>
  <outline>
    <contour>
      <point x="707" y="-32" type="curve" smooth="yes"/>
      <point x="1076" y="-32"/>
      <point x="1347" y="206"/>
      <point x="1347" y="530" type="curve" smooth="yes"/>
      <point x="1347" y="685"/>
      <point x="1286" y="805"/>
      <point x="1159" y="898" type="curve"/>
      <point x="1236" y="978"/>
      <point x="1273" y="1070"/>
      <point x="1273" y="1186" type="curve" smooth="yes"/>
      <point x="1273" y="1474"/>
      <point x="1037" y="1680"/>
      <point x="707" y="1680" type="curve" smooth="yes"/>
      <point x="443" y="1680"/>
      <point x="248" y="1547"/>
      <point x="169" y="1313" type="curve"/>
      <point x="483" y="1163" type="line"/>
      <point x="512" y="1264"/>
      <point x="598" y="1328"/>
      <point x="699" y="1328" type="curve" smooth="yes"/>
      <point x="801" y="1328"/>
      <point x="875" y="1262"/>
      <point x="875" y="1178" type="curve" smooth="yes"/>
      <point x="875" y="1092"/>
      <point x="801" y="1010"/>
      <point x="717" y="1010" type="curve" smooth="yes"/>
      <point x="627" y="1010" type="line"/>
      <point x="627" y="726" type="line"/>
      <point x="649" y="735"/>
      <point x="678" y="740"/>
      <point x="706" y="740" type="curve" smooth="yes"/>
      <point x="820" y="740"/>
      <point x="909" y="654"/>
      <point x="909" y="531" type="curve" smooth="yes"/>
      <point x="909" y="416"/>
      <point x="830" y="344"/>
      <point x="708" y="344" type="curve" smooth="yes"/>
      <point x="592" y="344"/>
      <point x="516" y="408"/>
      <point x="483" y="504" type="curve"/>
      <point x="109" y="383" type="line"/>
      <point x="176" y="127"/>
      <point x="409" y="-32"/>
    </contour>
  </outline>
</glyph>
<glyph name="four" format="2">
  <advance width="1500"/>
  <unicode hex="0034"/>
  <outline>
    <contour>
      <point x="1226" y="0" type="line"/>
      <point x="1226" y="292" type="line"/>
      <point x="1418" y="292" type="line"/>
      <point x="1418" y="678" type="line"/>
      <point x="1226" y="678" type="line"/>
      <point x="1226" y="1650" type="line"/>
      <point x="790" y="1650" type="line"/>
      <point x="-6" y="416" type="line"/>
      <point x="-6" y="292" type="line"/>
      <point x="814" y="292" type="line"/>
      <point x="814" y="0" type="line"/>
    </contour>
    <contour>
      <point x="814" y="1064" type="line"/>
      <point x="814" y="678" type="line"/>
      <point x="598" y="678" type="line"/>
    </contour>
  </outline>
</glyph>
<glyph name="five" format="2">
  <advance width="1500"/>
  <unicode hex="0035"/>
  <outline>
    <contour>
      <point x="377" y="1650" type="line"/>
      <point x="233" y="734" type="line"/>
      <point x="309" y="755"/>
      <point x="396" y="768"/>
      <point x="489" y="768" type="curve" smooth="yes"/>
      <point x="740" y="768"/>
      <point x="883" y="680"/>
      <point x="883" y="526" type="curve" smooth="yes"/>
      <point x="883" y="421"/>
      <point x="815" y="336"/>
      <point x="687" y="336" type="curve" smooth="yes"/>
      <point x="574" y="336"/>
      <point x="484" y="403"/>
      <point x="463" y="496" type="curve"/>
      <point x="115" y="328" type="line"/>
      <point x="201" y="92"/>
      <point x="440" y="-32"/>
      <point x="700" y="-32" type="curve" smooth="yes"/>
      <point x="1061" y="-32"/>
      <point x="1325" y="204"/>
      <point x="1325" y="557" type="curve" smooth="yes"/>
      <point x="1325" y="875"/>
      <point x="1108" y="1084"/>
      <point x="795" y="1084" type="curve" smooth="yes"/>
      <point x="748" y="1084"/>
      <point x="700" y="1079"/>
      <point x="652" y="1068" type="curve"/>
      <point x="722" y="1046" type="line"/>
      <point x="755" y="1264" type="line"/>
      <point x="1219" y="1264" type="line"/>
      <point x="1219" y="1650" type="line"/>
    </contour>
  </outline>
</glyph>
<glyph name="six" format="2">
  <advance width="1500"/>
  <unicode hex="0036"/>
  <outline>
    <contour>
      <point x="782" y="-32" type="curve" smooth="yes"/>
      <point x="1156" y="-32"/>
      <point x="1403" y="197"/>
      <point x="1403" y="545" type="curve" smooth="yes"/>
      <point x="1403" y="876"/>
      <point x="1192" y="1110"/>
      <point x="892" y="1110" type="curve" smooth="yes"/>
      <point x="849" y="1110"/>
      <point x="814" y="1105"/>
      <point x="793" y="1096" type="curve"/>
      <point x="1261" y="1650" type="line"/>
      <point x="729" y="1650" type="line"/>
      <point x="397" y="1244" type="line" smooth="yes"/>
      <point x="202" y="1006"/>
      <point x="103" y="779"/>
      <point x="103" y="571" type="curve" smooth="yes"/>
      <point x="103" y="219"/>
      <point x="386" y="-32"/>
    </contour>
    <contour>
      <point x="759" y="332" type="curve" smooth="yes"/>
      <point x="644" y="332"/>
      <point x="561" y="415"/>
      <point x="561" y="531" type="curve" smooth="yes"/>
      <point x="561" y="648"/>
      <point x="645" y="734"/>
      <point x="759" y="734" type="curve" smooth="yes"/>
      <point x="874" y="734"/>
      <point x="961" y="647"/>
      <point x="961" y="531" type="curve" smooth="yes"/>
      <point x="961" y="416"/>
      <point x="875" y="332"/>
    </contour>
  </outline>
</glyph>
<glyph name="seven" format="2">
  <advance width="1500"/>
  <unicode hex="0037"/>
  <outline>
    <contour>
      <point x="600" y="0" type="line"/>
      <point x="1472" y="1524" type="line"/>
      <point x="1472" y="1650" type="line"/>
      <point x="140" y="1650" type="line"/>
      <point x="140" y="1264" type="line"/>
      <point x="820" y="1264" type="line"/>
      <point x="80" y="0" type="line"/>
    </contour>
  </outline>
</glyph>
<glyph name="eight" format="2">
  <advance width="1500"/>
  <unicode hex="0038"/>
  <outline>
    <contour>
      <point x="749" y="-32" type="curve" smooth="yes"/>
      <point x="1104" y="-32"/>
      <point x="1393" y="173"/>
      <point x="1393" y="466" type="curve" smooth="yes"/>
      <point x="1393" y="651"/>
      <point x="1280" y="816"/>
      <point x="1111" y="894" type="curve"/>
      <point x="1238" y="968"/>
      <point x="1321" y="1102" name=".hr01"/>
      <point x="1321" y="1248" type="curve" smooth="yes"/>
      <point x="1321" y="1537"/>
      <point x="1005" y="1680"/>
      <point x="748" y="1680" type="curve" smooth="yes"/>
      <point x="439" y="1680"/>
      <point x="177" y="1499"/>
      <point x="177" y="1246" type="curve" smooth="yes"/>
      <point x="177" y="1108"/>
      <point x="254" y="972"/>
      <point x="387" y="894" type="curve"/>
      <point x="222" y="818"/>
      <point x="105" y="654" name=".hr02"/>
      <point x="105" y="467" type="curve" smooth="yes"/>
      <point x="105" y="172"/>
      <point x="394" y="-32"/>
    </contour>
    <contour>
      <point x="749" y="348" type="curve" smooth="yes"/>
      <point x="650" y="348"/>
      <point x="587" y="419"/>
      <point x="587" y="517" type="curve" smooth="yes"/>
      <point x="587" y="619"/>
      <point x="656" y="688"/>
      <point x="749" y="688" type="curve" smooth="yes"/>
      <point x="844" y="688"/>
      <point x="911" y="617"/>
      <point x="911" y="517" type="curve" smooth="yes"/>
      <point x="911" y="420"/>
      <point x="849" y="348"/>
    </contour>
    <contour>
      <point x="749" y="1052" type="curve" smooth="yes"/>
      <point x="664" y="1052"/>
      <point x="601" y="1115"/>
      <point x="601" y="1200" type="curve" smooth="yes"/>
      <point x="601" y="1284" name=".hr03"/>
      <point x="665" y="1348"/>
      <point x="749" y="1348" type="curve" smooth="yes"/>
      <point x="833" y="1348"/>
      <point x="897" y="1284"/>
      <point x="897" y="1200" type="curve" smooth="yes"/>
      <point x="897" y="1115"/>
      <point x="834" y="1052"/>
    </contour>
  </outline>
</glyph>
<glyph name="nine" format="2">
  <advance width="1500"/>
  <unicode hex="0039"/>
  <outline>
    <contour>
      <point x="766" y="0" type="line"/>
      <point x="1098" y="406" type="line" smooth="yes"/>
      <point x="1293" y="644"/>
      <point x="1392" y="869"/>
      <point x="1392" y="1077" type="curve" smooth="yes"/>
      <point x="1392" y="1408"/>
      <point x="1128" y="1680"/>
      <point x="714" y="1680" type="curve" smooth="yes"/>
      <point x="311" y="1680"/>
      <point x="92" y="1422"/>
      <point x="92" y="1109" type="curve" smooth="yes"/>
      <point x="92" y="767"/>
      <point x="355" y="538"/>
      <point x="608" y="538" type="curve" smooth="yes"/>
      <point x="645" y="538"/>
      <point x="681" y="543"/>
      <point x="702" y="552" type="curve"/>
      <point x="234" y="0" type="line"/>
    </contour>
    <contour>
      <point x="736" y="914" type="curve" smooth="yes"/>
      <point x="621" y="914"/>
      <point x="534" y="1001"/>
      <point x="534" y="1117" type="curve" smooth="yes"/>
      <point x="534" y="1232"/>
      <point x="620" y="1316"/>
      <point x="736" y="1316" type="curve" smooth="yes"/>
      <point x="851" y="1316"/>
      <point x="934" y="1233"/>
      <point x="934" y="1117" type="curve" smooth="yes"/>
      <point x="934" y="1000"/>
      <point x="850" y="914"/>
    </contour>
  </outline>
</glyph>
<glyph name="less" format="2">
  <advance width="1366"/>
  <unicode hex="003C"/>
  <outline>
    <contour>
      <point x="1179" y="600" type="line"/>
      <point x="529" y="832" type="line"/>
      <point x="1179" y="1064" type="line"/>
      <point x="1179" y="1394" type="line"/>
      <point x="87" y="970" type="line"/>
      <point x="87" y="694" type="line"/>
      <point x="1179" y="270" type="line"/>
    </contour>
  </outline>
</glyph>
<glyph name="equal" format="2">
  <advance width="1498"/>
  <unicode hex="003D"/>
  <outline>
    <contour>
      <point x="1263" y="904" type="line"/>
      <point x="1263" y="1264" type="line"/>
      <point x="235" y="1264" type="line"/>
      <point x="235" y="904" type="line"/>
    </contour>
    <contour>
      <point x="1263" y="398" type="line"/>
      <point x="1263" y="758" type="line"/>
      <point x="235" y="758" type="line"/>
      <point x="235" y="398" type="line"/>
    </contour>
  </outline>
</glyph>
<glyph name="greater" format="2">
  <advance width="1366"/>
  <unicode hex="003E"/>
  <outline>
    <contour>
      <point x="1279" y="694" type="line"/>
      <point x="1279" y="970" type="line"/>
      <point x="187" y="1394" type="line"/>
      <point x="187" y="1064" type="line"/>
      <point x="837" y="832" type="line"/>
      <point x="187" y="600" type="line"/>
      <point x="187" y="270" type="line"/>
    </contour>
  </outline>
</glyph>
<glyph name="question" format="2">
  <advance width="1138"/>
  <unicode hex="003F"/>
  <outline>
    <component base="period" xOffset="118"/>
    <contour>
      <point x="736" y="574" type="line"/>
      <point x="736" y="702" type="line"/>
      <point x="928" y="758"/>
      <point x="1106" y="952" name=".hr01"/>
      <point x="1106" y="1187" type="curve" smooth="yes"/>
      <point x="1106" y="1446"/>
      <point x="889" y="1680"/>
      <point x="558" y="1680" type="curve" smooth="yes"/>
      <point x="325" y="1680"/>
      <point x="121" y="1564"/>
      <point x="24" y="1380" type="curve"/>
      <point x="281" y="1160" type="line"/>
      <point x="341" y="1258"/>
      <point x="428" y="1314"/>
      <point x="536" y="1314" type="curve" smooth="yes"/>
      <point x="642" y="1314"/>
      <point x="716" y="1261"/>
      <point x="716" y="1180" type="curve" smooth="yes"/>
      <point x="716" y="1100"/>
      <point x="643" y="1048"/>
      <point x="497" y="1048" type="curve" smooth="yes"/>
      <point x="440" y="1048"/>
      <point x="381" y="1056"/>
      <point x="350" y="1066" type="curve" name=".hr02"/>
      <point x="350" y="574" type="line"/>
    </contour>
  </outline>
</glyph>
<glyph name="at" format="2">
  <advance width="1929"/>
  <unicode hex="0040"/>
  <outline>
    <contour>
      <point x="1007" y="-551" type="curve" smooth="yes"/>
      <point x="1320" y="-551"/>
      <point x="1514" y="-412"/>
      <point x="1595" y="-303" type="curve"/>
      <point x="1327" y="-123" type="line"/>
      <point x="1278" y="-165"/>
      <point x="1167" y="-221"/>
      <point x="1009" y="-221" type="curve" smooth="yes"/>
      <point x="691" y="-221"/>
      <point x="429" y="7"/>
      <point x="429" y="310" type="curve" smooth="yes"/>
      <point x="429" y="576"/>
      <point x="630" y="867"/>
      <point x="1005" y="867" type="curve" smooth="yes"/>
      <point x="1271" y="867"/>
      <point x="1597" y="720"/>
      <point x="1597" y="369" type="curve" smooth="yes"/>
      <point x="1597" y="229"/>
      <point x="1544" y="208"/>
      <point x="1487" y="208" type="curve" smooth="yes"/>
      <point x="1382" y="208"/>
      <point x="1382" y="279"/>
      <point x="1382" y="308" type="curve" smooth="yes"/>
      <point x="1382" y="626" type="line"/>
      <point x="1129" y="626" type="line"/>
      <point x="1129" y="593" type="line"/>
      <point x="1079" y="625"/>
      <point x="1010" y="645"/>
      <point x="939" y="645" type="curve" smooth="yes"/>
      <point x="740" y="645"/>
      <point x="608" y="488"/>
      <point x="608" y="297" type="curve" smooth="yes"/>
      <point x="608" y="101"/>
      <point x="746" y="-51"/>
      <point x="932" y="-51" type="curve" smooth="yes"/>
      <point x="1032" y="-51"/>
      <point x="1099" y="-7"/>
      <point x="1147" y="43" type="curve"/>
      <point x="1225" y="-10"/>
      <point x="1319" y="-33"/>
      <point x="1433" y="-33" type="curve" smooth="yes"/>
      <point x="1626" y="-33"/>
      <point x="1861" y="33"/>
      <point x="1861" y="385" type="curve" smooth="yes"/>
      <point x="1861" y="825"/>
      <point x="1493" y="1161"/>
      <point x="1002" y="1161" type="curve" smooth="yes"/>
      <point x="505" y="1161"/>
      <point x="91" y="817"/>
      <point x="91" y="309" type="curve" smooth="yes"/>
      <point x="91" y="-203"/>
      <point x="513" y="-551"/>
    </contour>
    <contour>
      <point x="1012" y="195" type="curve" smooth="yes"/>
      <point x="947" y="195"/>
      <point x="903" y="235"/>
      <point x="903" y="297" type="curve" smooth="yes"/>
      <point x="903" y="364"/>
      <point x="955" y="408"/>
      <point x="1014" y="408" type="curve" smooth="yes"/>
      <point x="1073" y="408"/>
      <point x="1127" y="364"/>
      <point x="1127" y="299" type="curve" smooth="yes"/>
      <point x="1127" y="238"/>
      <point x="1079" y="195"/>
    </contour>
  </outline>
</glyph>
<glyph name="A" format="2">
  <advance width="1670"/>
  <unicode hex="0041"/>
  <anchor x="835" y="0" name="bottom"/>
  <anchor x="1711" y="0" name="ogonek"/>
  <anchor x="835" y="1650" name="top"/>
  <outline>
    <contour>
      <point x="433" y="0" type="line"/>
      <point x="532" y="274" type="line"/>
      <point x="1138" y="274" type="line"/>
      <point x="1237" y="0" type="line"/>
      <point x="1711" y="0" type="line"/>
      <point x="1039" y="1650" type="line"/>
      <point x="631" y="1650" type="line"/>
      <point x="-41" y="0" type="line"/>
    </contour>
    <contour>
      <point x="835" y="1052" type="line"/>
      <point x="988" y="660" type="line"/>
      <point x="682" y="660" type="line"/>
    </contour>
  </outline>
</glyph>
<glyph name="B" format="2">
  <advance width="1342"/>
  <unicode hex="0042"/>
  <anchor x="671" y="0" name="bottom"/>
  <anchor x="671" y="1650" name="top"/>
  <outline>
    <contour>
      <point x="764" y="0" type="line" smooth="yes"/>
      <point x="1096" y="0"/>
      <point x="1310" y="180"/>
      <point x="1310" y="478" type="curve" smooth="yes"/>
      <point x="1310" y="701"/>
      <point x="1191" y="841"/>
      <point x="968" y="880" type="curve"/>
      <point x="1098" y="953"/>
      <point x="1164" y="1073"/>
      <point x="1164" y="1236" type="curve" smooth="yes"/>
      <point x="1164" y="1516"/>
      <point x="971" y="1650"/>
      <point x="656" y="1650" type="curve" smooth="yes"/>
      <point x="98" y="1650" type="line"/>
      <point x="98" y="0" type="line"/>
    </contour>
    <contour>
      <point x="538" y="1312" type="line"/>
      <point x="548" y="1312" type="line" smooth="yes"/>
      <point x="679" y="1312"/>
      <point x="738" y="1269"/>
      <point x="738" y="1176" type="curve" smooth="yes"/>
      <point x="738" y="1082"/>
      <point x="672" y="1032"/>
      <point x="548" y="1032" type="curve" smooth="yes"/>
      <point x="538" y="1032" type="line"/>
    </contour>
    <contour>
      <point x="538" y="654" type="line"/>
      <point x="606" y="654" type="line" smooth="yes"/>
      <point x="764" y="654"/>
      <point x="846" y="598"/>
      <point x="846" y="492" type="curve" smooth="yes"/>
      <point x="846" y="386"/>
      <point x="771" y="338"/>
      <point x="606" y="338" type="curve" smooth="yes"/>
      <point x="538" y="338" type="line"/>
    </contour>
  </outline>
</glyph>
<glyph name="C" format="2">
  <advance width="1476"/>
  <unicode hex="0043"/>
  <anchor x="831" y="0" name="bottom"/>
  <anchor x="831" y="1650" name="top"/>
  <outline>
    <contour>
      <point x="56" y="824" type="curve" smooth="yes"/>
      <point x="56" y="351"/>
      <point x="435" y="-32"/>
      <point x="951" y="-32" type="curve" smooth="yes"/>
      <point x="1151" y="-32"/>
      <point x="1347" y="30"/>
      <point x="1472" y="114" type="curve"/>
      <point x="1262" y="474" type="line"/>
      <point x="1190" y="428"/>
      <point x="1084" y="400"/>
      <point x="980" y="400" type="curve" smooth="yes"/>
      <point x="694" y="400"/>
      <point x="532" y="581"/>
      <point x="532" y="825" type="curve" smooth="yes"/>
      <point x="532" y="1067"/>
      <point x="694" y="1248"/>
      <point x="980" y="1248" type="curve" smooth="yes"/>
      <point x="1084" y="1248"/>
      <point x="1190" y="1220"/>
      <point x="1262" y="1174" type="curve"/>
      <point x="1472" y="1534" type="line"/>
      <point x="1347" y="1618"/>
      <point x="1151" y="1680"/>
      <point x="951" y="1680" type="curve" smooth="yes"/>
      <point x="435" y="1680"/>
      <point x="56" y="1297"/>
    </contour>
  </outline>
</glyph>
<glyph name="D" format="2">
  <advance width="1594"/>
  <unicode hex="0044"/>
  <anchor x="797" y="0" name="bottom"/>
  <anchor x="797" y="825" name="center"/>
  <anchor x="797" y="1650" name="top"/>
  <outline>
    <contour>
      <point x="704" y="0" type="line" smooth="yes"/>
      <point x="1174" y="0"/>
      <point x="1536" y="360"/>
      <point x="1536" y="825" type="curve" smooth="yes"/>
      <point x="1536" y="1290"/>
      <point x="1172" y="1650"/>
      <point x="704" y="1650" type="curve" smooth="yes"/>
      <point x="196" y="1650" type="line"/>
      <point x="196" y="0" type="line"/>
    </contour>
    <contour>
      <point x="636" y="1256" type="line"/>
      <point x="652" y="1256" type="line" smooth="yes"/>
      <point x="891" y="1256"/>
      <point x="1060" y="1078"/>
      <point x="1060" y="825" type="curve" smooth="yes"/>
      <point x="1060" y="572"/>
      <point x="891" y="394"/>
      <point x="652" y="394" type="curve" smooth="yes"/>
      <point x="636" y="394" type="line"/>
    </contour>
  </outline>
</glyph>
<glyph name="E" format="2">
  <advance width="1340"/>
  <unicode hex="0045"/>
  <anchor x="670" y="0" name="bottom"/>
  <anchor x="1172" y="0" name="ogonek"/>
  <anchor x="670" y="1650" name="top"/>
  <outline>
    <contour>
      <point x="1172" y="0" type="line"/>
      <point x="1172" y="386" type="line"/>
      <point x="636" y="386" type="line"/>
      <point x="636" y="634" type="line"/>
      <point x="1148" y="634" type="line"/>
      <point x="1148" y="1020" type="line"/>
      <point x="636" y="1020" type="line"/>
      <point x="636" y="1264" type="line"/>
      <point x="1172" y="1264" type="line"/>
      <point x="1172" y="1650" type="line"/>
      <point x="196" y="1650" type="line"/>
      <point x="196" y="0" type="line"/>
    </contour>
  </outline>
</glyph>
<glyph name="F" format="2">
  <advance width="1260"/>
  <unicode hex="0046"/>
  <anchor x="630" y="0" name="bottom"/>
  <anchor x="630" y="1650" name="top"/>
  <outline>
    <contour>
      <point x="196" y="1650" type="line"/>
      <point x="196" y="0" type="line"/>
      <point x="636" y="0" type="line"/>
      <point x="636" y="634" type="line"/>
      <point x="1140" y="634" type="line"/>
      <point x="1140" y="1020" type="line"/>
      <point x="636" y="1020" type="line"/>
      <point x="636" y="1264" type="line"/>
      <point x="1184" y="1264" type="line"/>
      <point x="1184" y="1650" type="line"/>
    </contour>
  </outline>
</glyph>
<glyph name="G" format="2">
  <advance width="1697"/>
  <unicode hex="0047"/>
  <anchor x="842" y="0" name="bottom"/>
  <anchor x="842" y="1650" name="top"/>
  <outline>
    <contour>
      <point x="888" y="-32" type="curve" smooth="yes"/>
      <point x="1279" y="-32"/>
      <point x="1631" y="225"/>
      <point x="1631" y="699" type="curve" smooth="yes"/>
      <point x="1631" y="952" type="line"/>
      <point x="869" y="952" type="line"/>
      <point x="869" y="614" type="line"/>
      <point x="1183" y="614" type="line"/>
      <point x="1183" y="612" type="line" smooth="yes"/>
      <point x="1183" y="481"/>
      <point x="1057" y="374"/>
      <point x="902" y="374" type="curve" smooth="yes"/>
      <point x="682" y="374"/>
      <point x="540" y="581"/>
      <point x="540" y="825" type="curve" smooth="yes"/>
      <point x="540" y="1067"/>
      <point x="672" y="1282"/>
      <point x="932" y="1282" type="curve" smooth="yes"/>
      <point x="1054" y="1282"/>
      <point x="1173" y="1234"/>
      <point x="1239" y="1158" type="curve"/>
      <point x="1499" y="1421" type="line"/>
      <point x="1327" y="1582"/>
      <point x="1143" y="1680"/>
      <point x="898" y="1680" type="curve" smooth="yes"/>
      <point x="413" y="1680"/>
      <point x="64" y="1297"/>
      <point x="64" y="824" type="curve" smooth="yes"/>
      <point x="64" y="351"/>
      <point x="409" y="-32"/>
    </contour>
  </outline>
</glyph>
<glyph name="H" format="2">
  <advance width="1696"/>
  <unicode hex="0048"/>
  <anchor x="848" y="0" name="bottom"/>
  <anchor x="848" y="825" name="center"/>
  <anchor x="848" y="1650" name="top"/>
  <outline>
    <contour>
      <point x="636" y="0" type="line"/>
      <point x="636" y="634" type="line"/>
      <point x="1060" y="634" type="line"/>
      <point x="1060" y="0" type="line"/>
      <point x="1500" y="0" type="line"/>
      <point x="1500" y="1650" type="line"/>
      <point x="1060" y="1650" type="line"/>
      <point x="1060" y="1020" type="line"/>
      <point x="636" y="1020" type="line"/>
      <point x="636" y="1650" type="line"/>
      <point x="196" y="1650" type="line"/>
      <point x="196" y="0" type="line"/>
    </contour>
  </outline>
</glyph>
<glyph name="I" format="2">
  <advance width="832"/>
  <unicode hex="0049"/>
  <anchor x="416" y="0" name="bottom"/>
  <anchor x="636" y="0" name="ogonek"/>
  <anchor x="416" y="1650" name="top"/>
  <outline>
    <contour>
      <point x="636" y="0" type="line"/>
      <point x="636" y="1650" type="line"/>
      <point x="196" y="1650" type="line"/>
      <point x="196" y="0" type="line"/>
    </contour>
  </outline>
</glyph>
<glyph name="J" format="2">
  <advance width="1085"/>
  <unicode hex="004A"/>
  <anchor x="422" y="-32" name="bottom"/>
  <anchor x="699" y="1650" name="top"/>
  <outline>
    <contour>
      <point x="415" y="-32" type="curve" smooth="yes"/>
      <point x="722" y="-32"/>
      <point x="908" y="148"/>
      <point x="908" y="464" type="curve" smooth="yes"/>
      <point x="908" y="1650" type="line"/>
      <point x="468" y="1650" type="line"/>
      <point x="468" y="574" type="line" smooth="yes"/>
      <point x="468" y="462"/>
      <point x="417" y="390"/>
      <point x="338" y="390" type="curve" smooth="yes"/>
      <point x="293" y="390"/>
      <point x="230" y="413"/>
      <point x="170" y="472" type="curve"/>
      <point x="-70" y="208" type="line"/>
      <point x="71" y="41"/>
      <point x="218" y="-32"/>
    </contour>
  </outline>
</glyph>
<glyph name="K" format="2">
  <advance width="1740"/>
  <unicode hex="004B"/>
  <anchor x="865" y="0" name="bottom"/>
  <anchor x="865" y="1650" name="top"/>
  <outline>
    <contour>
      <point x="636" y="0" type="line"/>
      <point x="636" y="662" type="line"/>
      <point x="1188" y="0" type="line"/>
      <point x="1794" y="0" type="line"/>
      <point x="1044" y="872" type="line"/>
      <point x="1684" y="1650" type="line"/>
      <point x="1150" y="1650" type="line"/>
      <point x="636" y="1008" type="line"/>
      <point x="636" y="1650" type="line"/>
      <point x="196" y="1650" type="line"/>
      <point x="196" y="0" type="line"/>
    </contour>
  </outline>
</glyph>
<glyph name="L" format="2">
  <advance width="1157"/>
  <unicode hex="004C"/>
  <anchor x="722" y="0" name="bottom"/>
  <anchor x="579" y="825" name="center"/>
  <anchor x="591" y="1650" name="top"/>
  <anchor x="1137" y="1650" name="topright"/>
  <outline>
    <contour>
      <point x="1168" y="0" type="line"/>
      <point x="1168" y="386" type="line"/>
      <point x="636" y="386" type="line"/>
      <point x="636" y="1650" type="line"/>
      <point x="196" y="1650" type="line"/>
      <point x="196" y="0" type="line"/>
    </contour>
  </outline>
</glyph>
<glyph name="M" format="2">
  <advance width="2136"/>
  <unicode hex="004D"/>
  <anchor x="1068" y="0" name="bottom"/>
  <anchor x="1068" y="1650" name="top"/>
  <outline>
    <contour>
      <point x="636" y="0" type="line"/>
      <point x="636" y="730" type="line"/>
      <point x="940" y="0" type="line"/>
      <point x="1196" y="0" type="line"/>
      <point x="1500" y="730" type="line"/>
      <point x="1500" y="0" type="line"/>
      <point x="1940" y="0" type="line"/>
      <point x="1940" y="1650" type="line"/>
      <point x="1436" y="1650" type="line"/>
      <point x="1068" y="794" type="line"/>
      <point x="700" y="1650" type="line"/>
      <point x="196" y="1650" type="line"/>
      <point x="196" y="0" type="line"/>
    </contour>
  </outline>
</glyph>
<glyph name="N" format="2">
  <advance width="1864"/>
  <unicode hex="004E"/>
  <anchor x="932" y="0" name="bottom"/>
  <anchor x="932" y="1650" name="top"/>
  <outline>
    <contour>
      <point x="636" y="0" type="line"/>
      <point x="636" y="920" type="line"/>
      <point x="1228" y="0" type="line"/>
      <point x="1668" y="0" type="line"/>
      <point x="1668" y="1650" type="line"/>
      <point x="1228" y="1650" type="line"/>
      <point x="1228" y="730" type="line"/>
      <point x="636" y="1650" type="line"/>
      <point x="196" y="1650" type="line"/>
      <point x="196" y="0" type="line"/>
    </contour>
  </outline>
</glyph>
<glyph name="O" format="2">
  <advance width="1788"/>
  <unicode hex="004F"/>
  <anchor x="894" y="0" name="bottom"/>
  <anchor x="894" y="824" name="center"/>
  <anchor x="1006" y="0" name="ogonek"/>
  <anchor x="894" y="1650" name="top"/>
  <anchor x="20" y="1650" name="topleft"/>
  <anchor x="1768" y="1650" name="topright"/>
  <outline>
    <contour>
      <point x="894" y="-32" type="curve" smooth="yes"/>
      <point x="1355" y="-32"/>
      <point x="1726" y="349"/>
      <point x="1726" y="824" type="curve" smooth="yes"/>
      <point x="1726" y="1299"/>
      <point x="1355" y="1680"/>
      <point x="894" y="1680" type="curve" smooth="yes"/>
      <point x="433" y="1680"/>
      <point x="62" y="1299"/>
      <point x="62" y="824" type="curve" smooth="yes"/>
      <point x="62" y="349"/>
      <point x="433" y="-32"/>
    </contour>
    <contour>
      <point x="894" y="392" type="curve" smooth="yes"/>
      <point x="677" y="392"/>
      <point x="536" y="563"/>
      <point x="536" y="824" type="curve" smooth="yes"/>
      <point x="536" y="1085"/>
      <point x="677" y="1256"/>
      <point x="894" y="1256" type="curve" smooth="yes"/>
      <point x="1111" y="1256"/>
      <point x="1252" y="1085"/>
      <point x="1252" y="824" type="curve" smooth="yes"/>
      <point x="1252" y="563"/>
      <point x="1111" y="392"/>
    </contour>
  </outline>
</glyph>
<glyph name="P" format="2">
  <advance width="1448"/>
  <unicode hex="0050"/>
  <outline>
    <contour>
      <point x="636" y="0" type="line"/>
      <point x="636" y="588" type="line"/>
      <point x="848" y="588" type="line" smooth="yes"/>
      <point x="1168" y="588"/>
      <point x="1422" y="764"/>
      <point x="1422" y="1119" type="curve" smooth="yes"/>
      <point x="1422" y="1474"/>
      <point x="1168" y="1650"/>
      <point x="848" y="1650" type="curve" smooth="yes"/>
      <point x="196" y="1650" type="line"/>
      <point x="196" y="0" type="line"/>
    </contour>
    <contour>
      <point x="636" y="1300" type="line"/>
      <point x="704" y="1300" type="line" smooth="yes"/>
      <point x="822" y="1300"/>
      <point x="958" y="1275"/>
      <point x="958" y="1119" type="curve" smooth="yes"/>
      <point x="958" y="965"/>
      <point x="822" y="938"/>
      <point x="704" y="938" type="curve" smooth="yes"/>
      <point x="636" y="938" type="line"/>
    </contour>
  </outline>
</glyph>
<glyph name="Q" format="2">
  <advance width="1871"/>
  <unicode hex="0051"/>
  <outline>
    <component base="O"/>
    <contour>
      <point x="768" y="614" type="line"/>
      <point x="957" y="339"/>
      <point x="1304" y="72"/>
      <point x="1636" y="-54" type="curve"/>
      <point x="1830" y="338" type="line"/>
      <point x="1458" y="434"/>
      <point x="1189" y="585"/>
      <point x="993" y="807" type="curve"/>
    </contour>
  </outline>
</glyph>
<glyph name="R" format="2">
  <advance width="1584"/>
  <unicode hex="0052"/>
  <anchor x="792" y="0" name="bottom"/>
  <anchor x="792" y="1650" name="top"/>
  <outline>
    <contour>
      <point x="636" y="1300" type="line"/>
      <point x="704" y="1300" type="line" smooth="yes"/>
      <point x="822" y="1300"/>
      <point x="958" y="1282"/>
      <point x="958" y="1129" type="curve" smooth="yes"/>
      <point x="958" y="978"/>
      <point x="822" y="957"/>
      <point x="704" y="957" type="curve" smooth="yes"/>
      <point x="636" y="957" type="line"/>
    </contour>
    <contour>
      <point x="636" y="0" type="line"/>
      <point x="636" y="572" type="line"/>
      <point x="637" y="572" type="line"/>
      <point x="1080" y="0" type="line"/>
      <point x="1638" y="0" type="line"/>
      <point x="1088" y="645" type="line"/>
      <point x="1286" y="713"/>
      <point x="1422" y="874"/>
      <point x="1422" y="1129" type="curve" smooth="yes"/>
      <point x="1422" y="1477"/>
      <point x="1168" y="1650"/>
      <point x="848" y="1650" type="curve" smooth="yes"/>
      <point x="196" y="1650" type="line"/>
      <point x="196" y="0" type="line"/>
    </contour>
  </outline>
</glyph>
<glyph name="S" format="2">
  <advance width="1361"/>
  <unicode hex="0053"/>
  <anchor x="652" y="0" name="bottom"/>
  <anchor x="732" y="1680" name="top"/>
  <anchor x="684" y="0" name="cedilla"/>
  <outline>
    <contour>
      <point x="650" y="-32" type="curve" smooth="yes"/>
      <point x="1037" y="-32"/>
      <point x="1288" y="165"/>
      <point x="1288" y="498" type="curve" smooth="yes"/>
      <point x="1288" y="775"/>
      <point x="1071" y="897"/>
      <point x="777" y="1016" type="curve" smooth="yes"/>
      <point x="582" y="1095"/>
      <point x="536" y="1128"/>
      <point x="536" y="1179" type="curve" smooth="yes"/>
      <point x="536" y="1237"/>
      <point x="595" y="1280"/>
      <point x="698" y="1280" type="curve" smooth="yes"/>
      <point x="794" y="1280"/>
      <point x="921" y="1243"/>
      <point x="1026" y="1184" type="curve"/>
      <point x="1200" y="1538" type="line"/>
      <point x="1082" y="1624"/>
      <point x="877" y="1680"/>
      <point x="702" y="1680" type="curve" smooth="yes"/>
      <point x="332" y="1680"/>
      <point x="104" y="1427"/>
      <point x="104" y="1167" type="curve" smooth="yes"/>
      <point x="104" y="957"/>
      <point x="228" y="823"/>
      <point x="548" y="685" type="curve" smooth="yes"/>
      <point x="750" y="598"/>
      <point x="804" y="557"/>
      <point x="804" y="489" type="curve" smooth="yes"/>
      <point x="804" y="427"/>
      <point x="749" y="376"/>
      <point x="633" y="376" type="curve" smooth="yes"/>
      <point x="515" y="376"/>
      <point x="369" y="429"/>
      <point x="218" y="532" type="curve"/>
      <point x="11" y="178" type="line"/>
      <point x="151" y="51"/>
      <point x="398" y="-32"/>
    </contour>
  </outline>
</glyph>
<glyph name="T" format="2">
  <advance width="1138"/>
  <unicode hex="0054"/>
  <anchor x="569" y="0" name="bottom"/>
  <anchor x="569" y="1650" name="top"/>
  <outline>
    <contour>
      <point x="789" y="0" type="line"/>
      <point x="789" y="1264" type="line"/>
      <point x="1149" y="1264" type="line"/>
      <point x="1149" y="1650" type="line"/>
      <point x="-11" y="1650" type="line"/>
      <point x="-11" y="1264" type="line"/>
      <point x="349" y="1264" type="line"/>
      <point x="349" y="0" type="line"/>
    </contour>
  </outline>
</glyph>
<glyph name="U" format="2">
  <advance width="1662"/>
  <unicode hex="0055"/>
  <anchor x="831" y="0" name="bottom"/>
  <anchor x="953" y="0" name="ogonek"/>
  <anchor x="831" y="1650" name="top"/>
  <outline>
    <contour>
      <point x="831" y="-32" type="curve" smooth="yes"/>
      <point x="1269" y="-32"/>
      <point x="1497" y="178"/>
      <point x="1497" y="582" type="curve" smooth="yes"/>
      <point x="1497" y="1650" type="line"/>
      <point x="1057" y="1650" type="line"/>
      <point x="1057" y="714" type="line" smooth="yes"/>
      <point x="1057" y="476"/>
      <point x="1002" y="400"/>
      <point x="831" y="400" type="curve" smooth="yes"/>
      <point x="660" y="400"/>
      <point x="605" y="476"/>
      <point x="605" y="714" type="curve" smooth="yes"/>
      <point x="605" y="1650" type="line"/>
      <point x="165" y="1650" type="line"/>
      <point x="165" y="582" type="line" smooth="yes"/>
      <point x="165" y="178"/>
      <point x="393" y="-32"/>
    </contour>
  </outline>
</glyph>
<glyph name="V" format="2">
  <advance width="1642"/>
  <unicode hex="0056"/>
  <anchor x="821" y="0" name="bottom"/>
  <anchor x="821" y="1650" name="top"/>
  <outline>
    <contour>
      <point x="993" y="0" type="line"/>
      <point x="1685" y="1650" type="line"/>
      <point x="1189" y="1650" type="line"/>
      <point x="821" y="662" type="line"/>
      <point x="453" y="1650" type="line"/>
      <point x="-43" y="1650" type="line"/>
      <point x="649" y="0" type="line"/>
    </contour>
  </outline>
</glyph>
<glyph name="W" format="2">
  <advance width="2300"/>
  <unicode hex="0057"/>
  <anchor x="1150" y="0" name="bottom"/>
  <anchor x="1150" y="1650" name="top"/>
  <outline>
    <contour>
      <point x="944" y="0" type="line"/>
      <point x="1150" y="804" type="line"/>
      <point x="1356" y="0" type="line"/>
      <point x="1844" y="0" type="line"/>
      <point x="2310" y="1650" type="line"/>
      <point x="1820" y="1650" type="line"/>
      <point x="1576" y="610" type="line"/>
      <point x="1314" y="1650" type="line"/>
      <point x="986" y="1650" type="line"/>
      <point x="724" y="610" type="line"/>
      <point x="480" y="1650" type="line"/>
      <point x="-10" y="1650" type="line"/>
      <point x="456" y="0" type="line"/>
    </contour>
  </outline>
</glyph>
<glyph name="X" format="2">
  <advance width="1680"/>
  <unicode hex="0058"/>
  <outline>
    <contour>
      <point x="492" y="0" type="line"/>
      <point x="840" y="506" type="line"/>
      <point x="1188" y="0" type="line"/>
      <point x="1732" y="0" type="line"/>
      <point x="1110" y="888" type="line"/>
      <point x="1628" y="1650" type="line"/>
      <point x="1104" y="1650" type="line"/>
      <point x="840" y="1252" type="line"/>
      <point x="576" y="1650" type="line"/>
      <point x="52" y="1650" type="line"/>
      <point x="570" y="888" type="line"/>
      <point x="-52" y="0" type="line"/>
    </contour>
  </outline>
</glyph>
<glyph name="Y" format="2">
  <advance width="1540"/>
  <unicode hex="0059"/>
  <anchor x="770" y="0" name="bottom"/>
  <anchor x="770" y="1650" name="top"/>
  <outline>
    <contour>
      <point x="990" y="0" type="line"/>
      <point x="990" y="748" type="line"/>
      <point x="1610" y="1650" type="line"/>
      <point x="1080" y="1650" type="line"/>
      <point x="770" y="1192" type="line"/>
      <point x="460" y="1650" type="line"/>
      <point x="-70" y="1650" type="line"/>
      <point x="550" y="748" type="line"/>
      <point x="550" y="0" type="line"/>
    </contour>
  </outline>
</glyph>
<glyph name="Z" format="2">
  <advance width="1516"/>
  <unicode hex="005A"/>
  <anchor x="758" y="0" name="bottom"/>
  <anchor x="758" y="825" name="center"/>
  <anchor x="758" y="1650" name="top"/>
  <outline>
    <contour>
      <point x="1448" y="0" type="line"/>
      <point x="1448" y="384" type="line"/>
      <point x="758" y="384" type="line"/>
      <point x="1500" y="1650" type="line"/>
      <point x="110" y="1650" type="line"/>
      <point x="110" y="1266" type="line"/>
      <point x="734" y="1266" type="line"/>
      <point x="-8" y="0" type="line"/>
    </contour>
  </outline>
</glyph>
<glyph name="bracketleft" format="2">
  <advance width="893"/>
  <unicode hex="005B"/>
  <outline>
    <contour>
      <point x="896" y="-520" type="line"/>
      <point x="896" y="-250" type="line"/>
      <point x="544" y="-250" type="line"/>
      <point x="544" y="1450" type="line"/>
      <point x="896" y="1450" type="line"/>
      <point x="896" y="1720" type="line"/>
      <point x="188" y="1720" type="line"/>
      <point x="188" y="-520" type="line"/>
    </contour>
  </outline>
</glyph>
<glyph name="backslash" format="2">
  <advance width="996"/>
  <unicode hex="005C"/>
  <outline>
    <contour>
      <point x="1089" y="0" type="line"/>
      <point x="265" y="1720" type="line"/>
      <point x="-93" y="1720" type="line"/>
      <point x="731" y="0" type="line"/>
    </contour>
  </outline>
</glyph>
<glyph name="asciicircum" format="2">
  <advance width="1128"/>
  <unicode hex="005E"/>
  <outline>
    <contour>
      <point x="418" y="1210" type="line"/>
      <point x="564" y="1384" type="line"/>
      <point x="710" y="1210" type="line"/>
      <point x="1086" y="1210" type="line"/>
      <point x="672" y="1682" type="line"/>
      <point x="456" y="1682" type="line"/>
      <point x="42" y="1210" type="line"/>
    </contour>
  </outline>
</glyph>
<glyph name="underscore" format="2">
  <advance width="1340"/>
  <unicode hex="005F"/>
  <outline>
    <contour>
      <point x="1183" y="-202" type="line"/>
      <point x="1183" y="-6" type="line"/>
      <point x="157" y="-6" type="line"/>
      <point x="157" y="-202" type="line"/>
    </contour>
  </outline>
</glyph>
<glyph name="a" format="2">
  <advance width="1268"/>
  <unicode hex="0061"/>
  <anchor x="616" y="0" name="bottom"/>
  <anchor x="1122" y="10" name="ogonek"/>
  <anchor x="616" y="1024" name="top"/>
  <outline>
    <contour>
      <point x="445" y="-32" type="curve" smooth="yes"/>
      <point x="538" y="-32"/>
      <point x="632" y="-13"/>
      <point x="728" y="26" type="curve"/>
      <point x="728" y="0" type="line" name=".hr01"/>
      <point x="1150" y="0" type="line"/>
      <point x="1150" y="578" type="line" smooth="yes"/>
      <point x="1150" y="860"/>
      <point x="898" y="1056"/>
      <point x="535" y="1056" type="curve" smooth="yes"/>
      <point x="384" y="1056"/>
      <point x="228" y="1022"/>
      <point x="132" y="968" type="curve"/>
      <point x="258" y="684" type="line"/>
      <point x="317" y="707"/>
      <point x="441" y="728"/>
      <point x="512" y="728" type="curve" smooth="yes"/>
      <point x="635" y="728"/>
      <point x="728" y="664"/>
      <point x="728" y="594" type="curve" smooth="yes"/>
      <point x="728" y="534" type="line"/>
      <point x="645" y="572"/>
      <point x="532" y="596"/>
      <point x="434" y="596" type="curve" smooth="yes"/>
      <point x="206" y="596"/>
      <point x="64" y="463"/>
      <point x="64" y="277" type="curve" smooth="yes"/>
      <point x="64" y="88"/>
      <point x="212" y="-32" name=".hr02"/>
    </contour>
    <contour>
      <point x="608" y="214" type="curve" smooth="yes"/>
      <point x="533" y="214"/>
      <point x="476" y="252"/>
      <point x="476" y="302" type="curve" smooth="yes"/>
      <point x="476" y="348"/>
      <point x="528" y="380"/>
      <point x="603" y="380" type="curve" smooth="yes"/>
      <point x="681" y="380"/>
      <point x="742" y="343"/>
      <point x="742" y="296" type="curve" smooth="yes"/>
      <point x="742" y="251"/>
      <point x="681" y="214"/>
    </contour>
  </outline>
</glyph>
<glyph name="b" format="2">
  <advance width="1465"/>
  <unicode hex="0062"/>
  <anchor x="733" y="0" name="bottom"/>
  <anchor x="733" y="1720" name="top"/>
  <outline>
    <contour>
      <point x="565" y="512" type="curve" smooth="yes"/>
      <point x="565" y="623"/>
      <point x="646" y="704"/>
      <point x="757" y="704" type="curve" smooth="yes"/>
      <point x="868" y="704"/>
      <point x="951" y="623"/>
      <point x="951" y="512" type="curve" smooth="yes"/>
      <point x="951" y="401"/>
      <point x="868" y="320"/>
      <point x="757" y="320" type="curve" smooth="yes"/>
      <point x="646" y="320"/>
      <point x="565" y="401"/>
    </contour>
    <contour>
      <point x="157" y="1720" type="line"/>
      <point x="157" y="0" type="line"/>
      <point x="573" y="0" type="line" name=".hr01"/>
      <point x="573" y="80" type="line"/>
      <point x="664" y="5"/>
      <point x="767" y="-32"/>
      <point x="885" y="-32" type="curve" smooth="yes" name=".hr02"/>
      <point x="1183" y="-32"/>
      <point x="1391" y="209"/>
      <point x="1391" y="514" type="curve" smooth="yes"/>
      <point x="1391" y="819"/>
      <point x="1183" y="1056"/>
      <point x="885" y="1056" type="curve" smooth="yes"/>
      <point x="767" y="1056"/>
      <point x="664" y="1019"/>
      <point x="573" y="944" type="curve"/>
      <point x="573" y="1720" type="line"/>
    </contour>
  </outline>
</glyph>
<glyph name="c" format="2">
  <advance width="1010"/>
  <unicode hex="0063"/>
  <anchor x="567" y="0" name="bottom"/>
  <anchor x="567" y="1024" name="top"/>
  <anchor x="599" y="0" name="cedilla"/>
  <outline>
    <contour>
      <point x="639" y="-32" type="curve" smooth="yes"/>
      <point x="779" y="-32"/>
      <point x="902" y="10"/>
      <point x="969" y="60" type="curve"/>
      <point x="833" y="340" type="line"/>
      <point x="802" y="319"/>
      <point x="754" y="306"/>
      <point x="705" y="306" type="curve" smooth="yes"/>
      <point x="583" y="306"/>
      <point x="495" y="393"/>
      <point x="495" y="512" type="curve" smooth="yes"/>
      <point x="495" y="631"/>
      <point x="583" y="718"/>
      <point x="705" y="718" type="curve" smooth="yes"/>
      <point x="754" y="718"/>
      <point x="802" y="705"/>
      <point x="833" y="684" type="curve"/>
      <point x="969" y="964" type="line"/>
      <point x="902" y="1014"/>
      <point x="779" y="1056"/>
      <point x="639" y="1056" type="curve" smooth="yes"/>
      <point x="307" y="1056"/>
      <point x="55" y="820"/>
      <point x="55" y="512" type="curve" smooth="yes"/>
      <point x="55" y="204"/>
      <point x="307" y="-32"/>
    </contour>
  </outline>
</glyph>
<glyph name="d" format="2">
  <advance width="1464"/>
  <unicode hex="0064"/>
  <anchor x="591" y="0" name="bottom"/>
  <anchor x="632" y="1547" name="top"/>
  <outline>
    <contour>
      <point x="513" y="512" type="curve" smooth="yes"/>
      <point x="513" y="623"/>
      <point x="596" y="704"/>
      <point x="707" y="704" type="curve" smooth="yes"/>
      <point x="818" y="704"/>
      <point x="899" y="623"/>
      <point x="899" y="512" type="curve" smooth="yes"/>
      <point x="899" y="401"/>
      <point x="818" y="320"/>
      <point x="707" y="320" type="curve" smooth="yes"/>
      <point x="596" y="320"/>
      <point x="513" y="401"/>
    </contour>
    <contour>
      <point x="73" y="514" type="curve" smooth="yes"/>
      <point x="73" y="209"/>
      <point x="281" y="-32"/>
      <point x="579" y="-32" type="curve" smooth="yes"/>
      <point x="697" y="-32"/>
      <point x="800" y="5"/>
      <point x="891" y="80" type="curve"/>
      <point x="891" y="0" type="line"/>
      <point x="1307" y="0" type="line" name=".hr01"/>
      <point x="1307" y="1720" type="line"/>
      <point x="891" y="1720" type="line"/>
      <point x="891" y="944" type="line"/>
      <point x="800" y="1019"/>
      <point x="697" y="1056"/>
      <point x="579" y="1056" type="curve" smooth="yes"/>
      <point x="281" y="1056"/>
      <point x="73" y="819"/>
    </contour>
  </outline>
</glyph>
<glyph name="e" format="2">
  <advance width="1264"/>
  <unicode hex="0065"/>
  <anchor x="682" y="0" name="bottom"/>
  <anchor x="713" y="0" name="ogonek"/>
  <anchor x="639" y="1056" name="top"/>
  <outline>
    <contour>
      <point x="658" y="-32" type="curve" smooth="yes"/>
      <point x="882" y="-32"/>
      <point x="1075" y="71"/>
      <point x="1171" y="240" type="curve"/>
      <point x="873" y="388" type="line"/>
      <point x="801" y="318"/>
      <point x="756" y="296"/>
      <point x="682" y="296" type="curve" smooth="yes"/>
      <point x="561" y="296"/>
      <point x="489" y="355"/>
      <point x="489" y="454" type="curve"/>
      <point x="1183" y="454" type="line"/>
      <point x="1186" y="488"/>
      <point x="1187" y="508"/>
      <point x="1187" y="529" type="curve" smooth="yes"/>
      <point x="1187" y="842"/>
      <point x="969" y="1056"/>
      <point x="650" y="1056" type="curve" smooth="yes"/>
      <point x="315" y="1056"/>
      <point x="59" y="821"/>
      <point x="59" y="514" type="curve" smooth="yes"/>
      <point x="59" y="204"/>
      <point x="318" y="-32"/>
    </contour>
    <contour>
      <point x="501" y="650" type="line"/>
      <point x="502" y="727"/>
      <point x="551" y="770"/>
      <point x="639" y="770" type="curve" smooth="yes"/>
      <point x="722" y="770"/>
      <point x="768" y="732"/>
      <point x="781" y="650" type="curve"/>
    </contour>
  </outline>
</glyph>
<glyph name="f" format="2">
  <advance width="887"/>
  <unicode hex="0066"/>
  <anchor x="426" y="0" name="bottom"/>
  <anchor x="662" y="1720" name="top"/>
  <outline>
    <contour>
      <point x="634" y="0" type="line"/>
      <point x="634" y="708" type="line"/>
      <point x="862" y="708" type="line"/>
      <point x="862" y="1024" type="line"/>
      <point x="634" y="1024" type="line"/>
      <point x="634" y="1208" type="line" smooth="yes"/>
      <point x="634" y="1319"/>
      <point x="658" y="1376"/>
      <point x="726" y="1376" type="curve" smooth="yes"/>
      <point x="748" y="1376"/>
      <point x="772" y="1370"/>
      <point x="796" y="1348" type="curve"/>
      <point x="992" y="1622" type="line"/>
      <point x="917" y="1697"/>
      <point x="784" y="1750"/>
      <point x="649" y="1750" type="curve" smooth="yes"/>
      <point x="396" y="1750"/>
      <point x="218" y="1563"/>
      <point x="218" y="1202" type="curve" smooth="yes"/>
      <point x="218" y="1024" type="line"/>
      <point x="58" y="1024" type="line"/>
      <point x="58" y="708" type="line"/>
      <point x="218" y="708" type="line"/>
      <point x="218" y="0" type="line"/>
    </contour>
  </outline>
</glyph>
<glyph name="g" format="2">
  <advance width="1464"/>
  <unicode hex="0067"/>
  <anchor x="707" y="-520" name="bottom"/>
  <anchor x="707" y="1024" name="top"/>
  <outline>
    <contour>
      <point x="73" y="514" type="curve" smooth="yes"/>
      <point x="73" y="209"/>
      <point x="281" y="-32"/>
      <point x="579" y="-32" type="curve" smooth="yes"/>
      <point x="697" y="-32"/>
      <point x="800" y="5"/>
      <point x="891" y="80" type="curve"/>
      <point x="891" y="8" type="line" smooth="yes"/>
      <point x="891" y="-101"/>
      <point x="809" y="-190"/>
      <point x="677" y="-190" type="curve" smooth="yes"/>
      <point x="588" y="-190"/>
      <point x="495" y="-150"/>
      <point x="445" y="-86" type="curve"/>
      <point x="109" y="-252" type="line"/>
      <point x="193" y="-448"/>
      <point x="391" y="-550"/>
      <point x="679" y="-550" type="curve" smooth="yes"/>
      <point x="1125" y="-550"/>
      <point x="1307" y="-305"/>
      <point x="1307" y="-28" type="curve" smooth="yes"/>
      <point x="1307" y="1024" type="line"/>
      <point x="891" y="1024" type="line"/>
      <point x="891" y="944" type="line"/>
      <point x="800" y="1019"/>
      <point x="697" y="1056" name=".hr01"/>
      <point x="579" y="1056" type="curve" smooth="yes"/>
      <point x="281" y="1056"/>
      <point x="73" y="819"/>
    </contour>
    <contour>
      <point x="513" y="512" type="curve" smooth="yes"/>
      <point x="513" y="623"/>
      <point x="596" y="704"/>
      <point x="707" y="704" type="curve" smooth="yes"/>
      <point x="818" y="704"/>
      <point x="899" y="623"/>
      <point x="899" y="512" type="curve" smooth="yes"/>
      <point x="899" y="401"/>
      <point x="818" y="320"/>
      <point x="707" y="320" type="curve" smooth="yes"/>
      <point x="596" y="320"/>
      <point x="513" y="401"/>
    </contour>
  </outline>
</glyph>
<glyph name="h" format="2">
  <advance width="1461"/>
  <unicode hex="0068"/>
  <anchor x="731" y="0" name="bottom"/>
  <anchor x="731" y="860" name="center"/>
  <anchor x="731" y="1720" name="top"/>
  <outline>
    <contour>
      <point x="573" y="0" type="line"/>
      <point x="573" y="564" type="line" smooth="yes"/>
      <point x="573" y="667"/>
      <point x="640" y="734"/>
      <point x="741" y="734" type="curve" smooth="yes"/>
      <point x="842" y="734"/>
      <point x="909" y="667"/>
      <point x="909" y="564" type="curve" smooth="yes"/>
      <point x="909" y="0" type="line"/>
      <point x="1325" y="0" type="line"/>
      <point x="1325" y="654" type="line" smooth="yes"/>
      <point x="1325" y="883"/>
      <point x="1148" y="1056"/>
      <point x="915" y="1056" type="curve" smooth="yes"/>
      <point x="792" y="1056"/>
      <point x="667" y="1009"/>
      <point x="573" y="928" type="curve"/>
      <point x="573" y="1720" type="line"/>
      <point x="157" y="1720" type="line"/>
      <point x="157" y="0" type="line"/>
    </contour>
  </outline>
</glyph>
<glyph name="i" format="2">
  <advance width="729"/>
  <unicode hex="0069"/>
  <anchor x="365" y="0" name="bottom"/>
  <anchor x="573" y="0" name="ogonek"/>
  <outline>
    <component base="idotless"/>
    <contour>
      <point x="365" y="1244" type="curve" smooth="yes"/>
      <point x="498" y="1244"/>
      <point x="605" y="1352"/>
      <point x="605" y="1484" type="curve" smooth="yes"/>
      <point x="605" y="1617"/>
      <point x="498" y="1724"/>
      <point x="365" y="1724" type="curve" smooth="yes"/>
      <point x="232" y="1724"/>
      <point x="124" y="1617"/>
      <point x="124" y="1484" type="curve" smooth="yes"/>
      <point x="124" y="1351"/>
      <point x="232" y="1244"/>
    </contour>
  </outline>
</glyph>
<glyph name="j" format="2">
  <advance width="730"/>
  <unicode hex="006A"/>
  <outline>
    <contour>
      <point x="156" y="-550" type="curve" smooth="yes"/>
      <point x="418" y="-550"/>
      <point x="573" y="-386"/>
      <point x="573" y="-138" type="curve" smooth="yes"/>
      <point x="573" y="1024" type="line"/>
      <point x="157" y="1024" type="line"/>
      <point x="157" y="-56" type="line" smooth="yes"/>
      <point x="157" y="-119"/>
      <point x="133" y="-176"/>
      <point x="65" y="-176" type="curve" smooth="yes"/>
      <point x="43" y="-176"/>
      <point x="19" y="-170"/>
      <point x="-5" y="-148" type="curve"/>
      <point x="-201" y="-422" type="line"/>
      <point x="-126" y="-497"/>
      <point x="7" y="-550"/>
    </contour>
    <contour>
      <point x="365" y="1243" type="curve" smooth="yes"/>
      <point x="497" y="1243"/>
      <point x="605" y="1352"/>
      <point x="605" y="1484" type="curve" smooth="yes" name=".hr01"/>
      <point x="605" y="1616"/>
      <point x="497" y="1724"/>
      <point x="365" y="1724" type="curve" smooth="yes"/>
      <point x="232" y="1724"/>
      <point x="124" y="1616"/>
      <point x="124" y="1484" type="curve" smooth="yes"/>
      <point x="124" y="1351"/>
      <point x="232" y="1243"/>
    </contour>
  </outline>
</glyph>
<glyph name="k" format="2">
  <advance width="1426"/>
  <unicode hex="006B"/>
  <anchor x="713" y="0" name="bottom"/>
  <anchor x="713" y="1720" name="top"/>
  <outline>
    <contour>
      <point x="573" y="0" type="line"/>
      <point x="573" y="350" type="line"/>
      <point x="957" y="0" type="line"/>
      <point x="1491" y="0" type="line"/>
      <point x="945" y="508" type="line"/>
      <point x="1469" y="1024" type="line"/>
      <point x="931" y="1024" type="line"/>
      <point x="573" y="680" type="line"/>
      <point x="573" y="1720" type="line"/>
      <point x="157" y="1720" type="line"/>
      <point x="157" y="0" type="line"/>
    </contour>
  </outline>
</glyph>
<glyph name="l" format="2">
  <advance width="730"/>
  <unicode hex="006C"/>
  <anchor x="365" y="0" name="bottom"/>
  <anchor x="365" y="860" name="center"/>
  <anchor x="365" y="1720" name="top"/>
  <anchor x="573" y="1720" name="topright"/>
  <outline>
    <contour>
      <point x="573" y="0" type="line"/>
      <point x="573" y="1720" type="line"/>
      <point x="157" y="1720" type="line"/>
      <point x="157" y="0" type="line"/>
    </contour>
  </outline>
</glyph>
<glyph name="m" format="2">
  <advance width="2093"/>
  <unicode hex="006D"/>
  <anchor x="1265" y="0" name="bottom"/>
  <anchor x="1139" y="1024" name="top"/>
  <outline>
    <contour>
      <point x="157" y="1024" type="line"/>
      <point x="157" y="0" type="line"/>
      <point x="573" y="0" type="line"/>
      <point x="573" y="574" type="line" smooth="yes"/>
      <point x="573" y="670"/>
      <point x="624" y="726" name=".hr01"/>
      <point x="710" y="726" type="curve" smooth="yes"/>
      <point x="800" y="726"/>
      <point x="849" y="664"/>
      <point x="849" y="572" type="curve" smooth="yes"/>
      <point x="849" y="0" type="line"/>
      <point x="1265" y="0" type="line"/>
      <point x="1265" y="588" type="line" smooth="yes"/>
      <point x="1265" y="674"/>
      <point x="1316" y="726"/>
      <point x="1402" y="726" type="curve" smooth="yes"/>
      <point x="1488" y="726"/>
      <point x="1541" y="668"/>
      <point x="1541" y="572" type="curve" smooth="yes"/>
      <point x="1541" y="0" type="line"/>
      <point x="1957" y="0" type="line"/>
      <point x="1957" y="684" type="line" smooth="yes"/>
      <point x="1957" y="904"/>
      <point x="1795" y="1056"/>
      <point x="1571" y="1056" type="curve" smooth="yes"/>
      <point x="1438" y="1056"/>
      <point x="1334" y="1002"/>
      <point x="1221" y="876" type="curve"/>
      <point x="1161" y="984"/>
      <point x="1021" y="1056"/>
      <point x="872" y="1056" type="curve" smooth="yes"/>
      <point x="754" y="1056"/>
      <point x="664" y="1010"/>
      <point x="573" y="903" type="curve"/>
      <point x="573" y="1024" type="line" name=".hr02"/>
    </contour>
  </outline>
</glyph>
<glyph name="n" format="2">
  <advance width="1461"/>
  <unicode hex="006E"/>
  <anchor x="741" y="0" name="bottom"/>
  <anchor x="741" y="1024" name="top"/>
  <outline>
    <contour>
      <point x="573" y="0" type="line"/>
      <point x="573" y="564" type="line" smooth="yes"/>
      <point x="573" y="667"/>
      <point x="640" y="734"/>
      <point x="741" y="734" type="curve" smooth="yes"/>
      <point x="842" y="734"/>
      <point x="909" y="667"/>
      <point x="909" y="564" type="curve" smooth="yes"/>
      <point x="909" y="0" type="line"/>
      <point x="1325" y="0" type="line"/>
      <point x="1325" y="654" type="line" smooth="yes"/>
      <point x="1325" y="883"/>
      <point x="1148" y="1056"/>
      <point x="915" y="1056" type="curve" smooth="yes"/>
      <point x="792" y="1056"/>
      <point x="667" y="1009"/>
      <point x="573" y="888" type="curve"/>
      <point x="573" y="1024" type="line" name=".hr01"/>
      <point x="157" y="1024" type="line"/>
      <point x="157" y="0" type="line"/>
    </contour>
  </outline>
</glyph>
<glyph name="o" format="2">
  <advance width="1366"/>
  <unicode hex="006F"/>
  <anchor x="683" y="0" name="bottom"/>
  <anchor x="683" y="512" name="center"/>
  <anchor x="723" y="0" name="ogonek"/>
  <anchor x="683" y="1024" name="top"/>
  <outline>
    <contour>
      <point x="683" y="-32" type="curve" smooth="yes"/>
      <point x="1035" y="-32"/>
      <point x="1307" y="192"/>
      <point x="1307" y="512" type="curve" smooth="yes"/>
      <point x="1307" y="832"/>
      <point x="1035" y="1056"/>
      <point x="683" y="1056" type="curve" smooth="yes"/>
      <point x="331" y="1056"/>
      <point x="59" y="832"/>
      <point x="59" y="512" type="curve" smooth="yes"/>
      <point x="59" y="192"/>
      <point x="331" y="-32"/>
    </contour>
    <contour>
      <point x="683" y="320" type="curve" smooth="yes"/>
      <point x="581" y="320"/>
      <point x="495" y="398"/>
      <point x="495" y="512" type="curve" smooth="yes"/>
      <point x="495" y="626"/>
      <point x="581" y="704"/>
      <point x="683" y="704" type="curve" smooth="yes"/>
      <point x="785" y="704"/>
      <point x="871" y="626"/>
      <point x="871" y="512" type="curve" smooth="yes"/>
      <point x="871" y="398"/>
      <point x="785" y="320"/>
    </contour>
  </outline>
</glyph>
<glyph name="q" format="2">
  <advance width="1416"/>
  <unicode hex="0071"/>
  <anchor x="723" y="0" name="bottom"/>
  <anchor x="723" y="1024" name="top"/>
  <outline>
    <contour>
      <point x="504" y="512" type="curve" smooth="yes"/>
      <point x="504" y="623"/>
      <point x="587" y="704"/>
      <point x="698" y="704" type="curve" smooth="yes"/>
      <point x="809" y="704"/>
      <point x="890" y="623"/>
      <point x="890" y="512" type="curve" smooth="yes"/>
      <point x="890" y="401"/>
      <point x="809" y="320"/>
      <point x="698" y="320" type="curve" smooth="yes"/>
      <point x="587" y="320"/>
      <point x="504" y="401"/>
    </contour>
    <contour>
      <point x="64" y="514" type="curve" smooth="yes"/>
      <point x="64" y="209"/>
      <point x="272" y="-32"/>
      <point x="570" y="-32" type="curve" smooth="yes"/>
      <point x="688" y="-32"/>
      <point x="791" y="5"/>
      <point x="882" y="80" type="curve"/>
      <point x="882" y="-520" type="line"/>
      <point x="1298" y="-520" type="line"/>
      <point x="1298" y="1024" type="line"/>
      <point x="882" y="1024" type="line" name=".hr01"/>
      <point x="882" y="944" type="line"/>
      <point x="791" y="1019"/>
      <point x="688" y="1056"/>
      <point x="570" y="1056" type="curve" smooth="yes" name=".hr02"/>
      <point x="272" y="1056"/>
      <point x="64" y="819"/>
    </contour>
  </outline>
</glyph>
<glyph name="r" format="2">
  <advance width="1108"/>
  <unicode hex="0072"/>
  <anchor x="573" y="0" name="bottom"/>
  <anchor x="632" y="1024" name="top"/>
  <outline>
    <contour>
      <point x="573" y="0" type="line"/>
      <point x="573" y="482" type="line" smooth="yes"/>
      <point x="573" y="615"/>
      <point x="659" y="696"/>
      <point x="779" y="696" type="curve" smooth="yes"/>
      <point x="845" y="696"/>
      <point x="909" y="671"/>
      <point x="959" y="634" type="curve"/>
      <point x="1133" y="984" type="line"/>
      <point x="1075" y="1026"/>
      <point x="988" y="1056"/>
      <point x="903" y="1056" type="curve" smooth="yes"/>
      <point x="778" y="1056"/>
      <point x="658" y="991"/>
      <point x="573" y="871" type="curve"/>
      <point x="573" y="1024" type="line" name=".hr01"/>
      <point x="157" y="1024" type="line"/>
      <point x="157" y="0" type="line"/>
    </contour>
  </outline>
</glyph>
<glyph name="s" format="2">
  <advance width="1046"/>
  <unicode hex="0073"/>
  <anchor x="544" y="0" name="bottom"/>
  <anchor x="523" y="1024" name="top"/>
  <outline>
    <contour>
      <point x="492" y="-32" type="curve" smooth="yes"/>
      <point x="786" y="-32"/>
      <point x="962" y="92"/>
      <point x="962" y="303" type="curve" smooth="yes"/>
      <point x="962" y="459"/>
      <point x="866" y="561"/>
      <point x="665" y="632" type="curve" smooth="yes"/>
      <point x="537" y="677"/>
      <point x="488" y="706"/>
      <point x="488" y="737" type="curve" smooth="yes"/>
      <point x="488" y="760"/>
      <point x="515" y="778"/>
      <point x="579" y="778" type="curve" smooth="yes"/>
      <point x="651" y="778"/>
      <point x="737" y="756"/>
      <point x="802" y="720" type="curve"/>
      <point x="919" y="967" type="line"/>
      <point x="804" y="1024"/>
      <point x="674" y="1054"/>
      <point x="547" y="1054" type="curve" smooth="yes"/>
      <point x="272" y="1054"/>
      <point x="92" y="905"/>
      <point x="92" y="712" type="curve" smooth="yes"/>
      <point x="92" y="511"/>
      <point x="289" y="433"/>
      <point x="419" y="386" type="curve" smooth="yes"/>
      <point x="501" y="356"/>
      <point x="524" y="336"/>
      <point x="524" y="312" type="curve" smooth="yes"/>
      <point x="524" y="286"/>
      <point x="497" y="272"/>
      <point x="451" y="272" type="curve" smooth="yes"/>
      <point x="377" y="272"/>
      <point x="286" y="307"/>
      <point x="206" y="366" type="curve"/>
      <point x="56" y="103" type="line"/>
      <point x="185" y="12"/>
      <point x="317" y="-32"/>
    </contour>
  </outline>
</glyph>
<glyph name="t" format="2">
  <advance width="940"/>
  <unicode hex="0074"/>
  <anchor x="597" y="0" name="bottom"/>
  <anchor x="470" y="512" name="center"/>
  <anchor x="503" y="1408" name="top"/>
  <anchor x="820" y="1024" name="topright"/>
  <outline>
    <contour>
      <point x="577" y="-32" type="curve" smooth="yes"/>
      <point x="679" y="-32"/>
      <point x="795" y="-3"/>
      <point x="882" y="45" type="curve"/>
      <point x="742" y="357" type="line"/>
      <point x="722" y="346"/>
      <point x="702" y="340"/>
      <point x="681" y="340" type="curve" smooth="yes"/>
      <point x="638" y="340"/>
      <point x="616" y="367"/>
      <point x="616" y="420" type="curve" smooth="yes"/>
      <point x="616" y="708" type="line"/>
      <point x="820" y="708" type="line"/>
      <point x="820" y="1024" type="line"/>
      <point x="616" y="1024" type="line"/>
      <point x="616" y="1408" type="line"/>
      <point x="200" y="1408" type="line"/>
      <point x="200" y="1024" type="line"/>
      <point x="40" y="1024" type="line"/>
      <point x="40" y="708" type="line"/>
      <point x="200" y="708" type="line"/>
      <point x="200" y="388" type="line" smooth="yes"/>
      <point x="200" y="124"/>
      <point x="340" y="-32"/>
    </contour>
  </outline>
</glyph>
<glyph name="u" format="2">
  <advance width="1440"/>
  <unicode hex="0075"/>
  <anchor x="720" y="0" name="bottom"/>
  <anchor x="760" y="0" name="ogonek"/>
  <anchor x="720" y="1024" name="top"/>
  <outline>
    <contour>
      <point x="720" y="-32" type="curve" smooth="yes"/>
      <point x="1137" y="-32"/>
      <point x="1312" y="132"/>
      <point x="1312" y="474" type="curve" smooth="yes"/>
      <point x="1312" y="1024" type="line"/>
      <point x="896" y="1024" type="line"/>
      <point x="896" y="578" type="line" smooth="yes"/>
      <point x="896" y="390"/>
      <point x="850" y="304"/>
      <point x="720" y="304" type="curve" smooth="yes"/>
      <point x="590" y="304"/>
      <point x="544" y="390"/>
      <point x="544" y="578" type="curve" smooth="yes"/>
      <point x="544" y="1024" type="line"/>
      <point x="128" y="1024" type="line"/>
      <point x="128" y="474" type="line" smooth="yes"/>
      <point x="128" y="132"/>
      <point x="303" y="-32"/>
    </contour>
  </outline>
</glyph>
<glyph name="v" format="2">
  <advance width="1280"/>
  <unicode hex="0076"/>
  <anchor x="640" y="0" name="bottom"/>
  <anchor x="640" y="1024" name="top"/>
  <outline>
    <contour>
      <point x="780" y="0" type="line"/>
      <point x="1346" y="1024" type="line"/>
      <point x="854" y="1024" type="line"/>
      <point x="640" y="540" type="line"/>
      <point x="426" y="1024" type="line"/>
      <point x="-66" y="1024" type="line"/>
      <point x="500" y="0" type="line"/>
    </contour>
  </outline>
</glyph>
<glyph name="w" format="2">
  <advance width="1984"/>
  <unicode hex="0077"/>
  <anchor x="992" y="0" name="bottom"/>
  <anchor x="992" y="1024" name="top"/>
  <outline>
    <contour>
      <point x="780" y="0" type="line"/>
      <point x="992" y="452" type="line"/>
      <point x="1204" y="0" type="line"/>
      <point x="1484" y="0" type="line"/>
      <point x="2050" y="1024" type="line"/>
      <point x="1574" y="1024" type="line"/>
      <point x="1358" y="544" type="line"/>
      <point x="1134" y="1024" type="line"/>
      <point x="850" y="1024" type="line"/>
      <point x="626" y="544" type="line"/>
      <point x="410" y="1024" type="line"/>
      <point x="-66" y="1024" type="line"/>
      <point x="500" y="0" type="line"/>
    </contour>
  </outline>
</glyph>
<glyph name="x" format="2">
  <advance width="1266"/>
  <unicode hex="0078"/>
  <anchor x="633" y="0" name="bottom"/>
  <anchor x="633" y="1024" name="top"/>
  <outline>
    <contour>
      <point x="443" y="0" type="line"/>
      <point x="633" y="248" type="line"/>
      <point x="823" y="0" type="line"/>
      <point x="1323" y="0" type="line"/>
      <point x="883" y="540" type="line"/>
      <point x="1259" y="1024" type="line"/>
      <point x="775" y="1024" type="line"/>
      <point x="633" y="830" type="line"/>
      <point x="491" y="1024" type="line"/>
      <point x="7" y="1024" type="line"/>
      <point x="383" y="540" type="line"/>
      <point x="-57" y="0" type="line"/>
    </contour>
  </outline>
</glyph>
<glyph name="y" format="2">
  <advance width="1281"/>
  <unicode hex="0079"/>
  <anchor x="641" y="0" name="bottom"/>
  <anchor x="641" y="1024" name="top"/>
  <outline>
    <contour>
      <point x="509" y="-520" type="line"/>
      <point x="1345" y="1024" type="line"/>
      <point x="867" y="1024" type="line"/>
      <point x="659" y="592" type="line"/>
      <point x="407" y="1024" type="line"/>
      <point x="-71" y="1024" type="line"/>
      <point x="415" y="198" type="line"/>
      <point x="31" y="-520" type="line"/>
    </contour>
  </outline>
</glyph>
<glyph name="z" format="2">
  <advance width="1180"/>
  <unicode hex="007A"/>
  <anchor x="590" y="0" name="bottom"/>
  <anchor x="590" y="1024" name="top"/>
  <outline>
    <contour>
      <point x="1096" y="0" type="line"/>
      <point x="1096" y="312" type="line"/>
      <point x="704" y="312" type="line"/>
      <point x="1140" y="1024" type="line"/>
      <point x="102" y="1024" type="line"/>
      <point x="102" y="712" type="line"/>
      <point x="452" y="712" type="line"/>
      <point x="16" y="0" type="line"/>
    </contour>
  </outline>
</glyph>
<glyph name="braceleft" format="2">
  <advance width="798"/>
  <unicode hex="007B"/>
  <outline>
    <contour>
      <point x="741" y="-520" type="line"/>
      <point x="741" y="-224" type="line"/>
      <point x="651" y="-224" type="line" smooth="yes"/>
      <point x="603" y="-224"/>
      <point x="553" y="-178"/>
      <point x="553" y="-122" type="curve" smooth="yes"/>
      <point x="553" y="358" type="line" smooth="yes"/>
      <point x="553" y="484"/>
      <point x="489" y="560"/>
      <point x="411" y="600" type="curve"/>
      <point x="489" y="640"/>
      <point x="553" y="712"/>
      <point x="553" y="842" type="curve" smooth="yes"/>
      <point x="553" y="1322" type="line" smooth="yes"/>
      <point x="553" y="1378"/>
      <point x="603" y="1424"/>
      <point x="651" y="1424" type="curve" smooth="yes"/>
      <point x="741" y="1424" type="line"/>
      <point x="741" y="1720" type="line"/>
      <point x="515" y="1720" type="line" smooth="yes"/>
      <point x="259" y="1720"/>
      <point x="197" y="1524"/>
      <point x="197" y="1358" type="curve" smooth="yes"/>
      <point x="197" y="846" type="line" smooth="yes"/>
      <point x="197" y="748"/>
      <point x="135" y="708"/>
      <point x="41" y="708" type="curve"/>
      <point x="41" y="492" type="line"/>
      <point x="135" y="492"/>
      <point x="197" y="452"/>
      <point x="197" y="354" type="curve" smooth="yes"/>
      <point x="197" y="-158" type="line" smooth="yes"/>
      <point x="197" y="-324"/>
      <point x="259" y="-520"/>
      <point x="515" y="-520" type="curve" smooth="yes"/>
    </contour>
  </outline>
</glyph>
<glyph name="asciitilde" format="2">
  <advance width="1449"/>
  <unicode hex="007E"/>
  <outline>
    <contour>
      <point x="163" y="782" type="curve"/>
      <point x="375" y="643" type="line"/>
      <point x="412" y="715"/>
      <point x="460" y="750"/>
      <point x="525" y="750" type="curve" smooth="yes"/>
      <point x="666" y="750"/>
      <point x="756" y="586" name=".hr01"/>
      <point x="940" y="586" type="curve" smooth="yes"/>
      <point x="1077" y="586"/>
      <point x="1196" y="675"/>
      <point x="1286" y="863" type="curve"/>
      <point x="1074" y="1002" type="line"/>
      <point x="1037" y="930"/>
      <point x="989" y="895"/>
      <point x="924" y="895" type="curve" smooth="yes"/>
      <point x="783" y="895"/>
      <point x="693" y="1059" name=".hr02"/>
      <point x="509" y="1059" type="curve" smooth="yes"/>
      <point x="372" y="1059"/>
      <point x="253" y="970"/>
    </contour>
  </outline>
</glyph>
<glyph name="cent" format="2">
  <advance width="1109"/>
  <unicode hex="00A2"/>
  <outline>
    <component base="c" xOffset="25"/>
    <contour>
      <point x="452" y="1272" type="line"/>
      <point x="452" y="1000" type="line"/>
      <point x="702" y="1000" type="line"/>
      <point x="702" y="1272" type="line"/>
    </contour>
    <contour>
      <point x="516" y="0" type="line" name=".hr01"/>
      <point x="516" y="-258" type="line"/>
      <point x="766" y="-258" type="line"/>
      <point x="766" y="0" type="line"/>
    </contour>
  </outline>
</glyph>
<glyph name="sterling" format="2">
  <advance width="1514"/>
  <unicode hex="00A3"/>
  <outline>
    <contour>
      <point x="1095" y="-30" type="curve" smooth="yes"/>
      <point x="1296" y="-30"/>
      <point x="1435" y="80"/>
      <point x="1471" y="264" type="curve"/>
      <point x="1151" y="422" type="line"/>
      <point x="1137" y="334"/>
      <point x="1107" y="306"/>
      <point x="1030" y="306" type="curve" smooth="yes"/>
      <point x="971" y="306"/>
      <point x="851" y="326"/>
      <point x="783" y="348" type="curve"/>
      <point x="806" y="390"/>
      <point x="817" y="429"/>
      <point x="817" y="473" type="curve" smooth="yes"/>
      <point x="817" y="503"/>
      <point x="812" y="536"/>
      <point x="803" y="564" type="curve"/>
      <point x="1067" y="564" type="line"/>
      <point x="1067" y="790" type="line"/>
      <point x="749" y="790" type="line"/>
      <point x="685" y="949"/>
      <point x="659" y="1086" name=".hr01"/>
      <point x="659" y="1164" type="curve" smooth="yes"/>
      <point x="659" y="1272"/>
      <point x="708" y="1316"/>
      <point x="802" y="1316" type="curve" smooth="yes"/>
      <point x="913" y="1316"/>
      <point x="968" y="1256"/>
      <point x="1007" y="1131" type="curve"/>
      <point x="1363" y="1312" type="line"/>
      <point x="1305" y="1517"/>
      <point x="1117" y="1682"/>
      <point x="811" y="1682" type="curve" smooth="yes"/>
      <point x="469" y="1682"/>
      <point x="245" y="1477"/>
      <point x="245" y="1145" type="curve" smooth="yes"/>
      <point x="245" y="1018"/>
      <point x="278" y="894"/>
      <point x="337" y="790" type="curve"/>
      <point x="153" y="790" type="line"/>
      <point x="153" y="564" type="line"/>
      <point x="435" y="564" type="line"/>
      <point x="449" y="540"/>
      <point x="458" y="507" name=".hr02"/>
      <point x="458" y="476" type="curve" smooth="yes"/>
      <point x="458" y="440"/>
      <point x="449" y="404"/>
      <point x="435" y="386" type="curve"/>
      <point x="258" y="386"/>
      <point x="131" y="221"/>
      <point x="139" y="0" type="curve"/>
      <point x="497" y="0" type="line"/>
      <point x="497" y="52"/>
      <point x="518" y="72"/>
      <point x="574" y="72" type="curve" smooth="yes"/>
      <point x="700" y="72"/>
      <point x="902" y="-30"/>
    </contour>
  </outline>
</glyph>
<glyph name="currency" format="2">
  <advance width="1240"/>
  <unicode hex="00A4"/>
  <outline>
    <contour>
      <point x="356" y="196" type="line"/>
      <point x="431" y="147"/>
      <point x="521" y="120"/>
      <point x="621" y="120" type="curve" smooth="yes"/>
      <point x="720" y="120"/>
      <point x="811" y="147"/>
      <point x="886" y="195" type="curve"/>
      <point x="1027" y="54" type="line"/>
      <point x="1165" y="194" type="line"/>
      <point x="1024" y="335" type="line"/>
      <point x="1070" y="410"/>
      <point x="1097" y="500"/>
      <point x="1097" y="600" type="curve" smooth="yes"/>
      <point x="1097" y="700"/>
      <point x="1070" y="790"/>
      <point x="1024" y="865" type="curve"/>
      <point x="1165" y="1006" type="line"/>
      <point x="1027" y="1146" type="line"/>
      <point x="886" y="1005" type="line"/>
      <point x="811" y="1053"/>
      <point x="720" y="1080"/>
      <point x="621" y="1080" type="curve" smooth="yes"/>
      <point x="521" y="1080"/>
      <point x="431" y="1053"/>
      <point x="356" y="1004" type="curve"/>
      <point x="215" y="1146" type="line"/>
      <point x="75" y="1006" type="line"/>
      <point x="218" y="864" type="line"/>
      <point x="172" y="790"/>
      <point x="145" y="700"/>
      <point x="145" y="600" type="curve" smooth="yes"/>
      <point x="145" y="500"/>
      <point x="172" y="410"/>
      <point x="218" y="336" type="curve"/>
      <point x="75" y="194" type="line"/>
      <point x="215" y="54" type="line"/>
    </contour>
    <contour>
      <point x="621" y="470" type="curve" smooth="yes"/>
      <point x="541" y="470"/>
      <point x="487" y="518"/>
      <point x="487" y="600" type="curve" smooth="yes"/>
      <point x="487" y="682"/>
      <point x="541" y="730"/>
      <point x="621" y="730" type="curve" smooth="yes"/>
      <point x="701" y="730"/>
      <point x="755" y="682"/>
      <point x="755" y="600" type="curve" smooth="yes"/>
      <point x="755" y="518"/>
      <point x="701" y="470"/>
    </contour>
  </outline>
</glyph>
<glyph name="yen" format="2">
  <advance width="1767"/>
  <unicode hex="00A5"/>
  <outline>
    <component base="Y" xOffset="114"/>
    <contour>
      <point x="230" y="898" type="line"/>
      <point x="230" y="588" type="line"/>
      <point x="1536" y="588" type="line"/>
      <point x="1536" y="898" type="line"/>
    </contour>
    <contour>
      <point x="230" y="502" type="line"/>
      <point x="230" y="192" type="line"/>
      <point x="1536" y="192" type="line"/>
      <point x="1536" y="502" type="line"/>
    </contour>
  </outline>
</glyph>
<glyph name="brokenbar" format="2">
  <advance width="826"/>
  <unicode hex="00A6"/>
  <outline>
    <contour>
      <point x="591" y="1056" type="line"/>
      <point x="591" y="1720" type="line"/>
      <point x="235" y="1720" type="line"/>
      <point x="235" y="1056" type="line"/>
    </contour>
    <contour>
      <point x="591" y="0" type="line"/>
      <point x="591" y="664" type="line"/>
      <point x="235" y="664" type="line"/>
      <point x="235" y="0" type="line"/>
    </contour>
  </outline>
</glyph>
<glyph name="section" format="2">
  <advance width="1427"/>
  <unicode hex="00A7"/>
  <outline>
    <contour>
      <point x="673" y="-550" type="curve" smooth="yes"/>
      <point x="979" y="-550"/>
      <point x="1230" y="-413"/>
      <point x="1230" y="-126" type="curve" smooth="yes"/>
      <point x="1230" y="31"/>
      <point x="1155" y="141"/>
      <point x="1034" y="224" type="curve"/>
      <point x="1227" y="305"/>
      <point x="1329" y="432"/>
      <point x="1338" y="594" type="curve" smooth="yes"/>
      <point x="1351" y="826"/>
      <point x="1165" y="983"/>
      <point x="962" y="1084" type="curve" smooth="yes"/>
      <point x="857" y="1136"/>
      <point x="672" y="1210"/>
      <point x="672" y="1286" type="curve" smooth="yes"/>
      <point x="672" y="1314"/>
      <point x="698" y="1336"/>
      <point x="752" y="1336" type="curve" smooth="yes"/>
      <point x="843" y="1336"/>
      <point x="874" y="1274"/>
      <point x="874" y="1222" type="curve"/>
      <point x="1250" y="1298" type="line"/>
      <point x="1217" y="1473"/>
      <point x="1099" y="1680"/>
      <point x="734" y="1680" type="curve" smooth="yes"/>
      <point x="377" y="1680"/>
      <point x="214" y="1482"/>
      <point x="214" y="1250" type="curve" smooth="yes"/>
      <point x="214" y="1096"/>
      <point x="286" y="980"/>
      <point x="422" y="896" type="curve"/>
      <point x="221" y="812"/>
      <point x="119" y="686"/>
      <point x="108" y="526" type="curve" smooth="yes"/>
      <point x="91" y="278"/>
      <point x="302" y="124"/>
      <point x="498" y="22" type="curve" smooth="yes"/>
      <point x="641" y="-52"/>
      <point x="768" y="-96"/>
      <point x="768" y="-150" type="curve" smooth="yes"/>
      <point x="768" y="-170"/>
      <point x="751" y="-206"/>
      <point x="669" y="-206" type="curve" smooth="yes"/>
      <point x="562" y="-206"/>
      <point x="522" y="-146"/>
      <point x="502" y="-86" type="curve"/>
      <point x="126" y="-164" type="line"/>
      <point x="164" y="-343"/>
      <point x="297" y="-550"/>
    </contour>
    <contour>
      <point x="768" y="381" type="curve"/>
      <point x="743" y="388"/>
      <point x="672" y="417"/>
      <point x="611" y="459" type="curve" smooth="yes"/>
      <point x="540" y="508"/>
      <point x="510" y="556"/>
      <point x="510" y="599" type="curve" smooth="yes"/>
      <point x="510" y="677"/>
      <point x="606" y="708"/>
      <point x="688" y="728" type="curve"/>
      <point x="716" y="716"/>
      <point x="740" y="704"/>
      <point x="750" y="698" type="curve"/>
      <point x="884" y="623"/>
      <point x="934" y="572"/>
      <point x="934" y="519" type="curve" smooth="yes"/>
      <point x="934" y="443"/>
      <point x="833" y="400"/>
    </contour>
  </outline>
</glyph>
<glyph name="copyright" format="2">
  <advance width="1900"/>
  <unicode hex="00A9"/>
  <outline>
    <component base="c" xScale="0.7206" yScale="0.7206" xOffset="541" yOffset="463"/>
    <contour>
      <point x="951" y="-30" type="curve" smooth="yes"/>
      <point x="1421" y="-30"/>
      <point x="1809" y="356"/>
      <point x="1809" y="825" type="curve" smooth="yes"/>
      <point x="1809" y="1295"/>
      <point x="1422" y="1680"/>
      <point x="949" y="1680" type="curve" smooth="yes"/>
      <point x="475" y="1680"/>
      <point x="91" y="1293"/>
      <point x="91" y="827" type="curve" smooth="yes"/>
      <point x="91" y="356"/>
      <point x="482" y="-30"/>
    </contour>
    <contour>
      <point x="951" y="234" type="curve" smooth="yes"/>
      <point x="625" y="234"/>
      <point x="353" y="503"/>
      <point x="353" y="826" type="curve" smooth="yes"/>
      <point x="353" y="1150"/>
      <point x="623" y="1418"/>
      <point x="949" y="1418" type="curve" smooth="yes"/>
      <point x="1277" y="1418"/>
      <point x="1549" y="1150"/>
      <point x="1549" y="825" type="curve" smooth="yes"/>
      <point x="1549" y="502"/>
      <point x="1277" y="234"/>
    </contour>
  </outline>
</glyph>
<glyph name="ordfeminine" format="2">
  <advance width="1094"/>
  <unicode hex="00AA"/>
  <outline>
    <contour>
      <point x="445" y="1008" type="curve" smooth="yes"/>
      <point x="526" y="1008"/>
      <point x="593" y="1040"/>
      <point x="641" y="1078" type="curve"/>
      <point x="641" y="1028" type="line"/>
      <point x="899" y="1028" type="line"/>
      <point x="899" y="1660" type="line"/>
      <point x="641" y="1660" type="line"/>
      <point x="641" y="1620" type="line"/>
      <point x="589" y="1660"/>
      <point x="524" y="1680"/>
      <point x="454" y="1680" type="curve" smooth="yes"/>
      <point x="261" y="1680"/>
      <point x="137" y="1528"/>
      <point x="137" y="1345" type="curve" smooth="yes"/>
      <point x="137" y="1154"/>
      <point x="272" y="1008"/>
    </contour>
    <contour>
      <point x="526" y="1226" type="curve" smooth="yes"/>
      <point x="454" y="1226"/>
      <point x="407" y="1276"/>
      <point x="407" y="1343" type="curve" smooth="yes"/>
      <point x="407" y="1414"/>
      <point x="461" y="1462"/>
      <point x="527" y="1462" type="curve" smooth="yes"/>
      <point x="593" y="1462"/>
      <point x="647" y="1414"/>
      <point x="647" y="1344" type="curve" smooth="yes"/>
      <point x="647" y="1276"/>
      <point x="597" y="1226"/>
    </contour>
  </outline>
</glyph>
<glyph name="guillemetleft" format="2">
  <advance width="1302"/>
  <unicode hex="00AB"/>
  <outline>
    <contour>
      <point x="649" y="226" type="line"/>
      <point x="389" y="558" type="line"/>
      <point x="649" y="890" type="line"/>
      <point x="435" y="1058" type="line"/>
      <point x="45" y="558" type="line"/>
      <point x="435" y="58" type="line"/>
    </contour>
    <contour>
      <point x="1227" y="226" type="line"/>
      <point x="967" y="558" type="line"/>
      <point x="1227" y="890" type="line"/>
      <point x="1013" y="1058" type="line"/>
      <point x="623" y="558" type="line"/>
      <point x="1013" y="58" type="line"/>
    </contour>
  </outline>
</glyph>
<glyph name="logicalnot" format="2">
  <advance width="1280"/>
  <unicode hex="00AC"/>
  <outline>
    <contour>
      <point x="1154" y="316" type="line"/>
      <point x="1154" y="1010" type="line"/>
      <point x="126" y="1010" type="line"/>
      <point x="126" y="650" type="line"/>
      <point x="794" y="650" type="line"/>
      <point x="794" y="316" type="line"/>
    </contour>
  </outline>
</glyph>
<glyph name="softhyphen" format="2">
  <advance width="958"/>
  <unicode hex="00AD"/>
  <outline>
    <contour>
      <point x="801" y="400" type="line"/>
      <point x="801" y="758" type="line"/>
      <point x="157" y="758" type="line"/>
      <point x="157" y="400" type="line"/>
    </contour>
  </outline>
</glyph>
<glyph name="registered" format="2">
  <advance width="1191"/>
  <unicode hex="00AE"/>
  <outline>
    <component base="R" xScale="0.2303" yScale="0.2303" xOffset="412" yOffset="1042"/>
    <contour>
      <point x="595" y="780" type="curve" smooth="yes"/>
      <point x="845" y="780"/>
      <point x="1043" y="986"/>
      <point x="1043" y="1230" type="curve" smooth="yes"/>
      <point x="1043" y="1474"/>
      <point x="845" y="1680"/>
      <point x="595" y="1680" type="curve" smooth="yes"/>
      <point x="345" y="1680"/>
      <point x="147" y="1474"/>
      <point x="147" y="1230" type="curve" smooth="yes"/>
      <point x="147" y="986"/>
      <point x="345" y="780"/>
    </contour>
    <contour>
      <point x="595" y="901" type="curve" smooth="yes"/>
      <point x="411" y="901"/>
      <point x="270" y="1054"/>
      <point x="270" y="1230" type="curve" smooth="yes"/>
      <point x="270" y="1406"/>
      <point x="411" y="1559"/>
      <point x="595" y="1559" type="curve" smooth="yes"/>
      <point x="779" y="1559"/>
      <point x="920" y="1406"/>
      <point x="920" y="1230" type="curve" smooth="yes"/>
      <point x="920" y="1054"/>
      <point x="779" y="901"/>
    </contour>
  </outline>
</glyph>
<glyph name="degree" format="2">
  <advance width="862"/>
  <unicode hex="00B0"/>
  <outline>
    <contour>
      <point x="431" y="1338" type="curve" smooth="yes"/>
      <point x="565" y="1338"/>
      <point x="669" y="1422"/>
      <point x="669" y="1544" type="curve" smooth="yes"/>
      <point x="669" y="1666"/>
      <point x="565" y="1750"/>
      <point x="431" y="1750" type="curve" smooth="yes"/>
      <point x="297" y="1750"/>
      <point x="193" y="1666"/>
      <point x="193" y="1544" type="curve" smooth="yes"/>
      <point x="193" y="1422"/>
      <point x="297" y="1338"/>
    </contour>
    <contour>
      <point x="431" y="1468" type="curve" smooth="yes"/>
      <point x="391" y="1468"/>
      <point x="359" y="1500"/>
      <point x="359" y="1544" type="curve" smooth="yes"/>
      <point x="359" y="1588"/>
      <point x="391" y="1620"/>
      <point x="431" y="1620" type="curve" smooth="yes"/>
      <point x="471" y="1620"/>
      <point x="503" y="1588"/>
      <point x="503" y="1544" type="curve" smooth="yes"/>
      <point x="503" y="1500"/>
      <point x="471" y="1468"/>
    </contour>
  </outline>
</glyph>
<glyph name="plusminus" format="2">
  <advance width="1396"/>
  <unicode hex="00B1"/>
  <outline>
    <contour>
      <point x="878" y="436" type="line"/>
      <point x="878" y="710" type="line"/>
      <point x="1212" y="710" type="line"/>
      <point x="1212" y="1068" type="line"/>
      <point x="878" y="1068" type="line"/>
      <point x="878" y="1342" type="line"/>
      <point x="518" y="1342" type="line"/>
      <point x="518" y="1068" type="line"/>
      <point x="184" y="1068" type="line"/>
      <point x="184" y="710" type="line"/>
      <point x="518" y="710" type="line"/>
      <point x="518" y="436" type="line"/>
    </contour>
    <contour>
      <point x="1212" y="0" type="line"/>
      <point x="1212" y="360" type="line"/>
      <point x="184" y="360" type="line"/>
      <point x="184" y="0" type="line"/>
    </contour>
  </outline>
</glyph>
<glyph name="twosuperior" format="2">
  <advance width="751"/>
  <unicode hex="00B2"/>
  <outline>
    <contour>
      <point x="636" y="1026" type="line"/>
      <point x="636" y="1192" type="line"/>
      <point x="448" y="1192" type="line"/>
      <point x="564" y="1267"/>
      <point x="624" y="1360"/>
      <point x="624" y="1458" type="curve" smooth="yes"/>
      <point x="624" y="1586"/>
      <point x="523" y="1682"/>
      <point x="370" y="1682" type="curve" smooth="yes"/>
      <point x="250" y="1682"/>
      <point x="168" y="1623"/>
      <point x="111" y="1501" type="curve"/>
      <point x="267" y="1420" type="line"/>
      <point x="308" y="1498"/>
      <point x="333" y="1524"/>
      <point x="368" y="1524" type="curve" smooth="yes"/>
      <point x="400" y="1524"/>
      <point x="421" y="1502"/>
      <point x="421" y="1467" type="curve" smooth="yes"/>
      <point x="421" y="1391"/>
      <point x="318" y="1277"/>
      <point x="112" y="1125" type="curve"/>
      <point x="112" y="1026" type="line"/>
    </contour>
  </outline>
</glyph>
<glyph name="threesuperior" format="2">
  <advance width="753"/>
  <unicode hex="00B3"/>
  <outline>
    <contour>
      <point x="380" y="1026" type="curve" smooth="yes"/>
      <point x="520" y="1026"/>
      <point x="638" y="1086"/>
      <point x="638" y="1224" type="curve" smooth="yes"/>
      <point x="638" y="1293"/>
      <point x="609" y="1348"/>
      <point x="552" y="1385" type="curve"/>
      <point x="590" y="1431"/>
      <point x="607" y="1480"/>
      <point x="607" y="1526" type="curve" smooth="yes"/>
      <point x="607" y="1633"/>
      <point x="515" y="1680"/>
      <point x="381" y="1680" type="curve" smooth="yes"/>
      <point x="249" y="1680"/>
      <point x="182" y="1634"/>
      <point x="140" y="1549" type="curve"/>
      <point x="286" y="1475" type="line"/>
      <point x="296" y="1509"/>
      <point x="327" y="1533"/>
      <point x="363" y="1533" type="curve" smooth="yes"/>
      <point x="395" y="1533"/>
      <point x="420" y="1514"/>
      <point x="420" y="1489" type="curve" smooth="yes"/>
      <point x="420" y="1458"/>
      <point x="383" y="1431"/>
      <point x="351" y="1431" type="curve" smooth="yes"/>
      <point x="315" y="1431" type="line"/>
      <point x="315" y="1312" type="line"/>
      <point x="326" y="1316"/>
      <point x="334" y="1317"/>
      <point x="344" y="1317" type="curve" smooth="yes"/>
      <point x="397" y="1317"/>
      <point x="435" y="1288"/>
      <point x="435" y="1242" type="curve" smooth="yes"/>
      <point x="435" y="1204"/>
      <point x="408" y="1184"/>
      <point x="370" y="1184" type="curve" smooth="yes"/>
      <point x="322" y="1184"/>
      <point x="290" y="1215"/>
      <point x="283" y="1264" type="curve"/>
      <point x="111" y="1176" type="line"/>
      <point x="160" y="1077"/>
      <point x="250" y="1026"/>
    </contour>
  </outline>
</glyph>
<glyph name="micro" format="2">
  <advance width="1616"/>
  <unicode hex="00B5"/>
  <outline>
    <contour>
      <point x="665" y="-320" type="line"/>
      <point x="665" y="-30" type="line"/>
      <point x="681" y="-31"/>
      <point x="699" y="-32"/>
      <point x="711" y="-32" type="curve" smooth="yes"/>
      <point x="812" y="-32"/>
      <point x="924" y="17"/>
      <point x="1003" y="96" type="curve"/>
      <point x="1003" y="0" type="line" name=".hr01"/>
      <point x="1419" y="0" type="line"/>
      <point x="1419" y="1024" type="line"/>
      <point x="1003" y="1024" type="line"/>
      <point x="1003" y="468" type="line" smooth="yes"/>
      <point x="1003" y="373"/>
      <point x="918" y="290" name=".hr02"/>
      <point x="819" y="290" type="curve" smooth="yes"/>
      <point x="730" y="290"/>
      <point x="667" y="357"/>
      <point x="667" y="452" type="curve" smooth="yes"/>
      <point x="667" y="1024" type="line"/>
      <point x="251" y="1024" type="line"/>
      <point x="251" y="412" type="line" smooth="yes"/>
      <point x="251" y="66"/>
      <point x="185" y="-120"/>
      <point x="185" y="-320" type="curve"/>
    </contour>
  </outline>
</glyph>
<glyph name="paragraph" format="2">
  <advance width="1623"/>
  <unicode hex="00B6"/>
  <outline>
    <contour>
      <point x="1016" y="0" type="line"/>
      <point x="1016" y="1410" type="line"/>
      <point x="1152" y="1410" type="line"/>
      <point x="1152" y="0" type="line"/>
      <point x="1388" y="0" type="line"/>
      <point x="1388" y="1650" type="line"/>
      <point x="588" y="1650" type="line" smooth="yes"/>
      <point x="266" y="1650"/>
      <point x="62" y="1414"/>
      <point x="62" y="1130" type="curve" smooth="yes"/>
      <point x="62" y="848"/>
      <point x="266" y="588"/>
      <point x="588" y="588" type="curve" smooth="yes"/>
      <point x="780" y="588" type="line"/>
      <point x="780" y="0" type="line"/>
    </contour>
  </outline>
</glyph>
<glyph name="onesuperior" format="2">
  <advance width="535"/>
  <unicode hex="00B9"/>
  <outline>
    <contour>
      <point x="420" y="1026" type="line"/>
      <point x="420" y="1650" type="line"/>
      <point x="111" y="1650" type="line"/>
      <point x="111" y="1469" type="line"/>
      <point x="236" y="1469" type="line"/>
      <point x="236" y="1026" type="line"/>
    </contour>
  </outline>
</glyph>
<glyph name="ordmasculine" format="2">
  <advance width="934"/>
  <unicode hex="00BA"/>
  <outline>
    <contour>
      <point x="466" y="1004" type="curve" smooth="yes"/>
      <point x="680" y="1004"/>
      <point x="844" y="1144"/>
      <point x="844" y="1342" type="curve" smooth="yes"/>
      <point x="844" y="1540"/>
      <point x="680" y="1680"/>
      <point x="466" y="1680" type="curve" smooth="yes"/>
      <point x="252" y="1680"/>
      <point x="88" y="1540"/>
      <point x="88" y="1342" type="curve" smooth="yes"/>
      <point x="88" y="1144"/>
      <point x="252" y="1004"/>
    </contour>
    <contour>
      <point x="466" y="1220" type="curve" smooth="yes"/>
      <point x="406" y="1220"/>
      <point x="360" y="1270"/>
      <point x="360" y="1342" type="curve" smooth="yes"/>
      <point x="360" y="1414"/>
      <point x="406" y="1464"/>
      <point x="466" y="1464" type="curve" smooth="yes"/>
      <point x="526" y="1464"/>
      <point x="572" y="1414"/>
      <point x="572" y="1342" type="curve" smooth="yes"/>
      <point x="572" y="1270"/>
      <point x="526" y="1220"/>
    </contour>
  </outline>
</glyph>
<glyph name="AE" format="2">
  <advance width="1979"/>
  <unicode hex="00C6"/>
  <outline>
    <contour>
      <point x="835" y="1052" type="line"/>
      <point x="835" y="660" type="line"/>
      <point x="682" y="660" type="line"/>
    </contour>
    <contour>
      <point x="631" y="1650" type="line"/>
      <point x="-41" y="0" type="line"/>
      <point x="433" y="0" type="line"/>
      <point x="532" y="274" type="line"/>
      <point x="835" y="274" type="line"/>
      <point x="835" y="0" type="line"/>
      <point x="1811" y="0" type="line"/>
      <point x="1811" y="386" type="line" name=".hr01"/>
      <point x="1275" y="386" type="line"/>
      <point x="1275" y="634" type="line"/>
      <point x="1787" y="634" type="line"/>
      <point x="1787" y="1020" type="line"/>
      <point x="1275" y="1020" type="line"/>
      <point x="1275" y="1264" type="line"/>
      <point x="1811" y="1264" type="line"/>
      <point x="1811" y="1650" type="line"/>
    </contour>
  </outline>
</glyph>
<glyph name="Eth" format="2">
  <advance width="1645"/>
  <unicode hex="00D0"/>
  <outline>
    <component base="D" xOffset="51"/>
    <contour>
      <point x="83" y="1004" type="line"/>
      <point x="83" y="646" type="line"/>
      <point x="841" y="646" type="line"/>
      <point x="841" y="1004" type="line"/>
    </contour>
  </outline>
</glyph>
<glyph name="multiply" format="2">
  <advance width="1276"/>
  <unicode hex="00D7"/>
  <outline>
    <contour>
      <point x="638" y="576" type="line"/>
      <point x="924" y="292" type="line"/>
      <point x="1176" y="542" type="line"/>
      <point x="890" y="830" type="line"/>
      <point x="1176" y="1118" type="line"/>
      <point x="924" y="1368" type="line"/>
      <point x="638" y="1084" type="line"/>
      <point x="352" y="1368" type="line"/>
      <point x="100" y="1118" type="line"/>
      <point x="386" y="830" type="line"/>
      <point x="100" y="542" type="line"/>
      <point x="352" y="292" type="line"/>
    </contour>
  </outline>
</glyph>
<glyph name="Oslash" format="2">
  <advance width="1788"/>
  <unicode hex="00D8"/>
  <outline>
    <component base="O"/>
    <contour>
      <point x="1658" y="1518" type="line"/>
      <point x="1398" y="1718" type="line"/>
      <point x="144" y="155" type="line"/>
      <point x="404" y="-35" type="line"/>
    </contour>
  </outline>
</glyph>
<glyph name="Thorn" format="2">
  <advance width="1448"/>
  <unicode hex="00DE"/>
  <anchor x="724" y="0" name="bottom"/>
  <anchor x="724" y="1650" name="top"/>
  <outline>
    <contour>
      <point x="636" y="0" type="line"/>
      <point x="636" y="296" type="line"/>
      <point x="848" y="296" type="line" smooth="yes"/>
      <point x="1168" y="296"/>
      <point x="1422" y="472"/>
      <point x="1422" y="827" type="curve" smooth="yes"/>
      <point x="1422" y="1182"/>
      <point x="1168" y="1358"/>
      <point x="848" y="1358" type="curve" smooth="yes"/>
      <point x="636" y="1358" type="line"/>
      <point x="636" y="1650" type="line"/>
      <point x="196" y="1650" type="line"/>
      <point x="196" y="0" type="line"/>
    </contour>
    <contour>
      <point x="636" y="1008" type="line"/>
      <point x="704" y="1008" type="line" smooth="yes"/>
      <point x="822" y="1008"/>
      <point x="958" y="983"/>
      <point x="958" y="827" type="curve" smooth="yes"/>
      <point x="958" y="673"/>
      <point x="822" y="646"/>
      <point x="704" y="646" type="curve" smooth="yes"/>
      <point x="636" y="646" type="line"/>
    </contour>
  </outline>
</glyph>
<glyph name="germandbls" format="2">
  <advance width="1399"/>
  <unicode hex="00DF"/>
  <anchor x="703" y="0" name="bottom"/>
  <anchor x="703" y="1024" name="top"/>
  <outline>
    <contour>
      <point x="737" y="-32" type="line"/>
      <point x="1090" y="-24"/>
      <point x="1333" y="201"/>
      <point x="1333" y="520" type="curve" smooth="yes"/>
      <point x="1333" y="704"/>
      <point x="1249" y="837"/>
      <point x="1081" y="920" type="curve"/>
      <point x="1207" y="998"/>
      <point x="1267" y="1105"/>
      <point x="1267" y="1253" type="curve" smooth="yes"/>
      <point x="1267" y="1537"/>
      <point x="1043" y="1750"/>
      <point x="743" y="1750" type="curve" smooth="yes"/>
      <point x="439" y="1750"/>
      <point x="213" y="1527"/>
      <point x="213" y="1228" type="curve" smooth="yes"/>
      <point x="213" y="942" type="line"/>
      <point x="81" y="942" type="line"/>
      <point x="81" y="628" type="line"/>
      <point x="213" y="628" type="line"/>
      <point x="213" y="0" type="line" name=".hr01"/>
      <point x="627" y="0" type="line"/>
      <point x="627" y="1244" type="line" smooth="yes"/>
      <point x="627" y="1348"/>
      <point x="666" y="1404"/>
      <point x="738" y="1404" type="curve" smooth="yes"/>
      <point x="820" y="1404"/>
      <point x="877" y="1338"/>
      <point x="877" y="1243" type="curve" smooth="yes"/>
      <point x="877" y="1140"/>
      <point x="820" y="1068"/>
      <point x="737" y="1068" type="curve"/>
      <point x="736" y="1068" type="line"/>
      <point x="736" y="756" type="line"/>
      <point x="737" y="756" type="line"/>
      <point x="832" y="756"/>
      <point x="893" y="675"/>
      <point x="893" y="551" type="curve" smooth="yes"/>
      <point x="893" y="429"/>
      <point x="830" y="346" name=".hr02"/>
      <point x="737" y="346" type="curve"/>
      <point x="736" y="346" type="line"/>
      <point x="736" y="-32" type="line"/>
    </contour>
  </outline>
</glyph>
<glyph name="ae" format="2">
  <advance width="1932"/>
  <unicode hex="00E6"/>
  <outline>
    <contour>
      <point x="447" y="-32" type="curve" smooth="yes"/>
      <point x="561" y="-32"/>
      <point x="677" y="-1"/>
      <point x="921" y="94" type="curve"/>
      <point x="1042" y="7"/>
      <point x="1165" y="-32"/>
      <point x="1315" y="-32" type="curve" smooth="yes"/>
      <point x="1551" y="-32"/>
      <point x="1738" y="65"/>
      <point x="1839" y="240" type="curve"/>
      <point x="1541" y="388" type="line"/>
      <point x="1468" y="317"/>
      <point x="1425" y="296" name=".hr01"/>
      <point x="1350" y="296" type="curve" smooth="yes"/>
      <point x="1227" y="296"/>
      <point x="1157" y="353"/>
      <point x="1157" y="454" type="curve"/>
      <point x="1851" y="454" type="line"/>
      <point x="1854" y="485"/>
      <point x="1855" y="508"/>
      <point x="1855" y="528" type="curve" smooth="yes"/>
      <point x="1855" y="846"/>
      <point x="1636" y="1056"/>
      <point x="1306" y="1056" type="curve" smooth="yes"/>
      <point x="1182" y="1056"/>
      <point x="1067" y="1027"/>
      <point x="961" y="968" type="curve"/>
      <point x="861" y="1024"/>
      <point x="708" y="1056"/>
      <point x="548" y="1056" type="curve" smooth="yes"/>
      <point x="391" y="1056"/>
      <point x="246" y="1025"/>
      <point x="141" y="968" type="curve"/>
      <point x="267" y="684" type="line"/>
      <point x="326" y="707"/>
      <point x="449" y="728"/>
      <point x="522" y="728" type="curve" smooth="yes"/>
      <point x="643" y="728"/>
      <point x="737" y="670"/>
      <point x="737" y="594" type="curve" smooth="yes"/>
      <point x="737" y="534" type="line"/>
      <point x="656" y="572"/>
      <point x="545" y="596" name=".hr02"/>
      <point x="451" y="596" type="curve" smooth="yes"/>
      <point x="227" y="596"/>
      <point x="73" y="466"/>
      <point x="73" y="277" type="curve" smooth="yes"/>
      <point x="73" y="82"/>
      <point x="210" y="-32"/>
    </contour>
    <contour>
      <point x="618" y="214" type="curve" smooth="yes"/>
      <point x="543" y="214"/>
      <point x="485" y="253"/>
      <point x="485" y="302" type="curve" smooth="yes"/>
      <point x="485" y="348"/>
      <point x="538" y="380"/>
      <point x="612" y="380" type="curve" smooth="yes"/>
      <point x="689" y="380"/>
      <point x="751" y="343"/>
      <point x="751" y="296" type="curve" smooth="yes"/>
      <point x="751" y="250" name=".hr03"/>
      <point x="692" y="214"/>
    </contour>
    <contour>
      <point x="1169" y="670" type="line" name=".hr04"/>
      <point x="1171" y="739"/>
      <point x="1223" y="780"/>
      <point x="1311" y="780" type="curve" smooth="yes"/>
      <point x="1393" y="780"/>
      <point x="1436" y="745"/>
      <point x="1449" y="670" type="curve"/>
    </contour>
  </outline>
</glyph>
<glyph name="eth" format="2">
  <advance width="1410"/>
  <unicode hex="00F0"/>
  <outline>
    <contour>
      <point x="695" y="-32" type="curve" smooth="yes"/>
      <point x="1059" y="-32"/>
      <point x="1321" y="196"/>
      <point x="1321" y="512" type="curve" smooth="yes"/>
      <point x="1321" y="1002"/>
      <point x="1033" y="1296"/>
      <point x="767" y="1476" type="curve"/>
      <point x="861" y="1570" type="line"/>
      <point x="687" y="1750" type="line"/>
      <point x="543" y="1608" type="line"/>
      <point x="407" y="1677"/>
      <point x="257" y="1725"/>
      <point x="149" y="1750" type="curve"/>
      <point x="53" y="1402" type="line"/>
      <point x="100" y="1392"/>
      <point x="182" y="1368"/>
      <point x="265" y="1330" type="curve"/>
      <point x="145" y="1212" type="line"/>
      <point x="323" y="1034" type="line"/>
      <point x="491" y="1200" type="line"/>
      <point x="558" y="1160"/>
      <point x="625" y="1118"/>
      <point x="695" y="1070" type="curve"/>
      <point x="687" y="1071"/>
      <point x="673" y="1072"/>
      <point x="663" y="1072" type="curve" smooth="yes"/>
      <point x="413" y="1072"/>
      <point x="63" y="898"/>
      <point x="63" y="512" type="curve" smooth="yes"/>
      <point x="63" y="196"/>
      <point x="313" y="-32"/>
    </contour>
    <contour>
      <point x="693" y="322" type="curve" smooth="yes"/>
      <point x="579" y="322"/>
      <point x="505" y="402"/>
      <point x="505" y="512" type="curve" smooth="yes"/>
      <point x="505" y="626"/>
      <point x="591" y="704"/>
      <point x="693" y="704" type="curve" smooth="yes"/>
      <point x="793" y="704"/>
      <point x="879" y="626"/>
      <point x="879" y="512" type="curve" smooth="yes"/>
      <point x="879" y="402"/>
      <point x="801" y="322"/>
    </contour>
  </outline>
</glyph>
<glyph name="divide" format="2">
  <advance width="1210"/>
  <unicode hex="00F7"/>
  <outline>
    <contour>
      <point x="91" y="650" type="line"/>
      <point x="1119" y="650" type="line"/>
      <point x="1119" y="1010" type="line"/>
      <point x="91" y="1010" type="line"/>
    </contour>
    <contour>
      <point x="605" y="206" type="curve" smooth="yes"/>
      <point x="705" y="206"/>
      <point x="787" y="288"/>
      <point x="787" y="394" type="curve" smooth="yes"/>
      <point x="787" y="500"/>
      <point x="705" y="582"/>
      <point x="605" y="582" type="curve" smooth="yes"/>
      <point x="505" y="582"/>
      <point x="423" y="500"/>
      <point x="423" y="394" type="curve" smooth="yes"/>
      <point x="423" y="288"/>
      <point x="505" y="206"/>
    </contour>
    <contour>
      <point x="605" y="1078" type="curve" smooth="yes"/>
      <point x="705" y="1078"/>
      <point x="787" y="1160"/>
      <point x="787" y="1266" type="curve" smooth="yes"/>
      <point x="787" y="1372"/>
      <point x="705" y="1454"/>
      <point x="605" y="1454" type="curve" smooth="yes"/>
      <point x="505" y="1454"/>
      <point x="423" y="1372"/>
      <point x="423" y="1266" type="curve" smooth="yes"/>
      <point x="423" y="1160"/>
      <point x="505" y="1078"/>
    </contour>
  </outline>
</glyph>
<glyph name="oslash" format="2">
  <advance width="1366"/>
  <unicode hex="00F8"/>
  <outline>
    <component base="o"/>
    <contour>
      <point x="323" y="-32" type="line"/>
      <point x="1215" y="1056" type="line"/>
      <point x="1043" y="1056" type="line"/>
      <point x="151" y="-32" type="line"/>
    </contour>
  </outline>
</glyph>
<glyph name="thorn" format="2">
  <advance width="1465"/>
  <unicode hex="00FE"/>
  <anchor x="744" y="0" name="bottom"/>
  <anchor x="744" y="1024" name="top"/>
  <outline>
    <contour>
      <point x="565" y="512" type="curve" smooth="yes"/>
      <point x="565" y="623"/>
      <point x="646" y="704"/>
      <point x="757" y="704" type="curve" smooth="yes"/>
      <point x="868" y="704"/>
      <point x="951" y="623"/>
      <point x="951" y="512" type="curve" smooth="yes"/>
      <point x="951" y="401"/>
      <point x="868" y="320"/>
      <point x="757" y="320" type="curve" smooth="yes"/>
      <point x="646" y="320"/>
      <point x="565" y="401"/>
    </contour>
    <contour>
      <point x="157" y="1720" type="line"/>
      <point x="157" y="-520" type="line"/>
      <point x="573" y="-520" type="line"/>
      <point x="573" y="80" type="line"/>
      <point x="664" y="5"/>
      <point x="767" y="-32"/>
      <point x="885" y="-32" type="curve" smooth="yes"/>
      <point x="1183" y="-32"/>
      <point x="1391" y="209"/>
      <point x="1391" y="514" type="curve" smooth="yes"/>
      <point x="1391" y="819"/>
      <point x="1183" y="1056"/>
      <point x="885" y="1056" type="curve" smooth="yes"/>
      <point x="767" y="1056"/>
      <point x="664" y="1019"/>
      <point x="573" y="944" type="curve"/>
      <point x="573" y="1720" type="line"/>
    </contour>
  </outline>
</glyph>
<glyph name="dcroat" format="2">
  <advance width="1566"/>
  <unicode hex="0111"/>
  <outline>
    <component base="d"/>
    <contour>
      <point x="685" y="1502" type="line"/>
      <point x="685" y="1238" type="line"/>
      <point x="1409" y="1238" type="line"/>
      <point x="1409" y="1502" type="line"/>
    </contour>
  </outline>
</glyph>
<glyph name="eogonek" format="2">
  <advance width="1264"/>
  <unicode hex="0119"/>
  <anchor x="682" y="0" name="bottom"/>
  <anchor x="713" y="0" name="ogonek"/>
  <anchor x="639" y="1056" name="top"/>
  <anchor x="713" y="0" name="_ogonek"/>
  <outline>
    <contour>
      <point x="658" y="-32" type="curve" smooth="yes"/>
      <point x="732" y="-32"/>
      <point x="802" y="-21"/>
      <point x="866" y="0" type="curve"/>
      <point x="760" y="0" type="line"/>
      <point x="652" y="-124"/>
      <point x="593" y="-241"/>
      <point x="593" y="-332" type="curve" smooth="yes"/>
      <point x="593" y="-456"/>
      <point x="701" y="-557"/>
      <point x="845" y="-557" type="curve" smooth="yes"/>
      <point x="952" y="-557"/>
      <point x="1058" y="-502"/>
      <point x="1119" y="-413" type="curve"/>
      <point x="953" y="-289" type="line"/>
      <point x="937" y="-318"/>
      <point x="908" y="-337"/>
      <point x="880" y="-337" type="curve" smooth="yes"/>
      <point x="847" y="-337"/>
      <point x="829" y="-312"/>
      <point x="829" y="-267" type="curve" smooth="yes"/>
      <point x="829" y="-168"/>
      <point x="918" y="1"/>
      <point x="1031" y="84" type="curve" smooth="yes"/>
      <point x="1089" y="126"/>
      <point x="1136" y="178"/>
      <point x="1171" y="240" type="curve"/>
      <point x="873" y="388" type="line"/>
      <point x="801" y="318"/>
      <point x="756" y="296"/>
      <point x="682" y="296" type="curve" smooth="yes"/>
      <point x="561" y="296"/>
      <point x="489" y="355"/>
      <point x="489" y="454" type="curve"/>
      <point x="1183" y="454" type="line"/>
      <point x="1186" y="488"/>
      <point x="1187" y="508"/>
      <point x="1187" y="529" type="curve" smooth="yes"/>
      <point x="1187" y="842"/>
      <point x="969" y="1056"/>
      <point x="650" y="1056" type="curve" smooth="yes"/>
      <point x="315" y="1056"/>
      <point x="59" y="821"/>
      <point x="59" y="514" type="curve" smooth="yes"/>
      <point x="59" y="204"/>
      <point x="318" y="-32"/>
    </contour>
    <contour>
      <point x="501" y="650" type="line"/>
      <point x="502" y="727"/>
      <point x="551" y="770"/>
      <point x="639" y="770" type="curve" smooth="yes"/>
      <point x="722" y="770"/>
      <point x="768" y="732"/>
      <point x="781" y="650" type="curve"/>
    </contour>
  </outline>
</glyph>
<glyph name="Hbar" format="2">
  <advance width="1696"/>
  <unicode hex="0126"/>
  <outline>
    <contour>
      <point x="636" y="0" type="line"/>
      <point x="636" y="580" type="line"/>
      <point x="1060" y="580" type="line"/>
      <point x="1060" y="0" type="line"/>
      <point x="1500" y="0" type="line"/>
      <point x="1500" y="1650" type="line"/>
      <point x="1060" y="1650" type="line"/>
      <point x="1060" y="874" type="line"/>
      <point x="636" y="874" type="line"/>
      <point x="636" y="1650" type="line"/>
      <point x="196" y="1650" type="line"/>
      <point x="196" y="0" type="line"/>
    </contour>
    <contour>
      <point x="1630" y="1064" type="line"/>
      <point x="1630" y="1358" type="line"/>
      <point x="66" y="1358" type="line"/>
      <point x="66" y="1064" type="line"/>
    </contour>
  </outline>
</glyph>
<glyph name="hbar" format="2">
  <advance width="1461"/>
  <unicode hex="0127"/>
  <outline>
    <component base="h"/>
    <contour>
      <point x="800" y="1218" type="line"/>
      <point x="800" y="1464" type="line"/>
      <point x="20" y="1464" type="line"/>
      <point x="20" y="1218" type="line"/>
    </contour>
  </outline>
</glyph>
<glyph name="idotless" format="2">
  <advance width="730"/>
  <unicode hex="0131"/>
  <anchor x="365" y="0" name="bottom"/>
  <anchor x="573" y="0" name="ogonek"/>
  <anchor x="365" y="1024" name="top"/>
  <outline>
    <contour>
      <point x="573" y="0" type="line"/>
      <point x="573" y="1024" type="line"/>
      <point x="157" y="1024" type="line"/>
      <point x="157" y="0" type="line"/>
    </contour>
  </outline>
</glyph>
<glyph name="Lslash" format="2">
  <advance width="1202"/>
  <unicode hex="0141"/>
  <outline>
    <component base="L" xOffset="45"/>
    <contour>
      <point x="889" y="1104" type="line"/>
      <point x="889" y="1462" type="line"/>
      <point x="93" y="836" type="line"/>
      <point x="93" y="478" type="line"/>
    </contour>
  </outline>
</glyph>
<glyph name="lslash" format="2">
  <advance width="1018"/>
  <unicode hex="0142"/>
  <outline>
    <component base="l" xOffset="144"/>
    <contour>
      <point x="861" y="1006" type="line"/>
      <point x="861" y="1364" type="line"/>
      <point x="157" y="812" type="line"/>
      <point x="157" y="454" type="line"/>
    </contour>
  </outline>
</glyph>
<glyph name="Eng" format="2">
  <advance width="1845"/>
  <unicode hex="014A"/>
  <outline>
    <contour>
      <point x="196" y="1650" type="line"/>
      <point x="196" y="0" type="line"/>
      <point x="636" y="0" type="line"/>
      <point x="636" y="920" type="line"/>
      <point x="1228" y="0" type="line"/>
      <point x="1228" y="-1" type="line"/>
      <point x="1228" y="-57"/>
      <point x="1177" y="-129"/>
      <point x="1098" y="-129" type="curve" smooth="yes"/>
      <point x="1053" y="-129"/>
      <point x="990" y="-106"/>
      <point x="930" y="-47" type="curve"/>
      <point x="690" y="-311" type="line"/>
      <point x="831" y="-478"/>
      <point x="978" y="-551"/>
      <point x="1175" y="-551" type="curve" smooth="yes"/>
      <point x="1482" y="-551"/>
      <point x="1668" y="-371"/>
      <point x="1668" y="-55" type="curve" smooth="yes"/>
      <point x="1668" y="1650" type="line"/>
      <point x="1228" y="1650" type="line"/>
      <point x="1228" y="730" type="line"/>
      <point x="636" y="1650" type="line"/>
    </contour>
  </outline>
</glyph>
<glyph name="eng" format="2">
  <advance width="1450"/>
  <unicode hex="014B"/>
  <outline>
    <contour>
      <point x="157" y="1024" type="line"/>
      <point x="157" y="0" type="line"/>
      <point x="573" y="0" type="line"/>
      <point x="573" y="564" type="line" smooth="yes"/>
      <point x="573" y="667"/>
      <point x="640" y="734" name=".hr01"/>
      <point x="741" y="734" type="curve" smooth="yes"/>
      <point x="842" y="734"/>
      <point x="909" y="667"/>
      <point x="909" y="564" type="curve" smooth="yes"/>
      <point x="909" y="-56" type="line" smooth="yes"/>
      <point x="909" y="-119"/>
      <point x="885" y="-176"/>
      <point x="817" y="-176" type="curve" smooth="yes"/>
      <point x="795" y="-176"/>
      <point x="771" y="-170"/>
      <point x="747" y="-148" type="curve"/>
      <point x="551" y="-422" type="line"/>
      <point x="626" y="-497"/>
      <point x="759" y="-550"/>
      <point x="908" y="-550" type="curve" smooth="yes"/>
      <point x="1170" y="-550"/>
      <point x="1325" y="-386"/>
      <point x="1325" y="-138" type="curve" smooth="yes"/>
      <point x="1325" y="654" type="line" smooth="yes"/>
      <point x="1325" y="883"/>
      <point x="1148" y="1056"/>
      <point x="915" y="1056" type="curve" smooth="yes"/>
      <point x="792" y="1056"/>
      <point x="667" y="1009"/>
      <point x="573" y="928" type="curve"/>
      <point x="573" y="1024" type="line" name=".hr02"/>
    </contour>
  </outline>
</glyph>
<glyph name="OE" format="2">
  <advance width="2162"/>
  <unicode hex="0152"/>
  <outline>
    <contour>
      <point x="1994" y="0" type="line"/>
      <point x="1994" y="386" type="line"/>
      <point x="1458" y="386" type="line"/>
      <point x="1458" y="634" type="line"/>
      <point x="1970" y="634" type="line"/>
      <point x="1970" y="1020" type="line"/>
      <point x="1458" y="1020" type="line"/>
      <point x="1458" y="1264" type="line"/>
      <point x="1994" y="1264" type="line"/>
      <point x="1994" y="1650" type="line"/>
      <point x="1104" y="1650" type="line" smooth="yes"/>
      <point x="401" y="1650"/>
      <point x="62" y="1312"/>
      <point x="62" y="825" type="curve" smooth="yes"/>
      <point x="62" y="338"/>
      <point x="401" y="0"/>
      <point x="1104" y="0" type="curve" smooth="yes"/>
    </contour>
    <contour>
      <point x="1018" y="392" type="line"/>
      <point x="715" y="392"/>
      <point x="536" y="550"/>
      <point x="536" y="825" type="curve" smooth="yes"/>
      <point x="536" y="1100"/>
      <point x="715" y="1258"/>
      <point x="1018" y="1258" type="curve"/>
    </contour>
  </outline>
</glyph>
<glyph name="oe" format="2">
  <advance width="2060"/>
  <unicode hex="0153"/>
  <anchor x="1028" y="0" name="bottom"/>
  <anchor x="1028" y="1024" name="top"/>
  <outline>
    <contour>
      <point x="663" y="-32" type="curve" smooth="yes"/>
      <point x="827" y="-32"/>
      <point x="957" y="16"/>
      <point x="1045" y="108" type="curve"/>
      <point x="1162" y="11"/>
      <point x="1283" y="-32"/>
      <point x="1441" y="-32" type="curve" smooth="yes"/>
      <point x="1678" y="-32"/>
      <point x="1865" y="65"/>
      <point x="1967" y="240" type="curve"/>
      <point x="1669" y="388" type="line"/>
      <point x="1596" y="317"/>
      <point x="1553" y="296" name=".hr01"/>
      <point x="1478" y="296" type="curve" smooth="yes"/>
      <point x="1355" y="296"/>
      <point x="1285" y="353"/>
      <point x="1285" y="454" type="curve"/>
      <point x="1979" y="454" type="line"/>
      <point x="1983" y="508"/>
      <point x="1983" y="511"/>
      <point x="1983" y="528" type="curve" smooth="yes"/>
      <point x="1983" y="844"/>
      <point x="1764" y="1056"/>
      <point x="1437" y="1056" type="curve" smooth="yes"/>
      <point x="1286" y="1056"/>
      <point x="1160" y="1011"/>
      <point x="1045" y="916" type="curve"/>
      <point x="952" y="1009"/>
      <point x="823" y="1056"/>
      <point x="662" y="1056" type="curve" smooth="yes"/>
      <point x="309" y="1056"/>
      <point x="59" y="830"/>
      <point x="59" y="512" type="curve" smooth="yes"/>
      <point x="59" y="193"/>
      <point x="309" y="-32"/>
    </contour>
    <contour>
      <point x="683" y="320" type="curve" smooth="yes"/>
      <point x="576" y="320"/>
      <point x="495" y="403"/>
      <point x="495" y="512" type="curve" smooth="yes"/>
      <point x="495" y="621"/>
      <point x="576" y="704"/>
      <point x="683" y="704" type="curve" smooth="yes"/>
      <point x="790" y="704"/>
      <point x="871" y="621"/>
      <point x="871" y="512" type="curve" smooth="yes"/>
      <point x="871" y="403"/>
      <point x="790" y="320"/>
    </contour>
    <contour>
      <point x="1297" y="670" type="line"/>
      <point x="1299" y="739"/>
      <point x="1351" y="780"/>
      <point x="1439" y="780" type="curve" smooth="yes"/>
      <point x="1521" y="780" name=".hr02"/>
      <point x="1564" y="745"/>
      <point x="1577" y="670" type="curve"/>
    </contour>
  </outline>
</glyph>
<glyph name="Tbar" format="2">
  <advance width="1138"/>
  <unicode hex="0166"/>
  <outline>
    <component base="T"/>
    <contour>
      <point x="959" y="764" type="line"/>
      <point x="959" y="1058" type="line"/>
      <point x="179" y="1058" type="line"/>
      <point x="179" y="764" type="line"/>
    </contour>
  </outline>
</glyph>
<glyph name="tbar" format="2">
  <advance width="940"/>
  <unicode hex="0167"/>
  <outline>
    <contour>
      <point x="577" y="-32" type="curve" smooth="yes"/>
      <point x="679" y="-32"/>
      <point x="795" y="-3"/>
      <point x="882" y="45" type="curve"/>
      <point x="742" y="357" type="line"/>
      <point x="722" y="346"/>
      <point x="702" y="340"/>
      <point x="681" y="340" type="curve" smooth="yes"/>
      <point x="638" y="340"/>
      <point x="616" y="367"/>
      <point x="616" y="420" type="curve" smooth="yes"/>
      <point x="616" y="608" type="line"/>
      <point x="820" y="608" type="line"/>
      <point x="820" y="824" type="line"/>
      <point x="616" y="824" type="line"/>
      <point x="616" y="908" type="line"/>
      <point x="820" y="908" type="line"/>
      <point x="820" y="1124" type="line"/>
      <point x="616" y="1124" type="line"/>
      <point x="616" y="1408" type="line"/>
      <point x="200" y="1408" type="line"/>
      <point x="200" y="1124" type="line"/>
      <point x="40" y="1124" type="line"/>
      <point x="40" y="908" type="line"/>
      <point x="200" y="908" type="line"/>
      <point x="200" y="824" type="line"/>
      <point x="40" y="824" type="line"/>
      <point x="40" y="608" type="line"/>
      <point x="200" y="608" type="line"/>
      <point x="200" y="388" type="line" smooth="yes"/>
      <point x="200" y="124"/>
      <point x="340" y="-32"/>
    </contour>
  </outline>
</glyph>
<glyph name="Uogonek" format="2">
  <advance width="1662"/>
  <unicode hex="0172"/>
  <outline>
    <contour>
      <point x="831" y="-32" type="curve" smooth="yes"/>
      <point x="930" y="-32"/>
      <point x="1018" y="-21"/>
      <point x="1096" y="0" type="curve"/>
      <point x="1008" y="0" type="line"/>
      <point x="900" y="-124"/>
      <point x="841" y="-241"/>
      <point x="841" y="-332" type="curve" smooth="yes"/>
      <point x="841" y="-456"/>
      <point x="949" y="-557"/>
      <point x="1093" y="-557" type="curve" smooth="yes"/>
      <point x="1200" y="-557"/>
      <point x="1306" y="-502"/>
      <point x="1367" y="-413" type="curve"/>
      <point x="1201" y="-289" type="line"/>
      <point x="1185" y="-318"/>
      <point x="1156" y="-337"/>
      <point x="1128" y="-337" type="curve" smooth="yes"/>
      <point x="1095" y="-337"/>
      <point x="1077" y="-312"/>
      <point x="1077" y="-267" type="curve" smooth="yes"/>
      <point x="1077" y="-167"/>
      <point x="1168" y="4"/>
      <point x="1282" y="86" type="curve" smooth="yes"/>
      <point x="1424" y="188"/>
      <point x="1497" y="354"/>
      <point x="1497" y="582" type="curve" smooth="yes"/>
      <point x="1497" y="1650" type="line"/>
      <point x="1057" y="1650" type="line"/>
      <point x="1057" y="714" type="line" smooth="yes"/>
      <point x="1057" y="476"/>
      <point x="1002" y="400"/>
      <point x="831" y="400" type="curve" smooth="yes"/>
      <point x="660" y="400"/>
      <point x="605" y="476"/>
      <point x="605" y="714" type="curve" smooth="yes"/>
      <point x="605" y="1650" type="line"/>
      <point x="165" y="1650" type="line"/>
      <point x="165" y="582" type="line" smooth="yes"/>
      <point x="165" y="178"/>
      <point x="393" y="-32"/>
    </contour>
  </outline>
</glyph>
<glyph name="uogonek" format="2">
  <advance width="1440"/>
  <unicode hex="0173"/>
  <outline>
    <contour>
      <point x="720" y="-32" type="curve" smooth="yes"/>
      <point x="826" y="-32"/>
      <point x="916" y="-21"/>
      <point x="992" y="0" type="curve"/>
      <point x="892" y="0" type="line"/>
      <point x="784" y="-124"/>
      <point x="725" y="-241"/>
      <point x="725" y="-332" type="curve" smooth="yes"/>
      <point x="725" y="-456"/>
      <point x="833" y="-557"/>
      <point x="977" y="-557" type="curve" smooth="yes"/>
      <point x="1084" y="-557"/>
      <point x="1190" y="-502"/>
      <point x="1251" y="-413" type="curve"/>
      <point x="1085" y="-289" type="line"/>
      <point x="1069" y="-318"/>
      <point x="1040" y="-337"/>
      <point x="1012" y="-337" type="curve" smooth="yes"/>
      <point x="979" y="-337"/>
      <point x="961" y="-312"/>
      <point x="961" y="-267" type="curve" smooth="yes"/>
      <point x="961" y="-170"/>
      <point x="1047" y="-5"/>
      <point x="1156" y="79" type="curve" smooth="yes"/>
      <point x="1263" y="163"/>
      <point x="1312" y="293"/>
      <point x="1312" y="474" type="curve" smooth="yes"/>
      <point x="1312" y="1024" type="line"/>
      <point x="896" y="1024" type="line"/>
      <point x="896" y="578" type="line" smooth="yes"/>
      <point x="896" y="390"/>
      <point x="850" y="304"/>
      <point x="720" y="304" type="curve" smooth="yes"/>
      <point x="590" y="304"/>
      <point x="544" y="390"/>
      <point x="544" y="578" type="curve" smooth="yes"/>
      <point x="544" y="1024" type="line"/>
      <point x="128" y="1024" type="line"/>
      <point x="128" y="474" type="line" smooth="yes"/>
      <point x="128" y="132"/>
      <point x="303" y="-32"/>
    </contour>
  </outline>
</glyph>
<glyph name="florin" format="2">
  <advance width="978"/>
  <unicode hex="0192"/>
  <outline>
    <contour>
      <point x="109" y="-551" type="curve" smooth="yes"/>
      <point x="376" y="-551"/>
      <point x="567" y="-337"/>
      <point x="596" y="-3" type="curve" smooth="yes"/>
      <point x="658" y="708" type="line"/>
      <point x="886" y="708" type="line"/>
      <point x="914" y="1024" type="line"/>
      <point x="686" y="1024" type="line"/>
      <point x="700" y="1188" type="line" smooth="yes"/>
      <point x="712" y="1339"/>
      <point x="738" y="1382"/>
      <point x="815" y="1382" type="curve" smooth="yes"/>
      <point x="848" y="1382"/>
      <point x="886" y="1373"/>
      <point x="913" y="1358" type="curve"/>
      <point x="1083" y="1648" type="line"/>
      <point x="1008" y="1711"/>
      <point x="889" y="1750"/>
      <point x="773" y="1750" type="curve" smooth="yes"/>
      <point x="506" y="1750"/>
      <point x="316" y="1536"/>
      <point x="286" y="1202" type="curve" smooth="yes"/>
      <point x="270" y="1024" type="line"/>
      <point x="110" y="1024" type="line"/>
      <point x="82" y="708" type="line"/>
      <point x="242" y="708" type="line"/>
      <point x="182" y="11" type="line" smooth="yes"/>
      <point x="169" y="-140"/>
      <point x="144" y="-183"/>
      <point x="67" y="-183" type="curve" smooth="yes"/>
      <point x="34" y="-183"/>
      <point x="-4" y="-174"/>
      <point x="-31" y="-159" type="curve"/>
      <point x="-201" y="-449" type="line"/>
      <point x="-126" y="-512"/>
      <point x="-7" y="-551"/>
    </contour>
  </outline>
</glyph>
<glyph name="gravecomb" format="2">
  <advance width="652"/>
  <unicode hex="0300"/>
  <anchor x="410" y="1024" name="_top"/>
  <anchor x="326" y="1680" name="top"/>
  <outline>
    <contour>
      <point x="637" y="1299" type="line"/>
      <point x="189" y="1679" type="line"/>
      <point x="17" y="1392" type="line"/>
      <point x="512" y="1120" type="line"/>
    </contour>
  </outline>
</glyph>
<glyph name="acutecomb" format="2">
  <advance width="603"/>
  <unicode hex="0301"/>
  <anchor x="242" y="1024" name="_top"/>
  <anchor x="242" y="1698" name="top"/>
  <outline>
    <contour>
      <point x="-34" y="1299" type="line"/>
      <point x="91" y="1120" type="line"/>
      <point x="586" y="1392" type="line"/>
      <point x="414" y="1679" type="line"/>
    </contour>
  </outline>
</glyph>
<glyph name="circumflexcomb" format="2">
  <advance width="924"/>
  <unicode hex="0302"/>
  <anchor x="462" y="1024" name="_top"/>
  <anchor x="462" y="1680" name="top"/>
  <outline>
    <contour>
      <point x="462" y="1354" type="line"/>
      <point x="768" y="1130" type="line"/>
      <point x="924" y="1340" type="line"/>
      <point x="462" y="1680" type="line"/>
      <point x="0" y="1340" type="line"/>
      <point x="156" y="1130" type="line"/>
    </contour>
  </outline>
</glyph>
<glyph name="tildecomb" format="2">
  <advance width="1122"/>
  <unicode hex="0303"/>
  <anchor x="561" y="1024" name="_top"/>
  <anchor x="561" y="1582" name="top"/>
  <outline>
    <contour>
      <point x="0" y="1305" type="curve"/>
      <point x="212" y="1166" type="line"/>
      <point x="249" y="1238"/>
      <point x="297" y="1273"/>
      <point x="362" y="1273" type="curve" smooth="yes"/>
      <point x="503" y="1273"/>
      <point x="592" y="1109"/>
      <point x="776" y="1109" type="curve" smooth="yes"/>
      <point x="913" y="1109"/>
      <point x="1032" y="1198"/>
      <point x="1122" y="1386" type="curve"/>
      <point x="910" y="1525" type="line"/>
      <point x="873" y="1453"/>
      <point x="825" y="1418"/>
      <point x="760" y="1418" type="curve" smooth="yes"/>
      <point x="619" y="1418"/>
      <point x="530" y="1582"/>
      <point x="346" y="1582" type="curve" smooth="yes"/>
      <point x="209" y="1582"/>
      <point x="90" y="1493"/>
    </contour>
  </outline>
</glyph>
<glyph name="brevecomb" format="2">
  <advance width="952"/>
  <unicode hex="0306"/>
  <anchor x="476" y="1024" name="_top"/>
  <anchor x="476" y="1680" name="top"/>
  <outline>
    <contour>
      <point x="476" y="1234" type="curve" smooth="yes"/>
      <point x="746" y="1234"/>
      <point x="930" y="1388"/>
      <point x="952" y="1608" type="curve"/>
      <point x="660" y="1680" type="line"/>
      <point x="655" y="1591"/>
      <point x="609" y="1486"/>
      <point x="476" y="1486" type="curve" smooth="yes"/>
      <point x="343" y="1486"/>
      <point x="297" y="1591"/>
      <point x="292" y="1680" type="curve"/>
      <point x="0" y="1608" type="line"/>
      <point x="22" y="1388"/>
      <point x="206" y="1234"/>
    </contour>
  </outline>
</glyph>
<glyph name="dotaccentcomb" format="2">
  <advance width="481"/>
  <unicode hex="0307"/>
  <anchor x="240" y="1024" name="_top"/>
  <anchor x="240" y="1724" name="top"/>
  <outline>
    <contour>
      <point x="241" y="1243" type="curve" smooth="yes"/>
      <point x="373" y="1243"/>
      <point x="481" y="1352"/>
      <point x="481" y="1484" type="curve" smooth="yes"/>
      <point x="481" y="1616"/>
      <point x="373" y="1724"/>
      <point x="241" y="1724" type="curve" smooth="yes"/>
      <point x="108" y="1724"/>
      <point x="0" y="1616"/>
      <point x="0" y="1484" type="curve" smooth="yes"/>
      <point x="0" y="1351"/>
      <point x="108" y="1243"/>
    </contour>
  </outline>
</glyph>
<glyph name="dieresiscomb" format="2">
  <advance width="896"/>
  <unicode hex="0308"/>
  <anchor x="448" y="1024" name="_top"/>
  <anchor x="448" y="1610" name="top"/>
  <outline>
    <contour>
      <point x="684" y="1186" type="curve" smooth="yes"/>
      <point x="802" y="1186"/>
      <point x="896" y="1280"/>
      <point x="896" y="1398" type="curve" smooth="yes"/>
      <point x="896" y="1516"/>
      <point x="802" y="1610"/>
      <point x="684" y="1610" type="curve" smooth="yes"/>
      <point x="566" y="1610"/>
      <point x="472" y="1516"/>
      <point x="472" y="1398" type="curve" smooth="yes"/>
      <point x="472" y="1280"/>
      <point x="566" y="1186"/>
    </contour>
    <contour>
      <point x="212" y="1186" type="curve" smooth="yes"/>
      <point x="330" y="1186"/>
      <point x="424" y="1280"/>
      <point x="424" y="1398" type="curve" smooth="yes"/>
      <point x="424" y="1516"/>
      <point x="330" y="1610"/>
      <point x="212" y="1610" type="curve" smooth="yes"/>
      <point x="94" y="1610"/>
      <point x="0" y="1516"/>
      <point x="0" y="1398" type="curve" smooth="yes"/>
      <point x="0" y="1280"/>
      <point x="94" y="1186"/>
    </contour>
  </outline>
</glyph>
<glyph name="ringcomb" format="2">
  <advance width="696"/>
  <unicode hex="030A"/>
  <anchor x="348" y="1024" name="_top"/>
  <anchor x="348" y="1772" name="top"/>
  <outline>
    <contour>
      <point x="348" y="1160" type="curve" smooth="yes"/>
      <point x="542" y="1160"/>
      <point x="696" y="1286"/>
      <point x="696" y="1466" type="curve" smooth="yes"/>
      <point x="696" y="1646"/>
      <point x="542" y="1772"/>
      <point x="348" y="1772" type="curve" smooth="yes"/>
      <point x="154" y="1772"/>
      <point x="0" y="1646"/>
      <point x="0" y="1466" type="curve" smooth="yes"/>
      <point x="0" y="1286"/>
      <point x="154" y="1160"/>
    </contour>
    <contour>
      <point x="348" y="1342" type="curve" smooth="yes"/>
      <point x="286" y="1342"/>
      <point x="230" y="1398"/>
      <point x="230" y="1466" type="curve" smooth="yes"/>
      <point x="230" y="1534"/>
      <point x="286" y="1590"/>
      <point x="348" y="1590" type="curve" smooth="yes"/>
      <point x="410" y="1590"/>
      <point x="466" y="1534"/>
      <point x="466" y="1466" type="curve" smooth="yes"/>
      <point x="466" y="1398"/>
      <point x="410" y="1342"/>
    </contour>
  </outline>
</glyph>
<glyph name="hungarumlautcomb" format="2">
  <advance width="1243"/>
  <unicode hex="030B"/>
  <anchor x="522" y="1024" name="_top"/>
  <anchor x="522" y="1680" name="top"/>
  <outline>
    <contour>
      <point x="1243" y="1416" type="line"/>
      <point x="1005" y="1680" type="line"/>
      <point x="604" y="1292" type="line"/>
      <point x="750" y="1116" type="line"/>
    </contour>
    <contour>
      <point x="639" y="1416" type="line"/>
      <point x="401" y="1680" type="line"/>
      <point x="0" y="1292" type="line"/>
      <point x="148" y="1116" type="line"/>
    </contour>
  </outline>
</glyph>
<glyph name="caroncomb" format="2">
  <advance width="924"/>
  <unicode hex="030C"/>
  <anchor x="462" y="1024" name="_top"/>
  <anchor x="462" y="1680" name="top"/>
  <outline>
    <contour>
      <point x="924" y="1470" type="line"/>
      <point x="768" y="1680" type="line"/>
      <point x="462" y="1456" type="line"/>
      <point x="156" y="1680" type="line"/>
      <point x="0" y="1470" type="line"/>
      <point x="462" y="1130" type="line"/>
    </contour>
  </outline>
</glyph>
<glyph name="commaaccentcomb" format="2">
  <advance width="777"/>
  <unicode hex="0326"/>
  <anchor x="401" y="0" name="_bottom"/>
  <anchor x="401" y="-806" name="bottom"/>
  <outline>
    <contour>
      <point x="340" y="-547" type="line"/>
      <point x="461" y="-447"/>
      <point x="530" y="-335"/>
      <point x="530" y="-236" type="curve" smooth="yes"/>
      <point x="530" y="-147"/>
      <point x="475" y="-100"/>
      <point x="401" y="-100" type="curve" smooth="yes"/>
      <point x="323" y="-100"/>
      <point x="270" y="-153"/>
      <point x="270" y="-227" type="curve" smooth="yes"/>
      <point x="270" y="-288"/>
      <point x="307" y="-332"/>
      <point x="366" y="-348" type="curve"/>
      <point x="357" y="-394"/>
      <point x="313" y="-473"/>
      <point x="281" y="-499" type="curve"/>
    </contour>
  </outline>
</glyph>
<glyph name="cedillacomb" format="2">
  <advance width="597"/>
  <unicode hex="0327"/>
  <anchor x="397" y="7" name="_cedilla"/>
  <anchor x="280" y="-588" name="bottom"/>
  <outline>
    <contour>
      <point x="233" y="7" type="line"/>
      <point x="158" y="-221" type="line"/>
      <point x="181" y="-240" type="line"/>
      <point x="191" y="-234"/>
      <point x="226" y="-229"/>
      <point x="259" y="-229" type="curve" smooth="yes"/>
      <point x="330" y="-229"/>
      <point x="377" y="-256"/>
      <point x="377" y="-298" type="curve" smooth="yes"/>
      <point x="377" y="-333"/>
      <point x="348" y="-357"/>
      <point x="304" y="-357" type="curve" smooth="yes"/>
      <point x="253" y="-357"/>
      <point x="200" y="-328"/>
      <point x="154" y="-274" type="curve"/>
      <point x="0" y="-391" type="line"/>
      <point x="95" y="-499"/>
      <point x="197" y="-551"/>
      <point x="314" y="-551" type="curve" smooth="yes"/>
      <point x="479" y="-551"/>
      <point x="597" y="-450"/>
      <point x="597" y="-308" type="curve" smooth="yes"/>
      <point x="597" y="-176"/>
      <point x="479" y="-106"/>
      <point x="360" y="-106" type="curve" smooth="yes"/>
      <point x="340" y="-106"/>
      <point x="322" y="-108"/>
      <point x="306" y="-113" type="curve"/>
      <point x="349" y="-138" type="line"/>
      <point x="397" y="7" type="line"/>
    </contour>
  </outline>
</glyph>
<glyph name="ogonekcomb" format="2">
  <advance width="526"/>
  <unicode hex="0328"/>
  <anchor x="352" y="7" name="_ogonek"/>
  <outline>
    <contour>
      <point x="252" y="-550" type="curve" smooth="yes"/>
      <point x="359" y="-550"/>
      <point x="465" y="-495"/>
      <point x="526" y="-406" type="curve"/>
      <point x="360" y="-282" type="line"/>
      <point x="344" y="-311"/>
      <point x="315" y="-330"/>
      <point x="287" y="-330" type="curve" smooth="yes"/>
      <point x="254" y="-330"/>
      <point x="236" y="-305"/>
      <point x="236" y="-260" type="curve" smooth="yes"/>
      <point x="236" y="-188"/>
      <point x="283" y="-79"/>
      <point x="352" y="7" type="curve"/>
      <point x="167" y="7" type="line"/>
      <point x="59" y="-117"/>
      <point x="0" y="-234"/>
      <point x="0" y="-325" type="curve" smooth="yes"/>
      <point x="0" y="-449"/>
      <point x="108" y="-550"/>
    </contour>
  </outline>
</glyph>
<glyph name="Delta" format="2">
  <advance width="1310"/>
  <unicode hex="0394"/>
  <outline>
    <contour>
      <point x="605" y="1650" type="line"/>
      <point x="-41" y="0" type="line"/>
      <point x="1351" y="0" type="line"/>
      <point x="705" y="1650" type="line"/>
    </contour>
    <contour>
      <point x="565" y="1374" type="line"/>
      <point x="924" y="277" type="line"/>
      <point x="386" y="277" type="line"/>
      <point x="745" y="1374" type="line"/>
    </contour>
  </outline>
</glyph>
<glyph name="Omega" format="2">
  <advance width="1684"/>
  <unicode hex="03A9"/>
  <outline>
    <contour>
      <point x="842" y="1680" type="curve" smooth="yes"/>
      <point x="383" y="1680"/>
      <point x="62" y="1359"/>
      <point x="62" y="911" type="curve" smooth="yes"/>
      <point x="62" y="543"/>
      <point x="279" y="321"/>
      <point x="460" y="241" type="curve"/>
      <point x="112" y="288" type="line"/>
      <point x="112" y="0" type="line"/>
      <point x="797" y="0" type="line"/>
      <point x="797" y="160" type="line"/>
      <point x="781" y="177" type="line" smooth="yes"/>
      <point x="629" y="340"/>
      <point x="460" y="602"/>
      <point x="460" y="865" type="curve" smooth="yes"/>
      <point x="460" y="1046"/>
      <point x="540" y="1326"/>
      <point x="842" y="1326" type="curve" smooth="yes"/>
      <point x="1144" y="1326"/>
      <point x="1224" y="1046"/>
      <point x="1224" y="865" type="curve" smooth="yes"/>
      <point x="1224" y="602"/>
      <point x="1055" y="340"/>
      <point x="903" y="177" type="curve" smooth="yes"/>
      <point x="887" y="160" type="line"/>
      <point x="887" y="0" type="line"/>
      <point x="1572" y="0" type="line"/>
      <point x="1572" y="288" type="line"/>
      <point x="1224" y="241" type="line"/>
      <point x="1405" y="321"/>
      <point x="1622" y="543"/>
      <point x="1622" y="911" type="curve" smooth="yes"/>
      <point x="1622" y="1359"/>
      <point x="1301" y="1680"/>
    </contour>
  </outline>
</glyph>
<glyph name="mu" format="2">
  <advance width="1616"/>
  <unicode hex="03BC"/>
  <outline>
    <contour>
      <point x="665" y="-320" type="line"/>
      <point x="665" y="-30" type="line"/>
      <point x="678" y="-31"/>
      <point x="695" y="-32"/>
      <point x="711" y="-32" type="curve" smooth="yes"/>
      <point x="823" y="-32"/>
      <point x="933" y="26"/>
      <point x="1003" y="96" type="curve"/>
      <point x="1003" y="0" type="line"/>
      <point x="1419" y="0" type="line"/>
      <point x="1419" y="1024" type="line"/>
      <point x="1003" y="1024" type="line"/>
      <point x="1003" y="468" type="line" smooth="yes"/>
      <point x="1003" y="376"/>
      <point x="921" y="290"/>
      <point x="819" y="290" type="curve" smooth="yes"/>
      <point x="725" y="290"/>
      <point x="667" y="362"/>
      <point x="667" y="452" type="curve" smooth="yes"/>
      <point x="667" y="1024" type="line"/>
      <point x="251" y="1024" type="line"/>
      <point x="251" y="412" type="line" smooth="yes"/>
      <point x="251" y="66"/>
      <point x="185" y="-120"/>
      <point x="185" y="-320" type="curve"/>
    </contour>
  </outline>
</glyph>
<glyph name="pi" format="2">
  <advance width="1397"/>
  <unicode hex="03C0"/>
  <outline>
    <contour>
      <point x="630" y="0" type="line"/>
      <point x="630" y="737" type="line"/>
      <point x="788" y="737" type="line"/>
      <point x="788" y="343" type="line" smooth="yes"/>
      <point x="788" y="93"/>
      <point x="907" y="0"/>
      <point x="1225" y="0" type="curve"/>
      <point x="1225" y="314" type="line"/>
      <point x="1130" y="314"/>
      <point x="1102" y="338"/>
      <point x="1102" y="417" type="curve" smooth="yes"/>
      <point x="1102" y="737" type="line"/>
      <point x="1261" y="737" type="line"/>
      <point x="1261" y="1024" type="line"/>
      <point x="157" y="1024" type="line"/>
      <point x="157" y="737" type="line"/>
      <point x="316" y="737" type="line"/>
      <point x="316" y="0" type="line"/>
    </contour>
  </outline>
</glyph>
<glyph name="Germandbls" format="2">
  <advance width="1762"/>
  <unicode hex="1E9E"/>
  <outline>
    <contour>
      <point x="1164" y="-23" type="curve" smooth="yes"/>
      <point x="1439" y="-23"/>
      <point x="1689" y="136"/>
      <point x="1689" y="432" type="curve" smooth="yes"/>
      <point x="1689" y="766"/>
      <point x="1371" y="756"/>
      <point x="1371" y="838" type="curve" smooth="yes"/>
      <point x="1371" y="893"/>
      <point x="1511" y="922" name=".hr01"/>
      <point x="1511" y="1171" type="curve" smooth="yes"/>
      <point x="1511" y="1503"/>
      <point x="1246" y="1681"/>
      <point x="900" y="1681" type="curve" smooth="yes"/>
      <point x="459" y="1681"/>
      <point x="196" y="1402"/>
      <point x="196" y="888" type="curve" smooth="yes"/>
      <point x="196" y="1" type="line"/>
      <point x="638" y="1" type="line"/>
      <point x="638" y="935" type="line" smooth="yes"/>
      <point x="638" y="1153"/>
      <point x="713" y="1257"/>
      <point x="868" y="1257" type="curve" smooth="yes"/>
      <point x="977" y="1257"/>
      <point x="1067" y="1205"/>
      <point x="1067" y="1082" type="curve" smooth="yes"/>
      <point x="1067" y="913"/>
      <point x="897" y="907"/>
      <point x="897" y="764" type="curve" smooth="yes"/>
      <point x="897" y="555"/>
      <point x="1261" y="614" name=".hr02"/>
      <point x="1261" y="474" type="curve" smooth="yes"/>
      <point x="1261" y="426"/>
      <point x="1218" y="401"/>
      <point x="1134" y="401" type="curve" smooth="yes"/>
      <point x="1060" y="401"/>
      <point x="981" y="420"/>
      <point x="868" y="466" type="curve"/>
      <point x="746" y="59" type="line"/>
      <point x="888" y="9"/>
      <point x="1051" y="-23"/>
    </contour>
  </outline>
</glyph>
<glyph name="endash" format="2">
  <advance width="1454"/>
  <unicode hex="2013"/>
  <outline>
    <contour>
      <point x="1297" y="400" type="line"/>
      <point x="1297" y="758" type="line"/>
      <point x="157" y="758" type="line"/>
      <point x="157" y="400" type="line"/>
    </contour>
  </outline>
</glyph>
<glyph name="emdash" format="2">
  <advance width="2606"/>
  <unicode hex="2014"/>
  <outline>
    <contour>
      <point x="2449" y="400" type="line"/>
      <point x="2449" y="758" type="line"/>
      <point x="157" y="758" type="line"/>
      <point x="157" y="400" type="line"/>
    </contour>
  </outline>
</glyph>
<glyph name="quotesinglbase" format="2">
  <advance width="777"/>
  <unicode hex="201A"/>
  <outline>
    <contour>
      <point x="236" y="-344" type="line"/>
      <point x="460" y="-160"/>
      <point x="587" y="48"/>
      <point x="587" y="223" type="curve" smooth="yes"/>
      <point x="587" y="377"/>
      <point x="488" y="479"/>
      <point x="351" y="479" type="curve" smooth="yes"/>
      <point x="213" y="479"/>
      <point x="108" y="377"/>
      <point x="108" y="241" type="curve" smooth="yes"/>
      <point x="108" y="134"/>
      <point x="173" y="51"/>
      <point x="285" y="22" type="curve"/>
      <point x="268" y="-63"/>
      <point x="186" y="-208"/>
      <point x="128" y="-256" type="curve"/>
    </contour>
  </outline>
</glyph>
<glyph name="dagger" format="2">
  <advance width="964"/>
  <unicode hex="2020"/>
  <outline>
    <contour>
      <point x="660" y="0" type="line"/>
      <point x="660" y="1006" type="line"/>
      <point x="884" y="1006" type="line"/>
      <point x="884" y="1322" type="line"/>
      <point x="660" y="1322" type="line"/>
      <point x="660" y="1720" type="line"/>
      <point x="304" y="1720" type="line"/>
      <point x="304" y="1322" type="line"/>
      <point x="80" y="1322" type="line"/>
      <point x="80" y="1006" type="line"/>
      <point x="304" y="1006" type="line"/>
      <point x="304" y="0" type="line"/>
    </contour>
  </outline>
</glyph>
<glyph name="daggerdbl" format="2">
  <advance width="1088"/>
  <unicode hex="2021"/>
  <outline>
    <contour>
      <point x="722" y="0" type="line"/>
      <point x="722" y="438" type="line"/>
      <point x="946" y="438" type="line"/>
      <point x="946" y="754" type="line"/>
      <point x="722" y="754" type="line"/>
      <point x="722" y="958" type="line"/>
      <point x="946" y="958" type="line"/>
      <point x="946" y="1274" type="line"/>
      <point x="722" y="1274" type="line"/>
      <point x="722" y="1720" type="line"/>
      <point x="366" y="1720" type="line"/>
      <point x="366" y="1274" type="line"/>
      <point x="142" y="1274" type="line"/>
      <point x="142" y="958" type="line"/>
      <point x="366" y="958" type="line"/>
      <point x="366" y="754" type="line"/>
      <point x="142" y="754" type="line"/>
      <point x="142" y="438" type="line"/>
      <point x="366" y="438" type="line"/>
      <point x="366" y="0" type="line"/>
    </contour>
  </outline>
</glyph>
<glyph name="bullet" format="2">
  <advance width="1148"/>
  <unicode hex="2022"/>
  <outline>
    <contour>
      <point x="572" y="256" type="curve" smooth="yes"/>
      <point x="828" y="256"/>
      <point x="1030" y="458"/>
      <point x="1030" y="714" type="curve" smooth="yes"/>
      <point x="1030" y="970"/>
      <point x="828" y="1172"/>
      <point x="572" y="1172" type="curve" smooth="yes"/>
      <point x="316" y="1172"/>
      <point x="114" y="970"/>
      <point x="114" y="714" type="curve" smooth="yes"/>
      <point x="114" y="458"/>
      <point x="316" y="256"/>
    </contour>
  </outline>
</glyph>
<glyph name="perthousand" format="2">
  <advance width="2931"/>
  <unicode hex="2030"/>
  <outline>
    <component base="percent"/>
    <contour>
      <point x="2441" y="-32" type="curve" smooth="yes"/>
      <point x="2699" y="-32"/>
      <point x="2897" y="130"/>
      <point x="2897" y="362" type="curve" smooth="yes"/>
      <point x="2897" y="594"/>
      <point x="2699" y="756"/>
      <point x="2441" y="756" type="curve" smooth="yes"/>
      <point x="2183" y="756"/>
      <point x="1985" y="594"/>
      <point x="1985" y="362" type="curve" smooth="yes"/>
      <point x="1985" y="130"/>
      <point x="2183" y="-32"/>
    </contour>
    <contour>
      <point x="2441" y="212" type="curve" smooth="yes"/>
      <point x="2359" y="212"/>
      <point x="2287" y="274"/>
      <point x="2287" y="362" type="curve" smooth="yes"/>
      <point x="2287" y="450"/>
      <point x="2359" y="512"/>
      <point x="2441" y="512" type="curve" smooth="yes"/>
      <point x="2523" y="512"/>
      <point x="2595" y="450"/>
      <point x="2595" y="362" type="curve" smooth="yes"/>
      <point x="2595" y="274"/>
      <point x="2523" y="212"/>
    </contour>
  </outline>
</glyph>
<glyph name="guilsinglleft" format="2">
  <advance width="724"/>
  <unicode hex="2039"/>
  <outline>
    <contour>
      <point x="649" y="226" type="line"/>
      <point x="389" y="558" type="line"/>
      <point x="649" y="890" type="line"/>
      <point x="435" y="1058" type="line"/>
      <point x="45" y="558" type="line"/>
      <point x="435" y="58" type="line"/>
    </contour>
  </outline>
</glyph>
<glyph name="guilsinglright" format="2">
  <advance width="720"/>
  <unicode hex="203A"/>
  <outline>
    <contour>
      <point x="675" y="558" type="line"/>
      <point x="285" y="1058" type="line"/>
      <point x="71" y="890" type="line"/>
      <point x="331" y="558" type="line"/>
      <point x="71" y="226" type="line"/>
      <point x="285" y="58" type="line"/>
    </contour>
  </outline>
</glyph>
<glyph name="foursuperior" format="2">
  <advance width="824"/>
  <unicode hex="2074"/>
  <outline>
    <contour>
      <point x="630" y="1040" type="line"/>
      <point x="630" y="1145" type="line"/>
      <point x="709" y="1145" type="line"/>
      <point x="709" y="1315" type="line"/>
      <point x="630" y="1315" type="line"/>
      <point x="630" y="1650" type="line"/>
      <point x="437" y="1650" type="line"/>
      <point x="111" y="1197" type="line"/>
      <point x="111" y="1145" type="line"/>
      <point x="448" y="1145" type="line"/>
      <point x="448" y="1040" type="line"/>
    </contour>
    <contour>
      <point x="448" y="1423" type="line"/>
      <point x="448" y="1315" type="line"/>
      <point x="378" y="1315" type="line"/>
    </contour>
  </outline>
</glyph>
<glyph name="euro" format="2">
  <advance width="1778"/>
  <unicode hex="20AC"/>
  <outline>
    <component base="C" xOffset="219"/>
    <contour>
      <point x="103" y="1118" type="line"/>
      <point x="103" y="868" type="line"/>
      <point x="1349" y="868" type="line"/>
      <point x="1349" y="1118" type="line"/>
    </contour>
    <contour>
      <point x="103" y="778" type="line"/>
      <point x="103" y="528" type="line"/>
      <point x="1349" y="528" type="line"/>
      <point x="1349" y="778" type="line"/>
    </contour>
  </outline>
</glyph>
<glyph name="arrowleft" format="2">
  <advance width="1994"/>
  <unicode hex="2190"/>
  <outline>
    <contour>
      <point x="427" y="1045" type="line"/>
      <point x="427" y="605" type="line"/>
      <point x="1837" y="605" type="line"/>
      <point x="1837" y="1045" type="line"/>
    </contour>
    <contour>
      <point x="157" y="825" type="line"/>
      <point x="982" y="0" type="line"/>
      <point x="1599" y="0" type="line"/>
      <point x="694" y="844" type="line"/>
      <point x="694" y="806" type="line"/>
      <point x="1599" y="1650" type="line"/>
      <point x="982" y="1650" type="line"/>
    </contour>
  </outline>
</glyph>
<glyph name="arrowup" format="2">
  <advance width="1964"/>
  <unicode hex="2191"/>
  <outline>
    <contour>
      <point x="1202" y="1410" type="line"/>
      <point x="762" y="1410" type="line"/>
      <point x="762" y="0" type="line"/>
      <point x="1202" y="0" type="line"/>
    </contour>
    <contour>
      <point x="982" y="1680" type="line"/>
      <point x="157" y="855" type="line"/>
      <point x="157" y="238" type="line"/>
      <point x="1001" y="1143" type="line"/>
      <point x="963" y="1143" type="line"/>
      <point x="1807" y="238" type="line"/>
      <point x="1807" y="855" type="line"/>
    </contour>
  </outline>
</glyph>
<glyph name="arrowboth" format="2">
  <advance width="2820"/>
  <unicode hex="2194"/>
  <outline>
    <contour>
      <point x="425" y="1045" type="line"/>
      <point x="425" y="605" type="line"/>
      <point x="2413" y="605" type="line"/>
      <point x="2413" y="1045" type="line"/>
    </contour>
    <contour>
      <point x="702" y="1650" type="line"/>
      <point x="157" y="825" type="line"/>
      <point x="702" y="0" type="line"/>
      <point x="1257" y="0" type="line"/>
      <point x="674" y="844" type="line"/>
      <point x="674" y="806" type="line"/>
      <point x="1257" y="1650" type="line"/>
    </contour>
    <contour>
      <point x="1563" y="1650" type="line"/>
      <point x="2146" y="806" type="line"/>
      <point x="2146" y="844" type="line"/>
      <point x="1563" y="0" type="line"/>
      <point x="2118" y="0" type="line"/>
      <point x="2663" y="825" type="line"/>
      <point x="2118" y="1650" type="line"/>
    </contour>
  </outline>
</glyph>
<glyph name="arrowupdn" format="2">
  <advance width="1444"/>
  <unicode hex="2195"/>
  <outline>
    <contour>
      <point x="942" y="1410" type="line"/>
      <point x="502" y="1410" type="line"/>
      <point x="502" y="256" type="line"/>
      <point x="942" y="256" type="line"/>
    </contour>
    <contour>
      <point x="722" y="1680" type="line"/>
      <point x="157" y="1317" type="line"/>
      <point x="157" y="880" type="line"/>
      <point x="741" y="1265" type="line"/>
      <point x="703" y="1265" type="line"/>
      <point x="1287" y="880" type="line"/>
      <point x="1287" y="1317" type="line"/>
    </contour>
    <contour>
      <point x="157" y="770" type="line"/>
      <point x="157" y="333" type="line"/>
      <point x="722" y="-30" type="line"/>
      <point x="1287" y="333" type="line"/>
      <point x="1287" y="770" type="line"/>
      <point x="703" y="385" type="line"/>
      <point x="741" y="385" type="line"/>
    </contour>
  </outline>
</glyph>
<glyph name="arrowNW" format="2">
  <advance width="1916"/>
  <unicode hex="2196"/>
  <outline>
    <contour>
      <point x="504" y="1615" type="line"/>
      <point x="192" y="1303" type="line"/>
      <point x="1339" y="156" type="line"/>
      <point x="1651" y="468" type="line"/>
    </contour>
    <contour>
      <point x="157" y="1650" type="line"/>
      <point x="157" y="484" type="line"/>
      <point x="593" y="48" type="line"/>
      <point x="550" y="1284" type="line"/>
      <point x="523" y="1257" type="line"/>
      <point x="1759" y="1214" type="line"/>
      <point x="1323" y="1650" type="line"/>
    </contour>
  </outline>
</glyph>
<glyph name="arrowNE" format="2">
  <advance width="1916"/>
  <unicode hex="2197"/>
  <outline>
    <contour>
      <point x="1724" y="1303" type="line"/>
      <point x="1412" y="1615" type="line"/>
      <point x="265" y="468" type="line"/>
      <point x="577" y="156" type="line"/>
    </contour>
    <contour>
      <point x="1759" y="1650" type="line"/>
      <point x="593" y="1650" type="line"/>
      <point x="157" y="1214" type="line"/>
      <point x="1393" y="1257" type="line"/>
      <point x="1366" y="1284" type="line"/>
      <point x="1323" y="48" type="line"/>
      <point x="1759" y="484" type="line"/>
    </contour>
  </outline>
</glyph>
<glyph name="arrowSE" format="2">
  <advance width="1916"/>
  <unicode hex="2198"/>
  <outline>
    <contour>
      <point x="1412" y="35" type="line"/>
      <point x="1724" y="347" type="line"/>
      <point x="577" y="1494" type="line"/>
      <point x="265" y="1182" type="line"/>
    </contour>
    <contour>
      <point x="1759" y="0" type="line"/>
      <point x="1759" y="1166" type="line"/>
      <point x="1323" y="1602" type="line"/>
      <point x="1366" y="366" type="line"/>
      <point x="1393" y="393" type="line"/>
      <point x="157" y="436" type="line"/>
      <point x="593" y="0" type="line"/>
    </contour>
  </outline>
</glyph>
<glyph name="arrowSW" format="2">
  <advance width="1916"/>
  <unicode hex="2199"/>
  <outline>
    <contour>
      <point x="192" y="347" type="line"/>
      <point x="504" y="35" type="line"/>
      <point x="1651" y="1182" type="line"/>
      <point x="1339" y="1494" type="line"/>
    </contour>
    <contour>
      <point x="157" y="0" type="line"/>
      <point x="1323" y="0" type="line"/>
      <point x="1759" y="436" type="line"/>
      <point x="523" y="393" type="line"/>
      <point x="550" y="366" type="line"/>
      <point x="593" y="1602" type="line"/>
      <point x="157" y="1166" type="line"/>
    </contour>
  </outline>
</glyph>
<glyph name="partialdiff" format="2">
  <advance width="1474"/>
  <unicode hex="2202"/>
  <outline>
    <contour>
      <point x="766" y="-38" type="curve" smooth="yes"/>
      <point x="1104" y="-38"/>
      <point x="1377" y="175"/>
      <point x="1377" y="637" type="curve" smooth="yes"/>
      <point x="1377" y="1166"/>
      <point x="1019" y="1587"/>
      <point x="526" y="1853" type="curve"/>
      <point x="346" y="1551" type="line"/>
      <point x="565" y="1426"/>
      <point x="781" y="1248"/>
      <point x="878" y="1054" type="curve"/>
      <point x="843" y="1070"/>
      <point x="761" y="1087"/>
      <point x="678" y="1087" type="curve" smooth="yes"/>
      <point x="366" y="1087"/>
      <point x="103" y="846"/>
      <point x="103" y="540" type="curve" smooth="yes"/>
      <point x="103" y="216"/>
      <point x="396" y="-38"/>
    </contour>
    <contour>
      <point x="731" y="325" type="curve" smooth="yes"/>
      <point x="631" y="325"/>
      <point x="542" y="399"/>
      <point x="542" y="510" type="curve" smooth="yes"/>
      <point x="542" y="613"/>
      <point x="619" y="708"/>
      <point x="731" y="708" type="curve" smooth="yes"/>
      <point x="832" y="708"/>
      <point x="918" y="630"/>
      <point x="918" y="520" type="curve" smooth="yes"/>
      <point x="918" y="417"/>
      <point x="843" y="325"/>
    </contour>
  </outline>
</glyph>
<glyph name="emptyset" format="2">
  <advance width="1200"/>
  <unicode hex="2205"/>
  <outline>
    <contour>
      <point x="1165" y="1006" type="line"/>
      <point x="1027" y="1146" type="line"/>
      <point x="75" y="194" type="line"/>
      <point x="215" y="54" type="line"/>
    </contour>
    <contour>
      <point x="621" y="120" type="curve" smooth="yes"/>
      <point x="888" y="120"/>
      <point x="1097" y="323"/>
      <point x="1097" y="600" type="curve" smooth="yes"/>
      <point x="1097" y="877"/>
      <point x="890" y="1080"/>
      <point x="622" y="1080" type="curve" smooth="yes"/>
      <point x="350" y="1080"/>
      <point x="145" y="870"/>
      <point x="145" y="599" type="curve" smooth="yes"/>
      <point x="145" y="328"/>
      <point x="349" y="120"/>
    </contour>
    <contour>
      <point x="621" y="391" type="curve" smooth="yes"/>
      <point x="493" y="391"/>
      <point x="406" y="468"/>
      <point x="406" y="600" type="curve" smooth="yes"/>
      <point x="406" y="732"/>
      <point x="493" y="809"/>
      <point x="621" y="809" type="curve" smooth="yes"/>
      <point x="749" y="809"/>
      <point x="836" y="732"/>
      <point x="836" y="600" type="curve" smooth="yes"/>
      <point x="836" y="468"/>
      <point x="749" y="391"/>
    </contour>
  </outline>
</glyph>
<glyph name="product" format="2">
  <advance width="1756"/>
  <unicode hex="220F"/>
  <outline>
    <contour>
      <point x="669" y="0" type="line"/>
      <point x="669" y="1433" type="line"/>
      <point x="1087" y="1433" type="line"/>
      <point x="1087" y="0" type="line"/>
      <point x="1401" y="0" type="line"/>
      <point x="1401" y="1433" type="line"/>
      <point x="1560" y="1433" type="line"/>
      <point x="1560" y="1720" type="line"/>
      <point x="196" y="1720" type="line"/>
      <point x="196" y="1433" type="line"/>
      <point x="355" y="1433" type="line"/>
      <point x="355" y="0" type="line"/>
    </contour>
  </outline>
</glyph>
<glyph name="summation" format="2">
  <advance width="1613"/>
  <unicode hex="2211"/>
  <outline>
    <contour>
      <point x="1417" y="0" type="line"/>
      <point x="1417" y="287" type="line"/>
      <point x="713" y="287" type="line"/>
      <point x="1119" y="860" type="line"/>
      <point x="713" y="1433" type="line"/>
      <point x="1417" y="1433" type="line"/>
      <point x="1417" y="1720" type="line"/>
      <point x="196" y="1720" type="line"/>
      <point x="805" y="860" type="line"/>
      <point x="196" y="0" type="line"/>
    </contour>
  </outline>
</glyph>
<glyph name="minus" format="2">
  <advance width="1498"/>
  <unicode hex="2212"/>
  <outline>
    <contour>
      <point x="1263" y="650" type="line"/>
      <point x="1263" y="1010" type="line"/>
      <point x="235" y="1010" type="line"/>
      <point x="235" y="650" type="line"/>
    </contour>
  </outline>
</glyph>
<glyph name="DivisionSlash" format="2">
  <advance width="996"/>
  <unicode hex="2215"/>
  <outline>
    <contour>
      <point x="265" y="-240" type="line"/>
      <point x="1089" y="1720" type="line"/>
      <point x="731" y="1720" type="line"/>
      <point x="-93" y="-240" type="line"/>
    </contour>
  </outline>
</glyph>
<glyph name="radical" format="2">
  <advance width="1882"/>
  <unicode hex="221A"/>
  <outline>
    <contour>
      <point x="873" y="-32" type="line"/>
      <point x="1252" y="1433" type="line"/>
      <point x="1686" y="1433" type="line"/>
      <point x="1686" y="1720" type="line"/>
      <point x="1003" y="1720" type="line"/>
      <point x="666" y="289" type="line"/>
      <point x="510" y="609" type="line"/>
      <point x="196" y="609" type="line"/>
      <point x="489" y="-32" type="line"/>
    </contour>
  </outline>
</glyph>
<glyph name="infinity" format="2">
  <advance width="2085"/>
  <unicode hex="221E"/>
  <outline>
    <contour>
      <point x="566" y="29" type="curve" smooth="yes"/>
      <point x="746" y="29"/>
      <point x="895" y="135"/>
      <point x="1043" y="292" type="curve"/>
      <point x="1190" y="135"/>
      <point x="1339" y="29"/>
      <point x="1519" y="29" type="curve" smooth="yes"/>
      <point x="1776" y="29"/>
      <point x="2026" y="243"/>
      <point x="2026" y="545" type="curve" smooth="yes"/>
      <point x="2026" y="847"/>
      <point x="1774" y="1060"/>
      <point x="1519" y="1060" type="curve" smooth="yes"/>
      <point x="1339" y="1060"/>
      <point x="1190" y="954"/>
      <point x="1043" y="798" type="curve"/>
      <point x="895" y="954"/>
      <point x="746" y="1060"/>
      <point x="566" y="1060" type="curve" smooth="yes"/>
      <point x="311" y="1060"/>
      <point x="59" y="847"/>
      <point x="59" y="545" type="curve" smooth="yes"/>
      <point x="59" y="243"/>
      <point x="309" y="29"/>
    </contour>
    <contour>
      <point x="623" y="390" type="curve" smooth="yes"/>
      <point x="547" y="390"/>
      <point x="472" y="453"/>
      <point x="472" y="545" type="curve" smooth="yes"/>
      <point x="472" y="636"/>
      <point x="548" y="699"/>
      <point x="623" y="699" type="curve" smooth="yes"/>
      <point x="701" y="699"/>
      <point x="759" y="630"/>
      <point x="831" y="545" type="curve"/>
      <point x="758" y="459"/>
      <point x="701" y="390"/>
    </contour>
    <contour>
      <point x="1462" y="390" type="curve" smooth="yes"/>
      <point x="1384" y="390"/>
      <point x="1327" y="459"/>
      <point x="1254" y="545" type="curve"/>
      <point x="1326" y="630"/>
      <point x="1384" y="699"/>
      <point x="1462" y="699" type="curve" smooth="yes"/>
      <point x="1537" y="699"/>
      <point x="1613" y="636"/>
      <point x="1613" y="545" type="curve" smooth="yes"/>
      <point x="1613" y="453"/>
      <point x="1538" y="390"/>
    </contour>
  </outline>
</glyph>
<glyph name="integral" format="2">
  <advance width="978"/>
  <unicode hex="222B"/>
  <outline>
    <contour>
      <point x="109" y="-551" type="curve" smooth="yes"/>
      <point x="377" y="-551"/>
      <point x="566" y="-337"/>
      <point x="596" y="-3" type="curve"/>
      <point x="700" y="1188" type="line"/>
      <point x="712" y="1339"/>
      <point x="740" y="1382"/>
      <point x="815" y="1382" type="curve" smooth="yes"/>
      <point x="850" y="1382"/>
      <point x="886" y="1373"/>
      <point x="913" y="1358" type="curve"/>
      <point x="1083" y="1648" type="line"/>
      <point x="1008" y="1711"/>
      <point x="888" y="1750"/>
      <point x="773" y="1750" type="curve" smooth="yes"/>
      <point x="505" y="1750"/>
      <point x="316" y="1536"/>
      <point x="286" y="1202" type="curve"/>
      <point x="182" y="11" type="line"/>
      <point x="170" y="-140"/>
      <point x="142" y="-183"/>
      <point x="67" y="-183" type="curve" smooth="yes"/>
      <point x="32" y="-183"/>
      <point x="-4" y="-174"/>
      <point x="-31" y="-159" type="curve"/>
      <point x="-201" y="-449" type="line"/>
      <point x="-126" y="-512"/>
      <point x="-6" y="-551"/>
    </contour>
  </outline>
</glyph>
<glyph name="notequal" format="2">
  <advance width="1424"/>
  <unicode hex="2260"/>
  <outline>
    <component base="equal" xOffset="-29"/>
    <contour>
      <point x="396" y="106" type="line"/>
      <point x="1230" y="1544" type="line"/>
      <point x="956" y="1544" type="line"/>
      <point x="122" y="106" type="line"/>
    </contour>
  </outline>
</glyph>
<glyph name="lessequal" format="2">
  <advance width="1428"/>
  <unicode hex="2264"/>
  <outline>
    <contour>
      <point x="1225" y="880" type="line"/>
      <point x="573" y="1108" type="line"/>
      <point x="1225" y="1342" type="line"/>
      <point x="1225" y="1674" type="line"/>
      <point x="129" y="1250" type="line"/>
      <point x="129" y="974" type="line"/>
      <point x="1225" y="550" type="line"/>
    </contour>
    <contour>
      <point x="1225" y="0" type="line"/>
      <point x="1225" y="360" type="line"/>
      <point x="129" y="360" type="line"/>
      <point x="129" y="0" type="line"/>
    </contour>
  </outline>
</glyph>
<glyph name="greaterequal" format="2">
  <advance width="1428"/>
  <unicode hex="2265"/>
  <outline>
    <contour>
      <point x="1299" y="974" type="line"/>
      <point x="1299" y="1250" type="line"/>
      <point x="203" y="1674" type="line"/>
      <point x="203" y="1342" type="line"/>
      <point x="855" y="1108" type="line"/>
      <point x="203" y="880" type="line"/>
      <point x="203" y="550" type="line"/>
    </contour>
    <contour>
      <point x="1299" y="0" type="line"/>
      <point x="1299" y="360" type="line"/>
      <point x="203" y="360" type="line"/>
      <point x="203" y="0" type="line"/>
    </contour>
  </outline>
</glyph>
<glyph name="lozenge" format="2">
  <advance width="1200"/>
  <unicode hex="25CA"/>
  <outline>
    <contour>
      <point x="715" y="-80" type="line"/>
      <point x="1135" y="795" type="line"/>
      <point x="715" y="1670" type="line"/>
      <point x="485" y="1670" type="line"/>
      <point x="65" y="795" type="line"/>
      <point x="485" y="-80" type="line"/>
    </contour>
    <contour>
      <point x="406" y="795" type="line"/>
      <point x="600" y="1201" type="line"/>
      <point x="794" y="795" type="line"/>
      <point x="600" y="389" type="line"/>
    </contour>
  </outline>
</glyph>
<glyph name="f_f" format="2">
  <advance width="1679"/>
  <unicode hex="FB00"/>
  <anchor x="767" y="0" name="caret_1"/>
  <outline>
    <contour>
      <point x="595" y="0" type="line"/>
      <point x="595" y="708" type="line"/>
      <point x="953" y="708" type="line"/>
      <point x="953" y="0" type="line"/>
      <point x="1369" y="0" type="line"/>
      <point x="1369" y="708" type="line"/>
      <point x="1597" y="708" type="line"/>
      <point x="1597" y="1024" type="line"/>
      <point x="1369" y="1024" type="line"/>
      <point x="1369" y="1188" type="line" smooth="yes"/>
      <point x="1369" y="1324"/>
      <point x="1379" y="1382"/>
      <point x="1465" y="1382" type="curve" smooth="yes"/>
      <point x="1508" y="1382"/>
      <point x="1545" y="1369"/>
      <point x="1567" y="1358" type="curve"/>
      <point x="1711" y="1648" type="line"/>
      <point x="1651" y="1695"/>
      <point x="1537" y="1750"/>
      <point x="1391" y="1750" type="curve" smooth="yes"/>
      <point x="1111" y="1750"/>
      <point x="953" y="1518"/>
      <point x="953" y="1202" type="curve" smooth="yes"/>
      <point x="953" y="1024" type="line"/>
      <point x="595" y="1024" type="line"/>
      <point x="595" y="1188" type="line" smooth="yes"/>
      <point x="595" y="1324"/>
      <point x="605" y="1382"/>
      <point x="691" y="1382" type="curve" smooth="yes"/>
      <point x="736" y="1382"/>
      <point x="777" y="1365"/>
      <point x="797" y="1354" type="curve"/>
      <point x="941" y="1646" type="line"/>
      <point x="879" y="1694"/>
      <point x="763" y="1750"/>
      <point x="617" y="1750" type="curve" smooth="yes"/>
      <point x="337" y="1750"/>
      <point x="179" y="1518"/>
      <point x="179" y="1202" type="curve" smooth="yes"/>
      <point x="179" y="1024" type="line"/>
      <point x="19" y="1024" type="line"/>
      <point x="19" y="708" type="line"/>
      <point x="179" y="708" type="line"/>
      <point x="179" y="0" type="line"/>
    </contour>
  </outline>
</glyph>
<glyph name="fi" format="2">
  <advance width="1492"/>
  <unicode hex="FB01"/>
  <anchor x="765" y="0" name="caret_1"/>
  <outline>
    <contour>
      <point x="634" y="0" type="line"/>
      <point x="634" y="708" type="line"/>
      <point x="970" y="708" type="line"/>
      <point x="970" y="0" type="line"/>
      <point x="1386" y="0" type="line"/>
      <point x="1386" y="1024" type="line"/>
      <point x="634" y="1024" type="line"/>
      <point x="634" y="1188" type="line" smooth="yes"/>
      <point x="634" y="1324"/>
      <point x="666" y="1386"/>
      <point x="786" y="1386" type="curve" smooth="yes"/>
      <point x="881" y="1386"/>
      <point x="988" y="1329"/>
      <point x="1056" y="1280" type="curve"/>
      <point x="1194" y="1576" type="line"/>
      <point x="1091" y="1655"/>
      <point x="898" y="1750"/>
      <point x="658" y="1750" type="curve" smooth="yes"/>
      <point x="378" y="1750"/>
      <point x="218" y="1518"/>
      <point x="218" y="1202" type="curve" smooth="yes"/>
      <point x="218" y="1024" type="line"/>
      <point x="58" y="1024" type="line"/>
      <point x="58" y="708" type="line"/>
      <point x="218" y="708" type="line"/>
      <point x="218" y="0" type="line"/>
    </contour>
  </outline>
</glyph>
<glyph name="fl" format="2">
  <advance width="1493"/>
  <unicode hex="FB02"/>
  <anchor x="723" y="0" name="caret_1"/>
  <outline>
    <contour>
      <point x="595" y="0" type="line"/>
      <point x="595" y="708" type="line"/>
      <point x="823" y="708" type="line"/>
      <point x="823" y="1024" type="line"/>
      <point x="595" y="1024" type="line"/>
      <point x="595" y="1188" type="line" smooth="yes"/>
      <point x="595" y="1324"/>
      <point x="605" y="1382"/>
      <point x="691" y="1382" type="curve" smooth="yes"/>
      <point x="716" y="1382"/>
      <point x="742" y="1377"/>
      <point x="769" y="1367" type="curve"/>
      <point x="859" y="1696" type="line"/>
      <point x="815" y="1720" name=".hr01"/>
      <point x="728" y="1750" name=".hr02"/>
      <point x="617" y="1750" type="curve" smooth="yes"/>
      <point x="337" y="1750"/>
      <point x="179" y="1518"/>
      <point x="179" y="1202" type="curve" smooth="yes"/>
      <point x="179" y="1024" type="line"/>
      <point x="19" y="1024" type="line"/>
      <point x="19" y="708" type="line"/>
      <point x="179" y="708" type="line"/>
      <point x="179" y="0" type="line"/>
    </contour>
    <contour>
      <point x="1337" y="0" type="line"/>
      <point x="1337" y="1720" type="line" name=".hr03"/>
      <point x="921" y="1720" type="line"/>
      <point x="921" y="0" type="line"/>
    </contour>
  </outline>
</glyph>
<glyph name="f_f_i" format="2">
  <advance width="2268"/>
  <unicode hex="FB03"/>
  <anchor x="752" y="0" name="caret_1"/>
  <anchor x="1504" y="0" name="caret_2"/>
  <outline>
    <contour>
      <point x="634" y="0" type="line"/>
      <point x="634" y="708" type="line"/>
      <point x="994" y="708" type="line"/>
      <point x="994" y="0" type="line"/>
      <point x="1410" y="0" type="line"/>
      <point x="1410" y="708" type="line"/>
      <point x="1746" y="708" type="line"/>
      <point x="1746" y="0" type="line"/>
      <point x="2162" y="0" type="line"/>
      <point x="2162" y="1024" type="line"/>
      <point x="1410" y="1024" type="line"/>
      <point x="1410" y="1188" type="line" smooth="yes"/>
      <point x="1410" y="1324"/>
      <point x="1442" y="1386"/>
      <point x="1562" y="1386" type="curve" smooth="yes"/>
      <point x="1657" y="1386"/>
      <point x="1764" y="1329"/>
      <point x="1832" y="1280" type="curve"/>
      <point x="1970" y="1576" type="line"/>
      <point x="1867" y="1655"/>
      <point x="1674" y="1750"/>
      <point x="1434" y="1750" type="curve" smooth="yes"/>
      <point x="1154" y="1750"/>
      <point x="994" y="1518"/>
      <point x="994" y="1202" type="curve" smooth="yes"/>
      <point x="994" y="1024" type="line"/>
      <point x="634" y="1024" type="line"/>
      <point x="634" y="1188" type="line" smooth="yes"/>
      <point x="634" y="1324"/>
      <point x="644" y="1382"/>
      <point x="730" y="1382" type="curve" smooth="yes"/>
      <point x="775" y="1382"/>
      <point x="816" y="1365"/>
      <point x="836" y="1354" type="curve"/>
      <point x="980" y="1646" type="line"/>
      <point x="918" y="1694"/>
      <point x="802" y="1750"/>
      <point x="656" y="1750" type="curve" smooth="yes"/>
      <point x="376" y="1750"/>
      <point x="218" y="1518"/>
      <point x="218" y="1202" type="curve" smooth="yes"/>
      <point x="218" y="1024" type="line"/>
      <point x="58" y="1024" type="line"/>
      <point x="58" y="708" type="line"/>
      <point x="218" y="708" type="line"/>
      <point x="218" y="0" type="line"/>
    </contour>
  </outline>
</glyph>
<glyph name="f_f_l" format="2">
  <advance width="2267"/>
  <unicode hex="FB04"/>
  <anchor x="710" y="0" name="caret_1"/>
  <anchor x="1460" y="0" name="caret_2"/>
  <outline>
    <contour>
      <point x="595" y="0" type="line"/>
      <point x="595" y="708" type="line"/>
      <point x="953" y="708" type="line"/>
      <point x="953" y="0" type="line"/>
      <point x="1369" y="0" type="line"/>
      <point x="1369" y="708" type="line"/>
      <point x="1597" y="708" type="line"/>
      <point x="1597" y="1024" type="line"/>
      <point x="1369" y="1024" type="line"/>
      <point x="1369" y="1188" type="line" smooth="yes"/>
      <point x="1369" y="1324"/>
      <point x="1379" y="1382"/>
      <point x="1465" y="1382" type="curve" smooth="yes"/>
      <point x="1490" y="1382"/>
      <point x="1516" y="1377"/>
      <point x="1543" y="1367" type="curve"/>
      <point x="1633" y="1696" type="line"/>
      <point x="1589" y="1720" name=".hr01"/>
      <point x="1502" y="1750" name=".hr02"/>
      <point x="1391" y="1750" type="curve" smooth="yes"/>
      <point x="1111" y="1750"/>
      <point x="953" y="1518"/>
      <point x="953" y="1202" type="curve" smooth="yes"/>
      <point x="953" y="1024" type="line"/>
      <point x="595" y="1024" type="line"/>
      <point x="595" y="1188" type="line" smooth="yes"/>
      <point x="595" y="1324"/>
      <point x="605" y="1382"/>
      <point x="691" y="1382" type="curve" smooth="yes"/>
      <point x="736" y="1382"/>
      <point x="777" y="1365"/>
      <point x="797" y="1354" type="curve"/>
      <point x="941" y="1646" type="line"/>
      <point x="879" y="1694"/>
      <point x="763" y="1750"/>
      <point x="617" y="1750" type="curve" smooth="yes"/>
      <point x="337" y="1750"/>
      <point x="179" y="1518"/>
      <point x="179" y="1202" type="curve" smooth="yes"/>
      <point x="179" y="1024" type="line"/>
      <point x="19" y="1024" type="line"/>
      <point x="19" y="708" type="line"/>
      <point x="179" y="708" type="line"/>
      <point x="179" y="0" type="line"/>
    </contour>
    <contour>
      <point x="2111" y="0" type="line"/>
      <point x="2111" y="1720" type="line" name=".hr03"/>
      <point x="1695" y="1720" type="line"/>
      <point x="1695" y="0" type="line"/>
    </contour>
  </outline>
</glyph>
<glyph name="A.tnum" format="2">
  <advance width="1500"/>
  <anchor x="750" y="0" name="bottom"/>
  <anchor x="1626" y="0" name="ogonek"/>
  <anchor x="750" y="1650" name="top"/>
  <outline>
    <contour>
      <point x="348" y="0" type="line"/>
      <point x="447" y="274" type="line"/>
      <point x="1053" y="274" type="line"/>
      <point x="1152" y="0" type="line"/>
      <point x="1626" y="0" type="line"/>
      <point x="954" y="1650" type="line"/>
      <point x="546" y="1650" type="line"/>
      <point x="-126" y="0" type="line"/>
    </contour>
    <contour>
      <point x="750" y="1052" type="line"/>
      <point x="903" y="660" type="line"/>
      <point x="597" y="660" type="line"/>
    </contour>
  </outline>
</glyph>
<glyph name="M.ss01" format="2">
  <advance width="2122"/>
  <anchor x="1061" y="0" name="bottom"/>
  <anchor x="1061" y="1650" name="top"/>
  <outline>
    <contour>
      <point x="571" y="0" type="line"/>
      <point x="619" y="866" type="line"/>
      <point x="931" y="0" type="line"/>
      <point x="1191" y="0" type="line"/>
      <point x="1503" y="866" type="line"/>
      <point x="1551" y="0" type="line"/>
      <point x="1991" y="0" type="line"/>
      <point x="1861" y="1650" type="line"/>
      <point x="1393" y="1650" type="line"/>
      <point x="1061" y="794" type="line"/>
      <point x="729" y="1650" type="line"/>
      <point x="261" y="1650" type="line"/>
      <point x="131" y="0" type="line"/>
    </contour>
  </outline>
</glyph>
<glyph name="P.tnum" format="2">
  <advance width="1500"/>
  <outline>
    <contour>
      <point x="662" y="0" type="line"/>
      <point x="662" y="588" type="line"/>
      <point x="874" y="588" type="line" smooth="yes"/>
      <point x="1194" y="588"/>
      <point x="1448" y="764"/>
      <point x="1448" y="1119" type="curve" smooth="yes"/>
      <point x="1448" y="1474"/>
      <point x="1194" y="1650"/>
      <point x="874" y="1650" type="curve" smooth="yes"/>
      <point x="222" y="1650" type="line"/>
      <point x="222" y="0" type="line"/>
    </contour>
    <contour>
      <point x="662" y="1300" type="line"/>
      <point x="730" y="1300" type="line" smooth="yes"/>
      <point x="848" y="1300"/>
      <point x="984" y="1275"/>
      <point x="984" y="1119" type="curve" smooth="yes"/>
      <point x="984" y="965"/>
      <point x="848" y="938"/>
      <point x="730" y="938" type="curve" smooth="yes"/>
      <point x="662" y="938" type="line"/>
    </contour>
  </outline>
</glyph>
<glyph name="a.ss01" format="2">
  <advance width="1464"/>
  <anchor x="579" y="-10" name="bottom"/>
  <anchor x="1307" y="0" name="ogonek"/>
  <anchor x="699" y="1024" name="top"/>
  <outline>
    <contour>
      <point x="513" y="512" type="curve" smooth="yes"/>
      <point x="513" y="623"/>
      <point x="596" y="704"/>
      <point x="707" y="704" type="curve" smooth="yes"/>
      <point x="818" y="704"/>
      <point x="899" y="623"/>
      <point x="899" y="512" type="curve" smooth="yes"/>
      <point x="899" y="401"/>
      <point x="818" y="320"/>
      <point x="707" y="320" type="curve" smooth="yes"/>
      <point x="596" y="320"/>
      <point x="513" y="401"/>
    </contour>
    <contour>
      <point x="73" y="514" type="curve" smooth="yes"/>
      <point x="73" y="209"/>
      <point x="281" y="-32"/>
      <point x="579" y="-32" type="curve" smooth="yes"/>
      <point x="697" y="-32"/>
      <point x="800" y="5"/>
      <point x="891" y="80" type="curve"/>
      <point x="891" y="0" type="line"/>
      <point x="1307" y="0" type="line" name=".hr01"/>
      <point x="1307" y="1024" type="line"/>
      <point x="891" y="1024" type="line"/>
      <point x="891" y="944" type="line"/>
      <point x="800" y="1019"/>
      <point x="697" y="1056"/>
      <point x="579" y="1056" type="curve" smooth="yes" name=".hr02"/>
      <point x="281" y="1056"/>
      <point x="73" y="819"/>
    </contour>
  </outline>
</glyph>
<glyph name="eight.pnum" format="2">
  <advance width="1437"/>
  <outline>
    <contour>
      <point x="718" y="-32" type="curve" smooth="yes"/>
      <point x="1073" y="-32"/>
      <point x="1362" y="173"/>
      <point x="1362" y="466" type="curve" smooth="yes"/>
      <point x="1362" y="651"/>
      <point x="1249" y="816"/>
      <point x="1080" y="894" type="curve"/>
      <point x="1207" y="968"/>
      <point x="1290" y="1102" name=".hr01"/>
      <point x="1290" y="1248" type="curve" smooth="yes"/>
      <point x="1290" y="1537"/>
      <point x="974" y="1680"/>
      <point x="717" y="1680" type="curve" smooth="yes"/>
      <point x="408" y="1680"/>
      <point x="146" y="1499"/>
      <point x="146" y="1246" type="curve" smooth="yes"/>
      <point x="146" y="1108"/>
      <point x="223" y="972"/>
      <point x="356" y="894" type="curve"/>
      <point x="191" y="818"/>
      <point x="74" y="654" name=".hr02"/>
      <point x="74" y="467" type="curve" smooth="yes"/>
      <point x="74" y="172"/>
      <point x="363" y="-32"/>
    </contour>
    <contour>
      <point x="718" y="348" type="curve" smooth="yes"/>
      <point x="619" y="348"/>
      <point x="556" y="419"/>
      <point x="556" y="517" type="curve" smooth="yes"/>
      <point x="556" y="619"/>
      <point x="625" y="688"/>
      <point x="718" y="688" type="curve" smooth="yes"/>
      <point x="813" y="688"/>
      <point x="880" y="617"/>
      <point x="880" y="517" type="curve" smooth="yes"/>
      <point x="880" y="420"/>
      <point x="818" y="348"/>
    </contour>
    <contour>
      <point x="718" y="1052" type="curve" smooth="yes"/>
      <point x="633" y="1052"/>
      <point x="570" y="1115"/>
      <point x="570" y="1200" type="curve" smooth="yes"/>
      <point x="570" y="1284" name=".hr03"/>
      <point x="634" y="1348"/>
      <point x="718" y="1348" type="curve" smooth="yes"/>
      <point x="802" y="1348"/>
      <point x="866" y="1284"/>
      <point x="866" y="1200" type="curve" smooth="yes"/>
      <point x="866" y="1115"/>
      <point x="803" y="1052"/>
    </contour>
  </outline>
</glyph>
<glyph name="f_f_j" format="2">
  <advance width="2165"/>
  <outline>
    <contour>
      <point x="1690" y="-550" type="curve" smooth="yes"/>
      <point x="2000" y="-550"/>
      <point x="2088" y="-314"/>
      <point x="2088" y="-138" type="curve" smooth="yes"/>
      <point x="2088" y="1024" type="line"/>
      <point x="1336" y="1024" type="line"/>
      <point x="1336" y="1188" type="line" smooth="yes"/>
      <point x="1336" y="1324"/>
      <point x="1368" y="1386"/>
      <point x="1488" y="1386" type="curve" smooth="yes"/>
      <point x="1583" y="1386"/>
      <point x="1690" y="1329"/>
      <point x="1758" y="1280" type="curve"/>
      <point x="1896" y="1576" type="line"/>
      <point x="1793" y="1655"/>
      <point x="1600" y="1750"/>
      <point x="1360" y="1750" type="curve" smooth="yes"/>
      <point x="1080" y="1750"/>
      <point x="920" y="1518"/>
      <point x="920" y="1202" type="curve" smooth="yes"/>
      <point x="920" y="1024" type="line"/>
      <point x="560" y="1024" type="line"/>
      <point x="560" y="1188" type="line" smooth="yes"/>
      <point x="560" y="1324"/>
      <point x="570" y="1382"/>
      <point x="656" y="1382" type="curve" smooth="yes"/>
      <point x="701" y="1382"/>
      <point x="742" y="1365"/>
      <point x="762" y="1354" type="curve"/>
      <point x="906" y="1646" type="line"/>
      <point x="844" y="1694"/>
      <point x="728" y="1750"/>
      <point x="582" y="1750" type="curve" smooth="yes"/>
      <point x="302" y="1750"/>
      <point x="144" y="1518"/>
      <point x="144" y="1202" type="curve" smooth="yes"/>
      <point x="144" y="1024" type="line"/>
      <point x="-16" y="1024" type="line"/>
      <point x="-16" y="708" type="line"/>
      <point x="144" y="708" type="line"/>
      <point x="144" y="0" type="line"/>
      <point x="560" y="0" type="line"/>
      <point x="560" y="708" type="line"/>
      <point x="920" y="708" type="line"/>
      <point x="920" y="0" type="line"/>
      <point x="1336" y="0" type="line"/>
      <point x="1336" y="708" type="line"/>
      <point x="1672" y="708" type="line"/>
      <point x="1672" y="-56" type="line" smooth="yes"/>
      <point x="1672" y="-138"/>
      <point x="1642" y="-176"/>
      <point x="1592" y="-176" type="curve" smooth="yes"/>
      <point x="1564" y="-176"/>
      <point x="1529" y="-159"/>
      <point x="1510" y="-148" type="curve"/>
      <point x="1382" y="-482" type="line"/>
      <point x="1431" y="-511"/>
      <point x="1538" y="-550"/>
    </contour>
  </outline>
</glyph>
<glyph name="f_f_t" format="2">
  <advance width="2448"/>
  <outline>
    <contour>
      <point x="2116" y="-32" type="curve" smooth="yes"/>
      <point x="2230" y="-32"/>
      <point x="2338" y="5"/>
      <point x="2402" y="38" type="curve"/>
      <point x="2298" y="372" type="line"/>
      <point x="2278" y="357"/>
      <point x="2247" y="340"/>
      <point x="2218" y="340" type="curve" smooth="yes"/>
      <point x="2172" y="340"/>
      <point x="2150" y="380"/>
      <point x="2150" y="470" type="curve" smooth="yes"/>
      <point x="2150" y="708" type="line"/>
      <point x="2354" y="708" type="line"/>
      <point x="2354" y="1024" type="line"/>
      <point x="2150" y="1024" type="line"/>
      <point x="2150" y="1408" type="line"/>
      <point x="1734" y="1408" type="line"/>
      <point x="1734" y="1024" type="line"/>
      <point x="1408" y="1024" type="line"/>
      <point x="1408" y="1188" type="line" smooth="yes"/>
      <point x="1408" y="1324"/>
      <point x="1418" y="1382"/>
      <point x="1504" y="1382" type="curve" smooth="yes"/>
      <point x="1547" y="1382"/>
      <point x="1584" y="1369"/>
      <point x="1606" y="1358" type="curve"/>
      <point x="1750" y="1648" type="line"/>
      <point x="1690" y="1695"/>
      <point x="1576" y="1750"/>
      <point x="1430" y="1750" type="curve" smooth="yes"/>
      <point x="1150" y="1750"/>
      <point x="992" y="1518"/>
      <point x="992" y="1202" type="curve" smooth="yes"/>
      <point x="992" y="1024" type="line"/>
      <point x="634" y="1024" type="line"/>
      <point x="634" y="1188" type="line" smooth="yes"/>
      <point x="634" y="1324"/>
      <point x="644" y="1382"/>
      <point x="730" y="1382" type="curve" smooth="yes"/>
      <point x="775" y="1382"/>
      <point x="816" y="1365"/>
      <point x="836" y="1354" type="curve"/>
      <point x="980" y="1646" type="line"/>
      <point x="918" y="1694"/>
      <point x="802" y="1750"/>
      <point x="656" y="1750" type="curve" smooth="yes"/>
      <point x="376" y="1750"/>
      <point x="218" y="1518"/>
      <point x="218" y="1202" type="curve" smooth="yes"/>
      <point x="218" y="1024" type="line"/>
      <point x="58" y="1024" type="line"/>
      <point x="58" y="708" type="line"/>
      <point x="218" y="708" type="line"/>
      <point x="218" y="0" type="line" name=".hr01"/>
      <point x="634" y="0" type="line"/>
      <point x="634" y="708" type="line"/>
      <point x="992" y="708" type="line"/>
      <point x="992" y="0" type="line"/>
      <point x="1408" y="0" type="line"/>
      <point x="1408" y="708" type="line"/>
      <point x="1734" y="708" type="line"/>
      <point x="1734" y="388" type="line" smooth="yes"/>
      <point x="1734" y="194"/>
      <point x="1810" y="-32" name=".hr02"/>
    </contour>
  </outline>
</glyph>
